<svg id="Layer_1" data-name="Layer 1" xmlns="http://www.w3.org/2000/svg" viewBox="0 0 500 150"><title>logo-b9lab</title><path d="M309.75,15.25v119.5H190.25V15.25h119.5m3.43-3.43H186.81V138.18H313.19V11.82Z"/><path d="M212.88,80.31V117.4c0,2.88,1.31,4.26,3.41,4.26a7.71,7.71,0,0,0,4-1.18l.52,5.44a17.08,17.08,0,0,1-7,1.57c-4.65,0-7.73-2.36-7.73-8.52V80.31Z"/><path d="M227.8,94.33A34.91,34.91,0,0,1,240.32,92c9.76,0,13.82,5.7,13.82,13v21.82h-6.81V123.1a15.37,15.37,0,0,1-10.94,4.39c-7.34,0-11.66-4-11.66-10.29,0-8.19,6.62-12.12,16.12-12.12a32,32,0,0,1,6.49.66v-.39c0-5.11-2.49-7.53-7.53-7.53A26.35,26.35,0,0,0,229,100.23ZM238.48,122a13.32,13.32,0,0,0,8.84-3.47v-7.93a22.38,22.38,0,0,0-5.11-.59c-6,0-10.68,2-10.68,6.42C231.54,120.21,234.29,122,238.48,122Z"/><path d="M277.83,127.49a14.43,14.43,0,0,1-11-4.72v4.06H260V80.31h6.81V96.49a15.24,15.24,0,0,1,11-4.52c9.83,0,16.45,7.34,16.45,17.69S287.66,127.49,277.83,127.49Zm-1.77-29.55a13.23,13.23,0,0,0-9.24,4.06v15.66a13.43,13.43,0,0,0,9.24,3.87c6.82,0,11.27-4.85,11.27-11.86S282.88,97.94,276.06,97.94Z"/><path d="M206.07,23.18h19.64c10.68,0,17.25,4.18,17.25,13.3,0,5.6-3.36,9.34-8.51,11.05,7.77,1.34,12.55,5.38,12.55,13C247,68.74,240.88,74,229.15,74H206.07ZM224.3,44.62c6.42,0,10.61-2.17,10.61-7.24,0-5.53-3.88-7.47-10.23-7.47H213.84V44.62Zm3.81,22.63c7,0,10.61-2.62,10.61-7.62,0-5.83-4.41-8.14-11.88-8.14h-13V67.25Z"/><path d="M271.06,22.43c-11.19,0-19.51,7.07-19.51,17.74,0,10.23,6.85,16.34,18.48,16.34a21.32,21.32,0,0,0,15.9-6.7c-.44,10.45-5.45,17.59-15.9,17.59a26,26,0,0,1-13.91-4l-2.36,6.26C256.48,71.39,263,74,270.91,74c14.65,0,22.75-10.45,22.75-25.69C293.66,32.74,285.56,22.43,271.06,22.43Zm-.32,27.18c-6.45,0-11.68-4.44-11.68-9.91s5.23-9.91,11.68-9.91,11.68,4.44,11.68,9.91S277.19,49.62,270.74,49.62Z"/></svg>