<?xml version="1.0" encoding="utf-8"?>
<!-- Generator: Adobe Illustrator 21.0.0, SVG Export Plug-In . SVG Version: 6.00 Build 0)  -->
<svg version="1.1" id="Layer_1" xmlns="http://www.w3.org/2000/svg" xmlns:xlink="http://www.w3.org/1999/xlink" x="0px" y="0px"
	 viewBox="0 0 115 127.5" style="enable-background:new 0 0 115 127.5;" xml:space="preserve">
<title>logo-blockone</title>
<path d="M23.6,44.9H41c7,0,11,3.5,11,9.2c0,4.2-2.2,7.6-6.6,9.2c4.6,1,7.9,3.9,7.9,9c0,6.1-4.8,10.4-12.1,10.4H23.6V44.9z
	 M38.8,60.5c3.6,0,5-2.3,5-4.9c0-2.7-1.7-4.3-5.2-4.3h-6.9v9.1L38.8,60.5L38.8,60.5z M40,76.2c3.5,0,5.1-1.9,5.1-4.8
	c0-2.8-2-4.5-5.5-4.5h-7.8v9.2H40V76.2z M63,52.3l-7.6,1.3l-1-6.7l9.9-2H71v37.7h-8V52.3z M76.6,45.4h3.3v14.9h-3.3V45.4z
	 M82.8,45.4h5.7c4.5,0,7.4,3,7.4,7.4c0,4.5-2.9,7.4-7.4,7.4h-5.7V45.4z M88.3,57.5c2.4,0,4.3-1.4,4.3-4.7c0-3.2-1.9-4.7-4.3-4.7H86
	v9.3h2.3V57.5z M57.5,9.5c1.3,0,2.6,0.3,3.8,1l40.5,23.4c2.3,1.4,3.8,3.8,3.8,6.5v46.7c0,2.7-1.4,5.2-3.8,6.5L61.3,117
	c-1.2,0.7-2.5,1-3.8,1s-2.6-0.3-3.8-1L13.2,93.7c-2.3-1.4-3.8-3.8-3.8-6.5V40.4c0-2.7,1.4-5.2,3.8-6.5l40.5-23.4
	C54.9,9.8,56.2,9.5,57.5,9.5 M57.5,0c-3,0-5.9,0.8-8.5,2.3L8.5,25.6C3.3,28.7,0,34.3,0,40.4v46.7c0,6.1,3.3,11.7,8.5,14.7L49,125.2
	c2.6,1.5,5.5,2.3,8.5,2.3s5.9-0.8,8.5-2.3l40.5-23.4c5.3-3,8.5-8.7,8.5-14.7V40.4c0-6.1-3.3-11.7-8.5-14.7L66,2.3
	C63.4,0.8,60.5,0,57.5,0L57.5,0z"/>
</svg>
