<svg id="Layer_1" data-name="Layer 1" xmlns="http://www.w3.org/2000/svg" viewBox="0 0 500 150"><defs><style>.cls-1{fill:#fff;}</style></defs><title>logo-ethereum-white</title><path class="cls-1" d="M164,70.84a1.36,1.36,0,0,1-1.38,1.24h-25c.69,6.19,5.23,11.83,11.83,11.83a11.59,11.59,0,0,0,10.32-5.23,1.4,1.4,0,0,1,1.1-.69,1.23,1.23,0,0,1,1.24,1.24c0,.28-.14.41-.14.69-2.48,4.4-7.57,6.61-12.52,6.61C141,86.53,135,79,135,70.84S141,55.16,149.41,55.16,164,62.86,164,70.84m-2.61-1.24c-.55-6.19-5.23-11.83-11.83-11.83s-11.28,5.64-11.83,11.83ZM187.8,56V46.35a1.24,1.24,0,1,0-2.48,0V56h-6.47a1.33,1.33,0,0,0-1.24,1.24,1.23,1.23,0,0,0,1.24,1.24h6.47V84.88a1.23,1.23,0,0,0,1.24,1.24,1.33,1.33,0,0,0,1.24-1.24V58.46h6.74a1.24,1.24,0,0,0,0-2.48Zm47.75,12.66c0-6.88-4.27-13.35-11.56-13.35a11.86,11.86,0,0,0-10.46,6.47V32a1.23,1.23,0,0,0-1.24-1.24A1.33,1.33,0,0,0,211.06,32V84.61a1.24,1.24,0,0,0,2.48,0v-12c0-.14-.14-1-.14-1.1-.41-6.88,2.89-13.62,10.6-13.62,6.05,0,9.08,5.37,9.08,10.73v16a1.24,1.24,0,1,0,2.48,0v-16m44.86,2.2A1.36,1.36,0,0,1,279,72.08H254c.69,6.19,5.23,11.83,11.83,11.83a11.59,11.59,0,0,0,10.32-5.23,1.4,1.4,0,0,1,1.1-.69,1.23,1.23,0,0,1,1.24,1.24c0,.28-.14.41-.14.69-2.48,4.4-7.57,6.61-12.52,6.61-8.39,0-14.45-7.57-14.45-15.69s6.05-15.69,14.45-15.69,14.59,7.71,14.59,15.69m-2.61-1.24c-.55-6.19-5.23-11.83-11.83-11.83s-11.28,5.64-11.83,11.83Zm33.44-12.52a1.25,1.25,0,0,0-1.38-1.1c-4.27,0-8.39,3.3-10.46,6.88v-5.5a1.24,1.24,0,1,0-2.48,0V84.74a1.24,1.24,0,1,0,2.48,0v-12c0-7,3.3-13.07,10.73-14a1.79,1.79,0,0,0,1.1-1.65m41.28,13.76a1.36,1.36,0,0,1-1.38,1.24h-25c.69,6.19,5.23,11.83,11.83,11.83a11.59,11.59,0,0,0,10.32-5.23,1.4,1.4,0,0,1,1.1-.69,1.23,1.23,0,0,1,1.24,1.24c0,.28-.14.41-.14.69-2.48,4.4-7.57,6.61-12.52,6.61-8.39,0-14.45-7.57-14.45-15.69s6.05-15.69,14.45-15.69,14.59,7.71,14.59,15.69m-2.75-1.24c-.55-6.19-5.23-11.83-11.83-11.83s-11.28,5.64-11.83,11.83ZM393,57.36a1.24,1.24,0,1,0-2.48,0V67.54c0,8.67-1.93,16.65-10.46,16.65-6.05,0-9.08-5.37-9.08-10.73V57.36a1.23,1.23,0,0,0-1.24-1.24,1.33,1.33,0,0,0-1.24,1.24v16.1c0,6.88,4.13,13.35,11.56,13.35,4.68,0,8.39-3,10.46-7.16v5.23a1.24,1.24,0,1,0,2.48,0V57.36m63.44,11.28c0-6.88-4.27-13.21-11.56-13.21-5.23,0-9.22,3.3-11.28,8-1.65-4.82-5.5-8-10.73-8a11.74,11.74,0,0,0-10.46,6.33V57.22a1.24,1.24,0,1,0-2.48,0V84.74a1.24,1.24,0,1,0,2.48,0V72.63c.14-.14,0-.41,0-.69-.28-8,2.89-14,10.46-14,6.05,0,9.08,5.23,9.08,10.73v16.1a1.24,1.24,0,1,0,2.48,0V72.36C434.4,66,437.29,58,444.86,58c6.05,0,9.08,5.23,9.08,10.73v16.1a1.24,1.24,0,1,0,2.48,0V68.64M74.82,12.08,43.58,64,74.82,82.4,106.06,64Zm.83,76.24L44.41,69.88l31.24,44,31.24-44Z"/></svg>