<?xml version="1.0" encoding="utf-8"?>
<!-- Generator: Adobe Illustrator 21.0.0, SVG Export Plug-In . SVG Version: 6.00 Build 0)  -->
<!DOCTYPE svg PUBLIC "-//W3C//DTD SVG 1.1//EN" "http://www.w3.org/Graphics/SVG/1.1/DTD/svg11.dtd">
<svg version="1.1" id="Layer_1" xmlns="http://www.w3.org/2000/svg" xmlns:xlink="http://www.w3.org/1999/xlink" x="0px" y="0px"
	 viewBox="0 0 545 250" style="enable-background:new 0 0 545 250;" xml:space="preserve">
<style type="text/css">
	.st0{fill:#010101;}
</style>
<g>
	<path class="st0" d="M210,130.7c0,0.5-0.5,0.9-1,0.9h-18.2c0.5,4.5,3.8,8.6,8.6,8.6c3.3,0,5.7-1.2,7.5-3.8c0.2-0.3,0.5-0.5,0.8-0.5
		c0.5,0,0.9,0.4,0.9,0.9c0,0.2-0.1,0.3-0.1,0.5c-1.8,3.2-5.5,4.8-9.1,4.8c-6.1,0-10.5-5.5-10.5-11.4c0-5.9,4.4-11.4,10.5-11.4
		C205.6,119.4,210,124.9,210,130.7 M208.1,129.8c-0.4-4.5-3.8-8.6-8.6-8.6c-4.8,0-8.2,4.1-8.6,8.6H208.1z M227.3,119.9v-7
		c0-0.5-0.4-0.9-0.9-0.9c-0.5,0-0.9,0.4-0.9,0.9v7h-4.7c-0.5,0-0.9,0.5-0.9,0.9c0,0.5,0.4,0.9,0.9,0.9h4.7v19.2
		c0,0.5,0.4,0.9,0.9,0.9c0.5,0,0.9-0.5,0.9-0.9v-19.2h4.9c0.5,0,0.9-0.4,0.9-0.9c0-0.5-0.4-0.9-0.9-0.9H227.3z M262,129.1
		c0-5-3.1-9.7-8.4-9.7c-3.3,0-6.1,1.9-7.6,4.7v-21.6c0-0.5-0.4-0.9-0.9-0.9c-0.5,0-0.9,0.5-0.9,0.9v38.2c0,0.5,0.4,0.9,0.9,0.9
		c0.5,0,0.9-0.4,0.9-0.9V132c0-0.1-0.1-0.7-0.1-0.8c-0.3-5,2.1-9.9,7.7-9.9c4.4,0,6.6,3.9,6.6,7.8v11.6c0,0.5,0.4,0.9,0.9,0.9
		c0.5,0,0.9-0.4,0.9-0.9V129.1 M294.6,130.7c0,0.5-0.5,0.9-1,0.9h-18.2c0.5,4.5,3.8,8.6,8.6,8.6c3.3,0,5.7-1.2,7.5-3.8
		c0.2-0.3,0.5-0.5,0.8-0.5c0.5,0,0.9,0.4,0.9,0.9c0,0.2-0.1,0.3-0.1,0.5c-1.8,3.2-5.5,4.8-9.1,4.8c-6.1,0-10.5-5.5-10.5-11.4
		c0-5.9,4.4-11.4,10.5-11.4C290.2,119.4,294.6,124.9,294.6,130.7 M292.7,129.8c-0.4-4.5-3.8-8.6-8.6-8.6c-4.8,0-8.2,4.1-8.6,8.6
		H292.7z M317,120.7c0-0.5-0.5-0.8-1-0.8c-3.1,0-6.1,2.4-7.6,5v-4c0-0.5-0.4-0.9-0.9-0.9c-0.5,0-0.9,0.4-0.9,0.9v19.9
		c0,0.5,0.4,0.9,0.9,0.9c0.5,0,0.9-0.4,0.9-0.9v-8.7c0-5.1,2.4-9.5,7.8-10.2C316.7,121.6,317,121.3,317,120.7 M347,130.7
		c0,0.5-0.5,0.9-1,0.9h-18.2c0.5,4.5,3.8,8.6,8.6,8.6c3.3,0,5.7-1.2,7.5-3.8c0.2-0.3,0.5-0.5,0.8-0.5c0.5,0,0.9,0.4,0.9,0.9
		c0,0.2-0.1,0.3-0.1,0.5c-1.8,3.2-5.5,4.8-9.1,4.8c-6.1,0-10.5-5.5-10.5-11.4c0-5.9,4.4-11.4,10.5-11.4
		C342.5,119.4,347,124.9,347,130.7 M345,129.8c-0.4-4.5-3.8-8.6-8.6-8.6c-4.8,0-8.2,4.1-8.6,8.6H345z M376.4,120.9
		c0-0.5-0.5-0.9-0.9-0.9c-0.5,0-0.9,0.5-0.9,0.9v7.4c0,6.3-1.4,12.1-7.6,12.1c-4.4,0-6.6-3.9-6.6-7.8v-11.7c0-0.5-0.4-0.9-0.9-0.9
		c-0.5,0-0.9,0.5-0.9,0.9v11.7c0,5,3,9.7,8.4,9.7c3.4,0,6.1-2.2,7.6-5.2v3.8c0,0.5,0.4,0.9,0.9,0.9c0.5,0,0.9-0.4,0.9-0.9v-13.6
		V120.9 M422.5,129.1c0-5-3.1-9.6-8.4-9.6c-3.8,0-6.7,2.4-8.2,5.8c-1.2-3.5-4-5.8-7.8-5.8c-3.3,0-6.1,1.8-7.6,4.6v-3.3
		c0-0.5-0.4-0.9-0.9-0.9c-0.5,0-0.9,0.4-0.9,0.9v20c0,0.5,0.4,0.9,0.9,0.9c0.5,0,0.9-0.4,0.9-0.9v-8.8c0.1-0.1,0-0.3,0-0.5
		c-0.2-5.8,2.1-10.2,7.6-10.2c4.4,0,6.6,3.8,6.6,7.8v11.7c0,0.5,0.4,0.9,0.9,0.9c0.5,0,0.9-0.4,0.9-0.9v-9c0-4.6,2.1-10.4,7.6-10.4
		c4.4,0,6.6,3.8,6.6,7.8v11.7c0,0.5,0.4,0.9,0.9,0.9c0.5,0,0.9-0.4,0.9-0.9V129.1 M145.2,88l-22.7,37.7l22.7,13.4l22.7-13.4
		L145.2,88z M145.8,143.4L123.1,130l22.7,32l22.7-32L145.8,143.4z"/>
</g>
</svg>
