<svg id="Layer_1" data-name="Layer 1" xmlns="http://www.w3.org/2000/svg" viewBox="0 0 500 150"><defs><style>.cls-1{fill:#fff;}</style></defs><title>logo-reuters-white</title><path class="cls-1" d="M168.76,67.79h-6V85a.61.61,0,0,1-.62.62h-2.94a.61.61,0,0,1-.62-.62V67.79h-6c-.36,0-.62-.18-.62-.53v-2.4c0-.36.27-.53.62-.53h16.11a.6.6,0,0,1,.62.53v2.4C169.38,67.61,169.12,67.79,168.76,67.79Zm21.62,17.8h-2.94a.61.61,0,0,1-.62-.62V76.33h-9.43V85a.61.61,0,0,1-.62.62h-2.94a.61.61,0,0,1-.62-.62V64.86c0-.36.27-.53.62-.53h2.94a.6.6,0,0,1,.62.53V72.6h9.43V64.86c0-.36.27-.53.62-.53h2.94a.6.6,0,0,1,.62.53V85A.75.75,0,0,1,190.38,85.59Zm14.77.27c-4.89,0-9.52-2.76-9.52-9.34v-3c0-6.58,4.54-9.34,9.52-9.34s9.52,2.76,9.52,9.34v3C214.67,83.1,210.14,85.86,205.15,85.86Zm5.34-12.37c0-3.92-2.4-5.69-5.34-5.69s-5.34,1.78-5.34,5.69v3c0,3.92,2.4,5.69,5.34,5.69s5.34-1.78,5.34-5.69Zm30,12.1h-3c-.27,0-.44-.27-.44-.62V72.06c0-.18,0-.27-.09-.27l-.18.18-4.81,10.68a1,1,0,0,1-1,.53h-1.51a1.12,1.12,0,0,1-1-.53L223.57,72c-.09-.09-.09-.18-.18-.18s-.09.09-.09.27V85c0,.27-.18.62-.44.62h-3a.5.5,0,0,1-.53-.44V65.57a1.18,1.18,0,0,1,1.16-1.16h2.49a1.16,1.16,0,0,1,1.07.71l5.78,11.66c.18.27.18.44.36.44s.18-.18.36-.44l5.69-11.66a1.16,1.16,0,0,1,1.07-.71h2.49a1.18,1.18,0,0,1,1.16,1.16V85.14C241,85.5,240.75,85.59,240.48,85.59Zm65.67,0h-3a1.55,1.55,0,0,1-1.78-1.07l-8.1-13.61q-.13-.27-.27-.27c-.09,0-.18.09-.18.27V85a.6.6,0,0,1-.53.62h-2.58a.61.61,0,0,1-.62-.62V65.48a1.18,1.18,0,0,1,1.16-1.16h3.2c.62,0,1,.18,1.33,1l8.45,14.42q.13.27.27.27c.09,0,.18-.09.18-.27V64.95a.51.51,0,0,1,.53-.53h2.58a.51.51,0,0,1,.53.53V84.43A1.07,1.07,0,0,1,306.15,85.59Zm-52.32.27a30.48,30.48,0,0,1-6.76-.8.67.67,0,0,1-.53-.62V82.3a.51.51,0,0,1,.53-.53h.09a49.06,49.06,0,0,0,6.76.53c2.67,0,3.47-1,3.47-2.67,0-2.22-5.34-3.47-7.92-4.54a5.4,5.4,0,0,1-3.56-5.25c0-3.29,2.67-5.69,8.19-5.69a28.51,28.51,0,0,1,6.5.8c.27.09.53.27.53.53V67.7a.51.51,0,0,1-.53.53h-.09a63.63,63.63,0,0,0-6.58-.53c-2.22,0-3.92.8-3.92,2.14,0,1,1.16,1.87,2.49,2.4s3.11,1.25,5.07,2c2.49,1,4.18,2.49,4.18,5.34C261.66,82.65,259.79,85.86,253.83,85.86Zm21.18,0c-4.89,0-9.52-2.76-9.52-9.34v-3c0-6.58,4.54-9.34,9.52-9.34s9.52,2.76,9.52,9.34v3C284.44,83.1,279.9,85.86,275,85.86Zm5.25-12.37c0-3.92-2.4-5.69-5.34-5.69s-5.34,1.78-5.34,5.69v3c0,3.92,2.4,5.69,5.34,5.69s5.34-1.78,5.34-5.69Zm58.19,12.1H334.8c-.36,0-.44-.27-.62-.62l-4.27-7.3h-.62c-.8,0-3.2-.09-3.92-.09V85a.6.6,0,0,1-.53.62h-3.11a.61.61,0,0,1-.62-.62V65.39c0-.62.36-.8,1-.89a56.7,56.7,0,0,1,7.12-.36c4.63,0,8.9,1.69,8.9,6.76v.27a5.8,5.8,0,0,1-4,5.87l4.72,8a.33.33,0,0,1,.09.27A.49.49,0,0,1,338.45,85.59Zm-4.54-14.68c0-2.22-1.78-3.2-4.72-3.2-.62,0-3.38.09-3.92.09v6.5c.44,0,3.38.09,3.92.09,3.11,0,4.72-.62,4.72-3.2Zm12.81,8.81c0,2.49.09,2.58,2.4,2.58h7.56a.61.61,0,0,1,.62.62v1.87c0,.44-.18.53-.62.62a36.53,36.53,0,0,1-6.5.44c-5,0-7.56,0-7.56-6.14V70.28c0-6.14,2.67-6.14,7.56-6.14a36.53,36.53,0,0,1,6.5.44c.44.09.62.18.62.62v1.87a.61.61,0,0,1-.62.62h-7.56c-2.22,0-2.4.09-2.4,2.58V73h9.61a.61.61,0,0,1,.62.62V75.8a.61.61,0,0,1-.62.62h-9.61Zm23.94,6.14c-4.81,0-9-2.14-9-8.45V64.95c0-.36.27-.53.62-.53h2.94a.6.6,0,0,1,.62.53V77.4c0,3.38,1.6,5,4.81,5s4.81-1.6,4.81-5V64.95c0-.36.27-.53.62-.53H379a.6.6,0,0,1,.62.53V77.4C379.65,83.72,375.55,85.86,370.66,85.86Zm28.65-18.06h-6V85a.61.61,0,0,1-.62.62h-2.94a.61.61,0,0,1-.62-.62V67.79h-6c-.36,0-.62-.18-.62-.53v-2.4c0-.36.27-.53.62-.53h16.11a.6.6,0,0,1,.62.53v2.4C399.93,67.61,399.67,67.79,399.31,67.79ZM440,85.59h-3.65c-.36,0-.44-.27-.62-.62l-4.27-7.3h-.71c-.8,0-3.2-.09-3.92-.09V85a.6.6,0,0,1-.53.62h-3a.61.61,0,0,1-.62-.62V65.39c0-.62.36-.8,1-.89a55.8,55.8,0,0,1,7.12-.36c4.63,0,8.9,1.69,8.9,6.76v.27a5.8,5.8,0,0,1-4,5.87l4.72,8a.33.33,0,0,1,.09.27A.41.41,0,0,1,440,85.59Zm-4.54-14.68c0-2.22-1.78-3.2-4.72-3.2-.62,0-3.38.09-3.92.09v6.5c.44,0,3.38.09,3.92.09,3.11,0,4.72-.62,4.72-3.2Zm15.93,14.95a30.48,30.48,0,0,1-6.76-.8.67.67,0,0,1-.53-.62V82.3a.51.51,0,0,1,.53-.53h.09a49.06,49.06,0,0,0,6.76.53c2.67,0,3.47-1,3.47-2.67,0-2.22-5.34-3.47-8-4.54a5.4,5.4,0,0,1-3.56-5.25c0-3.29,2.67-5.69,8.19-5.69a28.51,28.51,0,0,1,6.5.8c.27.09.53.27.53.53V67.7a.51.51,0,0,1-.53.53H458a63.63,63.63,0,0,0-6.58-.53c-2.22,0-3.92.8-3.92,2.14,0,1,1.16,1.87,2.49,2.4s3.11,1.25,5.07,2c2.49,1,4.18,2.49,4.18,5.34C459.29,82.65,457.33,85.86,451.37,85.86Zm-44.22-6.14c0,2.49.09,2.58,2.4,2.58h7.56a.61.61,0,0,1,.62.62v1.87c0,.44-.18.53-.62.62a36.53,36.53,0,0,1-6.5.44c-5,0-7.56,0-7.56-6.14V70.28c0-6.14,2.67-6.14,7.56-6.14a36.53,36.53,0,0,1,6.5.44c.44.09.62.18.62.62v1.87a.61.61,0,0,1-.62.62h-7.56c-2.31,0-2.4.09-2.4,2.58V73h9.61a.61.61,0,0,1,.62.62V75.8a.61.61,0,0,1-.62.62h-9.61Zm59.08-14.33v-.44a.09.09,0,0,0-.09-.09H463a.09.09,0,0,0-.09.09v.44a.09.09,0,0,0,.09.09h1.16v3.29a.09.09,0,0,0,.09.09h.53a.09.09,0,0,0,.09-.09V65.48H466C466.14,65.48,466.23,65.48,466.23,65.39Zm4.8,3.47V65a.28.28,0,0,0-.27-.27h-.44a.19.19,0,0,0-.18.18l-1.07,2.22c0,.09,0,.09-.09.09l-.09-.09-1.16-2.22a.19.19,0,0,0-.18-.18h-.44a.28.28,0,0,0-.27.27v3.83a.09.09,0,0,0,.09.09h.62a.09.09,0,0,0,.09-.09V66.28h0l1,2c0,.09.09.09.18.09h.27c.09,0,.18,0,.18-.09l1-2h0v2.58c0,.09,0,.09.09.09h.62A.09.09,0,0,0,471,68.86ZM101,57.56A3.27,3.27,0,0,1,96.24,53a3.25,3.25,0,0,1,4.63-.18A3.44,3.44,0,0,1,101,57.56ZM68,50a1.64,1.64,0,1,0,.09,2.31A1.67,1.67,0,0,0,68,50Zm8.28-3.11a2,2,0,1,0,.09,2.85A2.07,2.07,0,0,0,76.31,46.88Zm8.81-.62A2.58,2.58,0,0,0,81.56,50a2.52,2.52,0,0,0,3.56-.09A2.48,2.48,0,0,0,85.12,46.26Zm8.36,2.14a2.89,2.89,0,1,0,.09,4.09A2.85,2.85,0,0,0,93.48,48.39ZM61,55.51a1.2,1.2,0,1,0,.09,1.69A1.16,1.16,0,0,0,61,55.51Zm42.27,30a1.64,1.64,0,1,0,2.31-.09A1.59,1.59,0,0,0,103.27,85.5Zm2-8.45a2.07,2.07,0,0,0,.09,2.85A2,2,0,0,0,108.16,77,2.07,2.07,0,0,0,105.32,77Zm-.62-8.81a2.58,2.58,0,1,0,3.65-.09A2.55,2.55,0,0,0,104.69,68.24Zm-3-8.28a2.89,2.89,0,1,0,4.09-.09A3,3,0,0,0,101.67,60ZM98.82,92.8a1.2,1.2,0,1,0,1.69-.09A1.16,1.16,0,0,0,98.82,92.8ZM63.76,97a3.36,3.36,0,0,0-.18-4.72,3.27,3.27,0,1,0-4.45,4.81A3.18,3.18,0,0,0,63.76,97ZM56.64,64.5a1.64,1.64,0,1,0-2.31.09A1.59,1.59,0,0,0,56.64,64.5ZM54.51,73a2,2,0,0,0-2.94-2.76A2,2,0,0,0,54.51,73Zm.62,8.81a2.58,2.58,0,1,0-3.65.09A2.55,2.55,0,0,0,55.13,81.76ZM58.24,90a2.93,2.93,0,0,0-.09-4.09,3,3,0,0,0-4.09.09,2.93,2.93,0,0,0,.09,4.09A3,3,0,0,0,58.24,90Zm33.64,10a1.64,1.64,0,1,0-.09-2.31A1.59,1.59,0,0,0,91.88,100Zm-8.28,3.11a2,2,0,1,0-.09-2.85A2,2,0,0,0,83.6,103.12Zm-8.9.62a2.58,2.58,0,1,0-.09-3.65A2.63,2.63,0,0,0,74.71,103.74Zm-8.28-2.14a2.89,2.89,0,1,0-.09-4.09A2.85,2.85,0,0,0,66.43,101.61ZM88.14,56.22a2.5,2.5,0,0,1-3.2,1.69,2.58,2.58,0,0,1-1.78-3.2,2.62,2.62,0,0,1,3.2-1.78A2.65,2.65,0,0,1,88.14,56.22ZM63.49,62.28a1.31,1.31,0,0,0-1.6.89,1.35,1.35,0,0,0,.89,1.6,1.3,1.3,0,0,0,.71-2.49Zm4.45-4.89a1.58,1.58,0,1,0,1.07,2A1.61,1.61,0,0,0,67.94,57.38Zm5.69-3.47A2,2,0,1,0,75,56.4,2,2,0,0,0,73.64,53.91ZM80,52.49a2.22,2.22,0,1,0,1.51,2.76A2.18,2.18,0,0,0,80,52.49ZM60.65,68.33a.9.9,0,0,0-1.16.62.84.84,0,0,0,.62,1.16.93.93,0,1,0,.53-1.78Zm38.44,5.78a1.3,1.3,0,0,0,2.49.71,1.35,1.35,0,0,0-.89-1.6A1.27,1.27,0,0,0,99.09,74.11ZM97.57,67.7a1.58,1.58,0,1,0,2-1.07A1.7,1.7,0,0,0,97.57,67.7ZM94.1,62a2,2,0,0,0,1.33,2.49,2,2,0,0,0,2.49-1.33,2,2,0,0,0-1.33-2.49A2,2,0,0,0,94.1,62ZM89.3,57.56A2.22,2.22,0,1,0,92.06,56,2.25,2.25,0,0,0,89.3,57.56Zm9.25,22.87a.93.93,0,1,0,1.16-.62A1.08,1.08,0,0,0,98.55,80.43ZM76.66,95.29a2.59,2.59,0,1,0-3.2,1.78A2.62,2.62,0,0,0,76.66,95.29ZM60.82,75.89a1.3,1.3,0,1,0-1.6.89A1.27,1.27,0,0,0,60.82,75.89Zm1.42,6.41a1.61,1.61,0,0,0-1.07-2,1.58,1.58,0,1,0,1.07,2ZM65.72,88a2,2,0,1,0-3.83-1.16,2,2,0,0,0,1.33,2.49A1.94,1.94,0,0,0,65.72,88Zm4.89,4.45A2.22,2.22,0,1,0,67.85,94,2.25,2.25,0,0,0,70.61,92.44Zm25.72-4.72a1.27,1.27,0,0,0,1.6-.89,1.35,1.35,0,0,0-.89-1.6,1.31,1.31,0,0,0-1.6.89A1.43,1.43,0,0,0,96.33,87.72Zm-4.45,4.89a1.58,1.58,0,1,0-1.07-2A1.7,1.7,0,0,0,91.88,92.62Zm-5.69,3.47a2,2,0,1,0,1.16-3.83,2,2,0,0,0-2.49,1.33A2,2,0,0,0,86.18,96.09Zm-6.32,1.42a2.22,2.22,0,1,0-1.51-2.76A2.25,2.25,0,0,0,79.87,97.51ZM74.62,61a1.94,1.94,0,0,1-.8,2.67,1.92,1.92,0,0,1-2.67-.8,1.94,1.94,0,0,1,.8-2.67A1.92,1.92,0,0,1,74.62,61ZM64.74,76.6a1.19,1.19,0,0,0-.44,1.6,1.11,1.11,0,0,0,1.6.44,1.14,1.14,0,0,0,.44-1.6A1.22,1.22,0,0,0,64.74,76.6Zm-.18-4.81A1.41,1.41,0,0,0,64,73.67a1.33,1.33,0,0,0,1.87.53,1.43,1.43,0,0,0,.53-1.87A1.41,1.41,0,0,0,64.56,71.8Zm1.25-4.63a1.52,1.52,0,0,0-.62,2.14,1.59,1.59,0,0,0,2.14.62,1.52,1.52,0,0,0,.62-2.14A1.68,1.68,0,0,0,65.81,67.17Zm2.58-4a1.77,1.77,0,1,0,2.4.71A1.88,1.88,0,0,0,68.39,63.17Zm-2,18a1,1,0,0,0-.36,1.33,1,1,0,0,0,1.33.36,1,1,0,0,0,.36-1.33A1.1,1.1,0,0,0,66.43,81.14ZM89.12,64.86a1.14,1.14,0,0,0,1.6.44,1.18,1.18,0,0,0-1.16-2A1.22,1.22,0,0,0,89.12,64.86Zm-4-2.58a1.43,1.43,0,0,0,1.87.53,1.33,1.33,0,0,0,.53-1.87,1.41,1.41,0,0,0-1.87-.53A1.43,1.43,0,0,0,85.12,62.28ZM80.58,61a1.57,1.57,0,1,0,.62-2.14A1.52,1.52,0,0,0,80.58,61Zm-4.89.18a1.77,1.77,0,1,0,.71-2.4A1.88,1.88,0,0,0,75.68,61.21Zm16.46,7.21a1,1,0,0,0,1.33.36,1,1,0,0,0,.36-1.33A1.1,1.1,0,0,0,92.5,67,1.14,1.14,0,0,0,92.15,68.42ZM88.76,87.1A2,2,0,0,0,86,86.3a1.94,1.94,0,0,0-.8,2.67,2,2,0,0,0,2.67.8A1.9,1.9,0,0,0,88.76,87.1Zm-18.06-2a1.14,1.14,0,0,0-1.6-.44,1.17,1.17,0,0,0-.44,1.6,1.18,1.18,0,0,0,2-1.16Zm4,2.58a1.41,1.41,0,0,0-1.87-.53,1.37,1.37,0,0,0,1.33,2.4A1.43,1.43,0,0,0,74.71,87.72ZM79.33,89a1.57,1.57,0,1,0-.62,2.14A1.54,1.54,0,0,0,79.33,89Zm4.81-.27a1.77,1.77,0,1,0-.71,2.4A1.75,1.75,0,0,0,84.14,88.7ZM95.08,73.4a1.32,1.32,0,0,0,.53-1.6,1.19,1.19,0,0,0-1.6-.44,1.1,1.1,0,0,0-.44,1.6A1.14,1.14,0,0,0,95.08,73.4Zm.18,4.81a1.41,1.41,0,0,0,.53-1.87,1.37,1.37,0,1,0-2.4,1.33A1.43,1.43,0,0,0,95.26,78.2ZM94,82.74a1.52,1.52,0,0,0,.62-2.14A1.59,1.59,0,0,0,92.5,80a1.52,1.52,0,0,0-.62,2.14A1.54,1.54,0,0,0,94,82.74Zm-2.49,4a1.77,1.77,0,1,0-2.4-.71A1.68,1.68,0,0,0,91.52,86.75Zm34.17-6.58A5.16,5.16,0,0,1,120.53,75a5.09,5.09,0,0,1,5.16-5.07,5.12,5.12,0,1,1,0,10.23ZM105.58,35.94a2.83,2.83,0,1,0-3.38,2.14A2.8,2.8,0,0,0,105.58,35.94Zm10.05,7.21A3.42,3.42,0,1,0,111.72,46,3.36,3.36,0,0,0,115.64,43.14Zm8.19,9.43a4.29,4.29,0,1,0-4.72,3.83A4.36,4.36,0,0,0,123.82,52.58Zm5.07,10.86a4.72,4.72,0,1,0-5,4.45A4.82,4.82,0,0,0,128.9,63.43ZM82,29.26a2,2,0,1,0-2,2A2.07,2.07,0,0,0,82,29.26Zm20.2,82.58a2.83,2.83,0,1,0,1.25,5.52,2.8,2.8,0,0,0,2.14-3.38A2.94,2.94,0,0,0,102.2,111.84Zm9.52-7.83a3.42,3.42,0,1,0,3.92,2.85A3.36,3.36,0,0,0,111.72,104Zm7.39-10.41a4.29,4.29,0,1,0,4.72,3.83A4.36,4.36,0,0,0,119.11,93.6Zm4.81-11.48a4.72,4.72,0,1,0,5,4.45A4.82,4.82,0,0,0,123.91,82.12ZM80,118.69a2,2,0,1,0,2,2A2.07,2.07,0,0,0,80,118.69ZM34.13,80.16a5.12,5.12,0,0,0,0-10.23A5.16,5.16,0,0,0,29,75.09,5.27,5.27,0,0,0,34.13,80.16ZM57.62,38.07a2.84,2.84,0,0,0,2.14-3.38,2.83,2.83,0,1,0-5.52,1.25A2.84,2.84,0,0,0,57.62,38.07ZM48.1,46a3.42,3.42,0,1,0-3.92-2.85A3.36,3.36,0,0,0,48.1,46ZM40.71,56.4a4.29,4.29,0,0,0-.89-8.54A4.36,4.36,0,0,0,36,52.58,4.42,4.42,0,0,0,40.71,56.4ZM36,67.88a4.72,4.72,0,1,0-5-4.45A4.7,4.7,0,0,0,36,67.88Zm18.24,46.18a2.82,2.82,0,1,0,3.38-2.22A3,3,0,0,0,54.24,114.06Zm-10.05-7.21A3.42,3.42,0,1,0,48.1,104,3.36,3.36,0,0,0,44.18,106.86Zm-8.1-9.43A4.29,4.29,0,1,0,40.8,93.6,4.29,4.29,0,0,0,36.09,97.42ZM31,86.57a4.72,4.72,0,1,0,5-4.45A4.7,4.7,0,0,0,31,86.57Zm60.15,30.52a2.2,2.2,0,1,0,2.67,1.6A2.07,2.07,0,0,0,91.17,117.09Zm-22.51,0a2.2,2.2,0,1,0,1.6,2.67A2.24,2.24,0,0,0,68.65,117.09ZM93.93,31.4A2.2,2.2,0,1,0,91.26,33,2.28,2.28,0,0,0,93.93,31.4ZM70.26,30.24a2.15,2.15,0,0,0-2.67-1.51A2.2,2.2,0,1,0,68.65,33,2.38,2.38,0,0,0,70.26,30.24Zm44,34.26a4,4,0,1,1,2.14-5.25A4,4,0,0,1,114.3,64.5Zm-28-25.45a2.14,2.14,0,0,0-2.58-1.69,2.18,2.18,0,0,0,.89,4.27A2.18,2.18,0,0,0,86.27,39.05Zm9.43,2a2.75,2.75,0,0,0-3.29-2,2.7,2.7,0,0,0-2,3.29,2.75,2.75,0,0,0,3.29,2A2.68,2.68,0,0,0,95.71,41.1Zm8.72,4.27a3.35,3.35,0,1,0-2.22,4.18A3.42,3.42,0,0,0,104.43,45.37Zm7,6.14a3.62,3.62,0,0,0-4.72-2.14,3.66,3.66,0,0,0,2.58,6.85A3.62,3.62,0,0,0,111.46,51.51Zm-44.22-10a1.61,1.61,0,1,0-.8,2.14A1.63,1.63,0,0,0,67.23,41.54Zm40.13,53a2.23,2.23,0,1,0,3.11.53A2.2,2.2,0,0,0,107.36,94.58Zm4.36-8.63a2.64,2.64,0,1,0,3.65.8A2.61,2.61,0,0,0,111.72,85.94Zm2-9.7a3.33,3.33,0,1,0,4.54,1.25A3.33,3.33,0,0,0,113.77,76.25Zm-.09-9.7A3.7,3.7,0,0,0,112,71.44a3.63,3.63,0,0,0,4.89,1.69,3.7,3.7,0,0,0,1.69-4.89A3.63,3.63,0,0,0,113.68,66.55Zm-20.2,39.77a1.61,1.61,0,1,0,2.14.8A1.66,1.66,0,0,0,93.48,106.32ZM48.72,92.8a4,4,0,0,0-3.2-7.3,4,4,0,1,0,3.2,7.3Zm3.83-37.37a2.23,2.23,0,1,0-3.11-.53A2.19,2.19,0,0,0,52.55,55.42Zm-4.36,8.63a2.7,2.7,0,0,0,.8-3.74,2.64,2.64,0,1,0-4.45,2.85A2.55,2.55,0,0,0,48.19,64.06Zm-2.14,9.7a3.33,3.33,0,1,0-4.54-1.25A3.33,3.33,0,0,0,46.05,73.75Zm.18,9.7a3.7,3.7,0,0,0,1.69-4.89A3.63,3.63,0,0,0,43,76.87a3.7,3.7,0,0,0-1.69,4.89A3.58,3.58,0,0,0,46.23,83.45Zm27.41,27.5a2.27,2.27,0,0,0,2.58,1.78,2.18,2.18,0,1,0-.89-4.27A2,2,0,0,0,73.64,110.95Zm-9.52-2a2.71,2.71,0,1,0,2-3.29A2.75,2.75,0,0,0,64.12,108.9Zm-8.72-4.27a3.35,3.35,0,1,0,2.22-4.18A3.42,3.42,0,0,0,55.4,104.63ZM48.46,98.4a3.62,3.62,0,0,0,4.72,2.14,3.66,3.66,0,1,0-4.72-2.14ZM101,101.69a1.71,1.71,0,1,0,2.4.27A1.71,1.71,0,0,0,101,101.69Zm-16.19,6.94a1.71,1.71,0,1,0,2,1.42A1.73,1.73,0,0,0,84.85,108.64ZM76.49,39.41a1.71,1.71,0,1,0-1.42,2A1.84,1.84,0,0,0,76.49,39.41ZM59.13,45.9a1.71,1.71,0,1,0-.27,2.4A1.71,1.71,0,0,0,59.13,45.9Z"/></svg>