<svg id="Layer_1" data-name="Layer 1" xmlns="http://www.w3.org/2000/svg" viewBox="0 0 500 150"><defs><style>.cls-1{fill:#fff;}</style></defs><title>logo-blockone-white</title><path class="cls-1" d="M216.1,56.15h17.4c7,0,11,3.5,11,9.2a9.34,9.34,0,0,1-6.6,9.2c4.6,1,7.9,3.9,7.9,9,0,6.1-4.8,10.4-12.1,10.4H216.1Zm15.2,15.6c3.6,0,5-2.3,5-4.9s-1.7-4.3-5.2-4.3h-6.9v9.1l7.1.1Zm1.2,15.7c3.5,0,5.1-1.9,5.1-4.8s-2-4.5-5.5-4.5h-7.8v9.2h8.2Zm23-23.9-7.6,1.3-1-6.7,9.9-2h6.7v37.7h-8Zm13.6-6.9h3.3v14.9h-3.3Zm6.2,0H281a7,7,0,0,1,7.4,7.4c0,4.5-2.9,7.4-7.4,7.4h-5.7Zm5.5,12.1c2.4,0,4.3-1.4,4.3-4.7s-1.9-4.7-4.3-4.7h-2.3v9.3h2.3Zm-30.8-48a7.46,7.46,0,0,1,3.8,1l40.5,23.4a7.65,7.65,0,0,1,3.8,6.5v46.7a7.32,7.32,0,0,1-3.8,6.5l-40.5,23.4a7.72,7.72,0,0,1-7.6,0l-40.5-23.3a7.65,7.65,0,0,1-3.8-6.5V51.65a7.32,7.32,0,0,1,3.8-6.5l40.5-23.4a7.46,7.46,0,0,1,3.8-1m0-9.5a16.94,16.94,0,0,0-8.5,2.3L201,36.85a17.3,17.3,0,0,0-8.5,14.8v46.7a17,17,0,0,0,8.5,14.7l40.5,23.4a16.86,16.86,0,0,0,17,0L299,113a16.92,16.92,0,0,0,8.5-14.7V51.65A17,17,0,0,0,299,37l-40.5-23.4a16.94,16.94,0,0,0-8.5-2.3Z"/></svg>