<?xml version="1.0" encoding="utf-8"?>
<!-- Generator: Adobe Illustrator 19.2.1, SVG Export Plug-In . SVG Version: 6.00 Build 0)  -->
<!DOCTYPE svg PUBLIC "-//W3C//DTD SVG 1.1//EN" "http://www.w3.org/Graphics/SVG/1.1/DTD/svg11.dtd">
<svg version="1.1" id="Layer_1" xmlns="http://www.w3.org/2000/svg" xmlns:xlink="http://www.w3.org/1999/xlink" x="0px" y="0px"
	 viewBox="0 0 544 250" style="enable-background:new 0 0 544 250;" xml:space="preserve">
<style type="text/css">
	.st0{enable-background:new    ;}
</style>
<path class="st0" d="z"/>
<path d="M181.1,117.9h-6.7v19.3c0,0.4-0.3,0.7-0.7,0.7h-3.3c-0.4,0-0.7-0.3-0.7-0.7v-19.3H163c-0.4,0-0.7-0.2-0.7-0.6v-2.7
	c0-0.4,0.3-0.6,0.7-0.6h18.1c0.4,0,0.7,0.3,0.7,0.6v2.7C181.8,117.7,181.5,117.9,181.1,117.9z M205.4,137.9h-3.3
	c-0.4,0-0.7-0.3-0.7-0.7v-9.7h-10.6v9.7c0,0.4-0.3,0.7-0.7,0.7h-3.3c-0.4,0-0.7-0.3-0.7-0.7v-22.6c0-0.4,0.3-0.6,0.7-0.6h3.3
	c0.4,0,0.7,0.3,0.7,0.6v8.7h10.6v-8.7c0-0.4,0.3-0.6,0.7-0.6h3.3c0.4,0,0.7,0.3,0.7,0.6v22.6C206,137.6,205.7,137.9,205.4,137.9z
	 M222,138.2c-5.5,0-10.7-3.1-10.7-10.5v-3.4c0-7.4,5.1-10.5,10.7-10.5c5.5,0,10.7,3.1,10.7,10.5v3.4
	C232.7,135.1,227.6,138.2,222,138.2z M228,124.3c0-4.4-2.7-6.4-6-6.4c-3.3,0-6,2-6,6.4v3.4c0,4.4,2.7,6.4,6,6.4c3.3,0,6-2,6-6.4
	V124.3z M261.7,137.9h-3.4c-0.3,0-0.5-0.3-0.5-0.7v-14.5c0-0.2,0-0.3-0.1-0.3c0,0-0.1,0.1-0.2,0.2l-5.4,12c-0.2,0.4-0.6,0.6-1.1,0.6
	h-1.7c-0.4,0-0.9-0.2-1.1-0.6l-5.5-12c-0.1-0.1-0.1-0.2-0.2-0.2c-0.1,0-0.1,0.1-0.1,0.3v14.5c0,0.3-0.2,0.7-0.5,0.7h-3.4
	c-0.3,0-0.6-0.2-0.6-0.5v-22c0-0.7,0.6-1.3,1.3-1.3h2.8c0.5,0,1,0.3,1.2,0.8l6.5,13.1c0.2,0.3,0.2,0.5,0.4,0.5
	c0.1,0,0.2-0.2,0.4-0.5l6.4-13.1c0.2-0.5,0.7-0.8,1.2-0.8h2.8c0.7,0,1.3,0.6,1.3,1.3v22C262.3,137.8,262,137.9,261.7,137.9z
	 M335.5,137.9h-3.4c-0.8,0-1.5,0-2-1.2l-9.1-15.3c-0.1-0.2-0.2-0.3-0.3-0.3c-0.1,0-0.2,0.1-0.2,0.3v15.8c0,0.4-0.3,0.7-0.6,0.7H317
	c-0.4,0-0.7-0.3-0.7-0.7v-21.9c0-0.7,0.6-1.3,1.3-1.3h3.6c0.7,0,1.1,0.2,1.5,1.1l9.5,16.2c0.1,0.2,0.2,0.3,0.3,0.3
	c0.1,0,0.2-0.1,0.2-0.3v-16.6c0-0.4,0.3-0.6,0.6-0.6h2.9c0.4,0,0.6,0.3,0.6,0.6v21.9C336.9,137.3,336.3,137.9,335.5,137.9z
	 M276.7,138.2c-3,0-6-0.5-7.6-0.9c-0.3-0.1-0.6-0.3-0.6-0.7v-2.4c0-0.4,0.3-0.6,0.6-0.6c0,0,0,0,0.1,0c1.3,0.2,4.5,0.6,7.6,0.6
	c3,0,3.9-1.1,3.9-3c0-2.5-6-3.9-8.9-5.1c-2.9-1.2-4-3.5-4-5.9c0-3.7,3-6.4,9.2-6.4c3.2,0,6.1,0.6,7.3,0.9c0.3,0.1,0.6,0.3,0.6,0.6
	v2.5c0,0.3-0.2,0.6-0.6,0.6c0,0,0,0-0.1,0c-2.2-0.2-4.5-0.6-7.4-0.6c-2.5,0-4.4,0.9-4.4,2.4c0,1.1,1.3,2.1,2.8,2.7
	c1.5,0.6,3.5,1.4,5.7,2.2c2.8,1.1,4.7,2.8,4.7,6C285.5,134.6,283.4,138.2,276.7,138.2z M300.5,138.2c-5.5,0-10.7-3.1-10.7-10.5v-3.4
	c0-7.4,5.1-10.5,10.7-10.5c5.5,0,10.7,3.1,10.7,10.5v3.4C311.1,135.1,306,138.2,300.5,138.2z M306.4,124.3c0-4.4-2.7-6.4-6-6.4
	c-3.3,0-6,2-6,6.4v3.4c0,4.4,2.7,6.4,6,6.4c3.3,0,6-2,6-6.4V124.3z M371.8,137.9h-4.1c-0.4,0-0.5-0.3-0.7-0.7l-4.8-8.2h-0.7
	c-0.9,0-3.6-0.1-4.4-0.1v8.3c0,0.4-0.3,0.7-0.6,0.7H353c-0.4,0-0.7-0.3-0.7-0.7v-22c0-0.7,0.4-0.9,1.1-1c1.8-0.3,5.5-0.4,8-0.4
	c5.2,0,10,1.9,10,7.6v0.3c0,3.6-1.8,5.5-4.5,6.6l5.3,9c0.1,0.1,0.1,0.2,0.1,0.3C372.2,137.8,372,137.9,371.8,137.9z M366.7,121.4
	c0-2.5-2-3.6-5.3-3.6c-0.7,0-3.8,0.1-4.4,0.1v7.3c0.5,0,3.8,0.1,4.4,0.1c3.5,0,5.3-0.7,5.3-3.6V121.4z M381.1,131.3
	c0,2.8,0.1,2.9,2.7,2.9h8.5c0.4,0,0.7,0.3,0.7,0.7v2.1c0,0.5-0.2,0.6-0.7,0.7c-1.1,0.2-3.3,0.5-7.3,0.5c-5.6,0-8.5,0-8.5-6.9v-10.6
	c0-6.9,3-6.9,8.5-6.9c4,0,6.2,0.3,7.3,0.5c0.5,0.1,0.7,0.2,0.7,0.7v2.1c0,0.4-0.3,0.7-0.7,0.7h-8.5c-2.5,0-2.7,0.1-2.7,2.9v3.1h10.8
	c0.4,0,0.7,0.3,0.7,0.7v2.4c0,0.4-0.3,0.7-0.7,0.7h-10.8V131.3z M408,138.2c-5.4,0-10.1-2.4-10.1-9.5v-14c0-0.4,0.3-0.6,0.7-0.6h3.3
	c0.4,0,0.7,0.3,0.7,0.6v14c0,3.8,1.8,5.6,5.4,5.6c3.6,0,5.4-1.8,5.4-5.6v-14c0-0.4,0.3-0.6,0.7-0.6h3.3c0.4,0,0.7,0.3,0.7,0.6v14
	C418.1,135.8,413.5,138.2,408,138.2z M440.2,117.9h-6.7v19.3c0,0.4-0.3,0.7-0.7,0.7h-3.3c-0.4,0-0.7-0.3-0.7-0.7v-19.3h-6.7
	c-0.4,0-0.7-0.2-0.7-0.6v-2.7c0-0.4,0.3-0.6,0.7-0.6h18.1c0.4,0,0.7,0.3,0.7,0.6v2.7C440.9,117.7,440.6,117.9,440.2,117.9z
	 M485.9,137.9h-4.1c-0.4,0-0.5-0.3-0.7-0.7l-4.8-8.2h-0.8c-0.9,0-3.6-0.1-4.4-0.1v8.3c0,0.4-0.3,0.7-0.6,0.7h-3.4
	c-0.4,0-0.7-0.3-0.7-0.7v-22c0-0.7,0.4-0.9,1.1-1c1.7-0.3,5.5-0.4,8-0.4c5.2,0,10,1.9,10,7.6v0.3c0,3.6-1.8,5.5-4.5,6.6l5.3,9
	c0.1,0.1,0.1,0.2,0.1,0.3C486.3,137.8,486.2,137.9,485.9,137.9z M480.8,121.4c0-2.5-2-3.6-5.3-3.6c-0.7,0-3.8,0.1-4.4,0.1v7.3
	c0.5,0,3.8,0.1,4.4,0.1c3.5,0,5.3-0.7,5.3-3.6V121.4z M498.7,138.2c-3,0-6-0.5-7.6-0.9c-0.3-0.1-0.6-0.3-0.6-0.7v-2.4
	c0-0.4,0.3-0.6,0.6-0.6c0,0,0,0,0.1,0c1.3,0.2,4.5,0.6,7.6,0.6c3,0,3.9-1.1,3.9-3c0-2.5-6-3.9-9-5.1c-2.9-1.2-4-3.5-4-5.9
	c0-3.7,3-6.4,9.2-6.4c3.2,0,6.1,0.6,7.3,0.9c0.3,0.1,0.6,0.3,0.6,0.6v2.5c0,0.3-0.2,0.6-0.6,0.6c0,0,0,0-0.1,0
	c-2.2-0.2-4.5-0.6-7.4-0.6c-2.5,0-4.4,0.9-4.4,2.4c0,1.1,1.3,2.1,2.8,2.7c1.5,0.6,3.5,1.4,5.7,2.2c2.8,1.1,4.7,2.8,4.7,6
	C507.6,134.6,505.4,138.2,498.7,138.2z M449,131.3c0,2.8,0.1,2.9,2.7,2.9h8.5c0.4,0,0.7,0.3,0.7,0.7v2.1c0,0.5-0.2,0.6-0.7,0.7
	c-1.1,0.2-3.3,0.5-7.3,0.5c-5.6,0-8.5,0-8.5-6.9v-10.6c0-6.9,3-6.9,8.5-6.9c4,0,6.2,0.3,7.3,0.5c0.5,0.1,0.7,0.2,0.7,0.7v2.1
	c0,0.4-0.3,0.7-0.7,0.7h-8.5c-2.6,0-2.7,0.1-2.7,2.9v3.1h10.8c0.4,0,0.7,0.3,0.7,0.7v2.4c0,0.4-0.3,0.7-0.7,0.7H449V131.3z
	 M515.4,115.2v-0.5c0-0.1-0.1-0.1-0.1-0.1h-3.5c-0.1,0-0.1,0.1-0.1,0.1v0.5c0,0.1,0.1,0.1,0.1,0.1h1.3v3.7c0,0.1,0.1,0.1,0.1,0.1
	h0.6c0.1,0,0.1-0.1,0.1-0.1v-3.7h1.3C515.3,115.3,515.4,115.3,515.4,115.2z M520.8,119.1v-4.3c0-0.1-0.1-0.3-0.3-0.3H520
	c-0.1,0-0.2,0.1-0.2,0.2l-1.2,2.5c0,0.1,0,0.1-0.1,0.1c0,0,0,0-0.1-0.1l-1.3-2.5c0-0.1-0.1-0.2-0.2-0.2h-0.5c-0.1,0-0.3,0.1-0.3,0.3
	v4.3c0,0.1,0.1,0.1,0.1,0.1h0.7c0.1,0,0.1-0.1,0.1-0.1v-2.8c0,0,0-0.1,0-0.1c0,0,0,0,0,0l1.1,2.3c0,0.1,0.1,0.1,0.2,0.1h0.3
	c0.1,0,0.2,0,0.2-0.1l1.1-2.3c0,0,0,0,0,0c0,0,0,0,0,0.1v2.8c0,0.1,0,0.1,0.1,0.1h0.7C520.7,119.2,520.8,119.2,520.8,119.1z
	 M104.9,106.4c-1.4,1.5-3.8,1.6-5.2,0.1c-1.5-1.4-1.6-3.8-0.1-5.2c1.4-1.5,3.7-1.6,5.2-0.2C106.2,102.5,106.3,104.9,104.9,106.4z
	 M67.9,97.9c-0.7-0.7-1.9-0.7-2.6,0.1c-0.7,0.7-0.7,1.9,0.1,2.6c0.7,0.7,1.9,0.7,2.6-0.1C68.7,99.8,68.6,98.6,67.9,97.9z M77.2,94.4
	c-0.9-0.9-2.3-0.8-3.2,0.1c-0.9,0.9-0.8,2.3,0.1,3.2c0.9,0.9,2.3,0.8,3.2-0.1C78.1,96.7,78.1,95.3,77.2,94.4z M87.1,93.7
	c-1.2-1.1-3-1-4.1,0.1c-1.1,1.2-1,3,0.1,4.1c1.2,1.1,3,1,4-0.1C88.3,96.6,88.3,94.8,87.1,93.7z M96.5,96.1c-1.3-1.2-3.3-1.2-4.6,0.1
	c-1.2,1.3-1.2,3.3,0.1,4.6c1.3,1.2,3.4,1.2,4.6-0.1C97.9,99.4,97.8,97.3,96.5,96.1z M60,104.1c-0.6-0.5-1.4-0.5-1.9,0.1
	c-0.5,0.5-0.5,1.4,0.1,1.9c0.6,0.5,1.4,0.5,1.9-0.1C60.6,105.5,60.6,104.6,60,104.1z M107.5,137.8c-0.7,0.7-0.7,1.9,0.1,2.6
	c0.7,0.7,1.9,0.7,2.6-0.1c0.7-0.7,0.7-1.9-0.1-2.6C109.4,137,108.2,137,107.5,137.8z M109.8,128.3c-0.8,0.9-0.8,2.3,0.1,3.2
	c0.9,0.9,2.3,0.8,3.2-0.1c0.9-0.9,0.8-2.3-0.1-3.2C112.1,127.4,110.7,127.4,109.8,128.3z M109.1,118.4c-1.1,1.2-1,3,0.1,4.1
	c1.2,1.1,3,1,4.1-0.1c1.1-1.1,1-3-0.1-4.1C112,117.2,110.2,117.2,109.1,118.4z M105.7,109.1c-1.2,1.3-1.2,3.3,0.1,4.6
	c1.3,1.2,3.3,1.2,4.6-0.1c1.2-1.3,1.2-3.3-0.1-4.6C108.9,107.8,106.9,107.9,105.7,109.1z M102.5,146c-0.5,0.5-0.5,1.4,0.1,1.9
	c0.6,0.5,1.4,0.5,1.9-0.1c0.5-0.5,0.5-1.4-0.1-1.9C103.9,145.4,103,145.4,102.5,146z M63.1,150.7c1.4-1.5,1.3-3.8-0.2-5.3
	c-1.5-1.4-3.8-1.3-5.2,0.2c-1.4,1.5-1.3,3.8,0.2,5.2C59.3,152.3,61.7,152.2,63.1,150.7z M55.1,114.2c0.7-0.7,0.7-1.9-0.1-2.6
	c-0.7-0.7-1.9-0.7-2.6,0.1c-0.7,0.7-0.7,1.9,0.1,2.6C53.2,115,54.4,115,55.1,114.2z M52.7,123.7c0.9-0.9,0.8-2.3-0.1-3.2
	c-0.9-0.9-2.4-0.8-3.2,0.1c-0.8,0.9-0.8,2.3,0.1,3.2C50.4,124.6,51.8,124.6,52.7,123.7z M53.4,133.6c1.1-1.1,1-3-0.1-4.1
	c-1.2-1.1-3-1-4.1,0.1c-1.1,1.1-1,3,0.1,4.1C50.5,134.8,52.3,134.8,53.4,133.6z M56.9,142.9c1.2-1.3,1.2-3.3-0.1-4.6
	c-1.3-1.2-3.3-1.1-4.6,0.1c-1.2,1.3-1.2,3.3,0.1,4.6C53.6,144.2,55.7,144.1,56.9,142.9z M94.7,154.1c0.7,0.7,1.9,0.7,2.6-0.1
	c0.7-0.7,0.7-1.9-0.1-2.6c-0.7-0.7-1.9-0.7-2.6,0.1C93.9,152.2,93.9,153.4,94.7,154.1z M85.4,157.6c0.9,0.9,2.3,0.8,3.2-0.1
	c0.9-0.9,0.8-2.3-0.1-3.2c-0.9-0.9-2.3-0.8-3.2,0.1C84.4,155.3,84.5,156.7,85.4,157.6z M75.4,158.3c1.2,1.1,3,1,4.1-0.1
	c1.1-1.2,1-3-0.1-4.1c-1.2-1.1-3-1-4.1,0.1C74.2,155.4,74.3,157.2,75.4,158.3z M66.1,155.9c1.3,1.2,3.3,1.2,4.6-0.1
	c1.2-1.3,1.2-3.3-0.1-4.6c-1.3-1.2-3.3-1.2-4.6,0.1C64.7,152.6,64.8,154.7,66.1,155.9z M90.5,104.9c-0.4,1.5-2,2.4-3.6,1.9
	c-1.6-0.5-2.4-2-2-3.6c0.4-1.5,2-2.4,3.6-2C90.1,101.7,91,103.4,90.5,104.9z M62.8,111.7c-0.8-0.2-1.5,0.2-1.8,1
	c-0.2,0.7,0.2,1.5,1,1.8c0.8,0.2,1.5-0.2,1.8-1C64,112.7,63.6,112,62.8,111.7z M67.8,106.2c-0.9-0.3-1.9,0.3-2.2,1.2
	c-0.3,0.9,0.3,1.9,1.2,2.2c0.9,0.3,1.9-0.3,2.2-1.2C69.3,107.5,68.7,106.5,67.8,106.2z M74.2,102.3c-1.2-0.3-2.4,0.3-2.8,1.5
	c-0.3,1.2,0.3,2.4,1.5,2.8c1.2,0.3,2.4-0.3,2.8-1.5C76.1,103.9,75.4,102.7,74.2,102.3z M81.3,100.7c-1.3-0.4-2.7,0.4-3.1,1.7
	c-0.4,1.3,0.4,2.7,1.7,3.1c1.3,0.4,2.7-0.4,3.1-1.7C83.4,102.5,82.7,101.1,81.3,100.7z M59.6,118.5c-0.6-0.2-1.2,0.2-1.3,0.7
	c-0.2,0.6,0.1,1.2,0.7,1.3c0.6,0.2,1.2-0.2,1.3-0.7C60.5,119.3,60.2,118.7,59.6,118.5z M102.8,125c-0.2,0.7,0.2,1.6,1,1.8
	c0.8,0.2,1.5-0.2,1.8-1c0.2-0.7-0.2-1.5-1-1.8C103.8,123.8,103,124.2,102.8,125z M101.1,117.8c-0.3,0.9,0.3,1.9,1.2,2.2
	c0.9,0.3,1.9-0.3,2.2-1.2c0.3-0.9-0.3-1.9-1.2-2.2C102.4,116.4,101.4,116.9,101.1,117.8z M97.2,111.4c-0.4,1.2,0.3,2.4,1.5,2.8
	c1.2,0.3,2.4-0.3,2.8-1.5c0.4-1.2-0.3-2.4-1.5-2.8C98.8,109.6,97.6,110.2,97.2,111.4z M91.8,106.4c-0.4,1.3,0.4,2.7,1.7,3.1
	c1.3,0.4,2.7-0.4,3.1-1.7c0.4-1.3-0.4-2.7-1.7-3.1C93.6,104.3,92.2,105.1,91.8,106.4z M102.2,132.1c-0.2,0.6,0.2,1.2,0.7,1.3
	c0.6,0.2,1.2-0.2,1.3-0.7c0.2-0.6-0.2-1.2-0.7-1.3C103,131.3,102.4,131.6,102.2,132.1z M77.6,148.8c0.4-1.5-0.4-3.1-2-3.6
	c-1.5-0.4-3.1,0.4-3.6,2c-0.4,1.5,0.4,3.1,2,3.6C75.6,151.2,77.2,150.3,77.6,148.8z M59.8,127c0.2-0.8-0.2-1.5-1-1.8
	c-0.8-0.2-1.5,0.2-1.8,1c-0.2,0.8,0.2,1.5,1,1.8C58.8,128.2,59.6,127.8,59.8,127z M61.4,134.2c0.3-0.9-0.3-1.9-1.2-2.2
	c-0.9-0.3-1.9,0.2-2.2,1.2c-0.3,0.9,0.2,1.9,1.2,2.2C60.2,135.7,61.2,135.1,61.4,134.2z M65.3,140.6c0.3-1.2-0.3-2.4-1.5-2.8
	c-1.2-0.3-2.4,0.3-2.8,1.5c-0.4,1.2,0.3,2.4,1.5,2.8C63.7,142.5,65,141.8,65.3,140.6z M70.8,145.6c0.4-1.3-0.4-2.7-1.7-3.1
	c-1.3-0.4-2.7,0.4-3.1,1.7c-0.4,1.3,0.4,2.7,1.7,3.1C69,147.7,70.4,146.9,70.8,145.6z M99.7,140.3c0.8,0.2,1.6-0.2,1.8-1
	c0.2-0.7-0.2-1.5-1-1.8c-0.8-0.2-1.5,0.2-1.8,1C98.6,139.3,99,140.1,99.7,140.3z M94.7,145.8c0.9,0.3,1.9-0.3,2.2-1.2
	c0.3-0.9-0.3-1.9-1.2-2.2c-0.9-0.3-1.9,0.3-2.2,1.2C93.3,144.5,93.8,145.5,94.7,145.8z M88.3,149.7c1.2,0.3,2.4-0.3,2.8-1.5
	c0.3-1.2-0.3-2.4-1.5-2.8c-1.2-0.4-2.4,0.3-2.8,1.5C86.5,148.1,87.1,149.3,88.3,149.7z M81.2,151.3c1.3,0.4,2.7-0.4,3.1-1.7
	c0.4-1.3-0.4-2.7-1.7-3.1c-1.3-0.4-2.7,0.4-3.1,1.7C79.1,149.5,79.9,150.9,81.2,151.3z M75.3,110.3c0.6,1.1,0.2,2.4-0.9,3
	c-1.1,0.6-2.5,0.2-3-0.9c-0.6-1.1-0.2-2.4,0.9-3C73.4,108.8,74.8,109.2,75.3,110.3z M64.2,127.8c-0.6,0.4-0.9,1.2-0.5,1.8
	c0.4,0.7,1.2,0.9,1.8,0.5c0.6-0.3,0.9-1.1,0.5-1.8C65.7,127.7,64.9,127.5,64.2,127.8z M64,122.4c-0.7,0.4-1,1.3-0.6,2.1
	c0.4,0.8,1.3,1,2.1,0.6c0.7-0.4,1-1.4,0.6-2.1C65.7,122.3,64.8,122,64,122.4z M65.4,117.2c-0.9,0.5-1.2,1.5-0.7,2.4
	c0.5,0.8,1.5,1.2,2.4,0.7c0.9-0.5,1.2-1.5,0.7-2.4C67.3,117.1,66.3,116.8,65.4,117.2z M68.3,112.7c-1,0.5-1.3,1.7-0.8,2.7
	c0.5,1,1.7,1.3,2.7,0.8c1-0.5,1.3-1.7,0.8-2.7C70.4,112.6,69.2,112.2,68.3,112.7z M66.1,132.9c-0.5,0.3-0.7,1-0.4,1.5
	c0.3,0.5,0.9,0.7,1.5,0.4c0.5-0.3,0.7-1,0.4-1.5C67.3,132.9,66.6,132.6,66.1,132.9z M91.6,114.6c0.3,0.6,1.1,0.9,1.8,0.5
	c0.6-0.4,0.9-1.2,0.5-1.8c-0.4-0.6-1.2-0.9-1.8-0.5C91.5,113.1,91.3,113.9,91.6,114.6z M87.1,111.7c0.4,0.7,1.4,1,2.1,0.6
	c0.8-0.4,1-1.3,0.6-2.1c-0.4-0.7-1.3-1-2.1-0.6C87,110,86.7,111,87.1,111.7z M82,110.3c0.5,0.9,1.5,1.2,2.4,0.7
	c0.9-0.5,1.2-1.5,0.7-2.4c-0.5-0.9-1.5-1.2-2.4-0.7C81.8,108.4,81.5,109.4,82,110.3z M76.5,110.5c0.5,1,1.7,1.3,2.7,0.8
	c1-0.5,1.3-1.7,0.8-2.7c-0.5-1-1.7-1.3-2.7-0.8C76.4,108.4,76,109.6,76.5,110.5z M95,118.6c0.3,0.5,1,0.7,1.5,0.4
	c0.5-0.3,0.7-0.9,0.4-1.5c-0.3-0.5-0.9-0.7-1.5-0.5C94.9,117.4,94.7,118.1,95,118.6z M91.2,139.6c-0.6-1.1-2-1.5-3.1-0.9
	c-1.1,0.6-1.5,1.9-0.9,3c0.6,1.1,2,1.5,3,0.9C91.4,142,91.8,140.7,91.2,139.6z M70.9,137.4c-0.3-0.6-1.1-0.9-1.8-0.5
	c-0.6,0.3-0.9,1.2-0.5,1.8c0.3,0.6,1.1,0.9,1.8,0.5C71,138.9,71.3,138.1,70.9,137.4z M75.4,140.3c-0.4-0.7-1.3-1-2.1-0.6
	c-0.8,0.4-1,1.3-0.6,2.1c0.4,0.8,1.3,1,2.1,0.6C75.5,142,75.8,141,75.4,140.3z M80.6,141.7c-0.5-0.9-1.5-1.2-2.4-0.7
	c-0.9,0.5-1.2,1.5-0.7,2.4c0.5,0.9,1.5,1.2,2.4,0.7C80.8,143.6,81.1,142.5,80.6,141.7z M86,141.4c-0.5-1-1.7-1.3-2.7-0.8
	c-1,0.5-1.3,1.7-0.8,2.7c0.5,1,1.7,1.3,2.7,0.8C86.2,143.6,86.5,142.4,86,141.4z M98.3,124.2c0.6-0.4,0.9-1.2,0.6-1.8
	c-0.4-0.6-1.2-0.9-1.8-0.5c-0.7,0.3-0.9,1.2-0.5,1.8C96.9,124.3,97.7,124.5,98.3,124.2z M98.5,129.6c0.7-0.4,1-1.3,0.6-2.1
	c-0.4-0.8-1.3-1-2.1-0.6c-0.8,0.4-1,1.3-0.6,2.1C96.8,129.7,97.8,130,98.5,129.6z M97.1,134.7c0.9-0.5,1.2-1.5,0.7-2.4
	c-0.5-0.8-1.5-1.2-2.4-0.7c-0.9,0.5-1.2,1.5-0.7,2.4C95.2,134.9,96.3,135.2,97.1,134.7z M94.3,139.2c1-0.5,1.3-1.7,0.8-2.7
	c-0.5-1-1.7-1.3-2.7-0.8c-1,0.5-1.3,1.7-0.8,2.7C92.1,139.4,93.3,139.8,94.3,139.2z M132.7,131.8c-3.2,0-5.8-2.6-5.8-5.8
	c0-3.2,2.6-5.7,5.8-5.7c3.2,0,5.8,2.6,5.8,5.8C138.5,129.2,135.9,131.8,132.7,131.8z M110.1,82.1c0.4-1.7-0.7-3.4-2.4-3.8
	c-1.7-0.4-3.4,0.7-3.8,2.4c-0.4,1.7,0.7,3.4,2.4,3.8C108.1,84.9,109.7,83.8,110.1,82.1z M121.4,90.2c0.3-2.1-1.1-4.1-3.2-4.4
	c-2.1-0.3-4.1,1.1-4.4,3.2c-0.3,2.1,1.1,4.1,3.2,4.4C119.1,93.8,121.1,92.3,121.4,90.2z M130.6,100.8c0.3-2.6-1.6-5-4.3-5.3
	c-2.6-0.3-5,1.6-5.3,4.3c-0.3,2.6,1.6,5,4.3,5.3C128,105.3,130.3,103.4,130.6,100.8z M136.3,113c0.2-2.9-2.1-5.4-5-5.6
	c-2.9-0.2-5.4,2.1-5.6,5c-0.2,2.9,2.1,5.4,5,5.6C133.6,118.1,136.1,115.9,136.3,113z M83.6,74.6c0-1.3-1-2.3-2.3-2.3
	c-1.3,0-2.3,1-2.3,2.3c0,1.3,1,2.3,2.3,2.3C82.6,76.9,83.6,75.8,83.6,74.6z M106.3,167.4c-1.7,0.4-2.8,2.1-2.4,3.8
	c0.4,1.7,2.1,2.8,3.8,2.4c1.7-0.4,2.8-2,2.4-3.8C109.7,168.2,108.1,167.1,106.3,167.4z M117,158.6c-2.1,0.3-3.5,2.3-3.2,4.4
	c0.3,2.1,2.3,3.5,4.4,3.2c2.1-0.3,3.5-2.3,3.2-4.4C121.1,159.7,119.1,158.2,117,158.6z M125.3,146.9c-2.6,0.3-4.5,2.6-4.3,5.3
	c0.3,2.6,2.6,4.5,5.3,4.3c2.6-0.3,4.5-2.6,4.3-5.3C130.3,148.6,128,146.7,125.3,146.9z M130.7,134c-2.9,0.2-5.2,2.6-5,5.6
	c0.2,2.9,2.6,5.2,5.6,5c2.9-0.2,5.2-2.6,5-5.6C136.1,136.1,133.6,133.9,130.7,134z M81.3,175.1c-1.3,0-2.3,1-2.3,2.3s1,2.3,2.3,2.3
	c1.3,0,2.3-1,2.3-2.3C83.6,176.2,82.6,175.1,81.3,175.1z M29.8,131.8c3.2,0,5.7-2.6,5.7-5.8c0-3.2-2.6-5.7-5.7-5.7
	c-3.2,0-5.8,2.6-5.8,5.8C24.1,129.2,26.7,131.8,29.8,131.8z M56.2,84.5c1.7-0.4,2.8-2.1,2.4-3.8c-0.4-1.7-2-2.8-3.8-2.4
	c-1.7,0.4-2.8,2-2.4,3.8C52.8,83.8,54.5,84.9,56.2,84.5z M45.5,93.4c2.1-0.3,3.5-2.3,3.2-4.4c-0.3-2.1-2.3-3.5-4.4-3.2
	c-2.1,0.3-3.5,2.3-3.2,4.4C41.4,92.3,43.4,93.8,45.5,93.4z M37.2,105.1c2.6-0.3,4.6-2.6,4.3-5.3c-0.3-2.6-2.6-4.6-5.3-4.3
	c-2.6,0.3-4.5,2.6-4.3,5.3C32.2,103.4,34.6,105.3,37.2,105.1z M31.9,118c2.9-0.2,5.2-2.6,5-5.6c-0.2-2.9-2.6-5.2-5.6-5
	c-2.9,0.2-5.2,2.6-5,5.6C26.4,115.9,28.9,118.1,31.9,118z M52.4,169.9c-0.4,1.7,0.7,3.4,2.4,3.8c1.7,0.4,3.4-0.7,3.8-2.5
	c0.4-1.7-0.7-3.4-2.4-3.8C54.5,167.1,52.8,168.2,52.4,169.9z M41.1,161.8c-0.3,2.1,1.1,4.1,3.2,4.4c2.1,0.3,4.1-1.1,4.4-3.2
	c0.3-2.1-1.1-4.1-3.2-4.4C43.4,158.2,41.4,159.7,41.1,161.8z M32,151.2c-0.3,2.6,1.6,5,4.3,5.3c2.6,0.3,5-1.6,5.3-4.3
	c0.3-2.6-1.6-5-4.3-5.3C34.6,146.7,32.2,148.6,32,151.2z M26.3,139c-0.2,2.9,2.1,5.4,5,5.6c2.9,0.2,5.4-2.1,5.6-5
	c0.2-2.9-2.1-5.4-5-5.6C28.9,133.9,26.4,136.1,26.3,139z M93.9,173.3c-1.3,0.4-2.1,1.7-1.8,3c0.4,1.3,1.7,2.1,3,1.8
	c1.3-0.4,2.1-1.7,1.8-3C96.6,173.7,95.3,172.9,93.9,173.3z M68.6,173.3c-1.3-0.4-2.7,0.4-3,1.8c-0.4,1.3,0.4,2.7,1.8,3
	c1.3,0.4,2.7-0.4,3-1.8C70.7,175,69.9,173.6,68.6,173.3z M97,77c0.4-1.3-0.4-2.7-1.8-3c-1.3-0.4-2.7,0.4-3,1.8
	c-0.4,1.3,0.4,2.7,1.8,3C95.3,79.1,96.6,78.3,97,77z M70.4,75.7c-0.4-1.3-1.7-2.1-3-1.7c-1.3,0.4-2.1,1.7-1.8,3
	c0.4,1.3,1.7,2.1,3,1.8C69.9,78.4,70.7,77,70.4,75.7z M119.9,114.2c-2.3,1-4.9-0.1-5.9-2.4c-1-2.3,0.1-4.9,2.4-5.9
	c2.3-1,4.9,0.1,5.9,2.4C123.3,110.6,122.2,113.2,119.9,114.2z M88.4,85.6c-0.3-1.4-1.6-2.2-2.9-1.9c-1.3,0.3-2.2,1.6-1.9,2.9
	c0.3,1.3,1.6,2.2,2.9,1.9C87.8,88.3,88.6,87,88.4,85.6z M99,87.9c-0.4-1.6-2.1-2.6-3.7-2.2c-1.6,0.4-2.6,2-2.2,3.7
	c0.4,1.6,2.1,2.6,3.7,2.2C98.5,91.2,99.4,89.5,99,87.9z M108.8,92.7c-0.6-2-2.7-3.1-4.7-2.5c-2,0.6-3.1,2.7-2.5,4.7
	c0.6,2,2.7,3.1,4.7,2.5C108.3,96.7,109.4,94.6,108.8,92.7z M116.7,99.6c-0.8-2.2-3.2-3.2-5.3-2.4c-2.1,0.8-3.2,3.2-2.4,5.3
	c0.8,2.1,3.2,3.2,5.3,2.4C116.4,104.2,117.5,101.8,116.7,99.6z M67,88.4c-0.4-0.9-1.5-1.3-2.4-0.9c-0.9,0.4-1.3,1.5-0.9,2.4
	c0.4,0.9,1.5,1.3,2.4,0.9C67,90.4,67.4,89.3,67,88.4z M112.1,148c-1.1,0.8-1.4,2.3-0.6,3.5c0.8,1.1,2.3,1.4,3.5,0.6
	c1.1-0.8,1.4-2.3,0.6-3.5C114.7,147.4,113.2,147.2,112.1,148z M117,138.3c-1.4,0.9-1.8,2.7-0.9,4.1c0.9,1.4,2.7,1.8,4.1,0.9
	c1.4-0.9,1.8-2.7,0.9-4.1C120.2,137.8,118.4,137.4,117,138.3z M119.3,127.4c-1.8,1-2.4,3.3-1.4,5.1c1,1.8,3.3,2.4,5.1,1.4
	c1.8-1,2.4-3.3,1.4-5.1C123.4,127,121.1,126.4,119.3,127.4z M119.2,116.5c-2,1-2.9,3.5-1.9,5.5c1,2.1,3.5,2.9,5.5,1.9
	c2-1,2.9-3.5,1.9-5.5C123.7,116.3,121.2,115.5,119.2,116.5z M96.5,161.2c-0.9,0.4-1.3,1.5-0.9,2.4c0.4,0.9,1.5,1.3,2.4,0.9
	c0.9-0.4,1.3-1.5,0.9-2.4C98.4,161.2,97.4,160.8,96.5,161.2z M46.2,146c2.3-1,3.3-3.6,2.3-5.9c-1-2.3-3.6-3.3-5.9-2.3
	c-2.3,1-3.3,3.6-2.4,5.9C41.2,146,43.9,147,46.2,146z M50.5,104c1.1-0.8,1.4-2.3,0.6-3.5c-0.8-1.1-2.3-1.4-3.5-0.6
	c-1.1,0.8-1.4,2.3-0.6,3.5C47.8,104.6,49.4,104.8,50.5,104z M45.6,113.7c1.4-0.9,1.8-2.7,0.9-4.2c-0.9-1.4-2.7-1.8-4.1-0.9
	c-1.4,0.9-1.8,2.7-0.9,4.1C42.3,114.2,44.2,114.6,45.6,113.7z M43.2,124.6c1.8-1,2.4-3.3,1.4-5.1c-1-1.8-3.3-2.4-5.1-1.4
	c-1.8,1-2.4,3.3-1.4,5.1C39.1,125,41.4,125.6,43.2,124.6z M43.4,135.5c2-1,2.9-3.5,1.9-5.5c-1-2.1-3.5-2.9-5.5-1.9
	c-2,1-2.9,3.5-1.9,5.5C38.8,135.7,41.3,136.5,43.4,135.5z M74.2,166.4c0.3,1.4,1.6,2.2,2.9,2c1.3-0.3,2.2-1.6,1.9-2.9
	c-0.3-1.3-1.6-2.2-2.9-1.9C74.8,163.7,73.9,165,74.2,166.4z M63.5,164.1c0.4,1.6,2,2.6,3.7,2.2c1.6-0.4,2.6-2,2.2-3.7
	c-0.4-1.6-2-2.6-3.7-2.2C64.1,160.8,63.1,162.5,63.5,164.1z M53.7,159.3c0.6,2,2.7,3.1,4.7,2.5c2-0.6,3.1-2.7,2.5-4.7
	c-0.6-2-2.7-3.1-4.7-2.5C54.2,155.3,53.1,157.4,53.7,159.3z M45.9,152.3c0.8,2.2,3.2,3.2,5.3,2.4c2.1-0.8,3.2-3.2,2.4-5.3
	c-0.8-2.1-3.2-3.2-5.3-2.4C46.2,147.8,45.1,150.2,45.9,152.3z M105,156c-0.8,0.7-1,1.9-0.3,2.7c0.7,0.8,1.9,1,2.7,0.3
	c0.8-0.7,1-1.9,0.3-2.7C107,155.5,105.8,155.3,105,156z M86.8,163.8c-1.1,0.2-1.8,1.1-1.6,2.2c0.2,1.1,1.1,1.8,2.2,1.6
	c1.1-0.2,1.8-1.1,1.6-2.2C88.9,164.4,87.9,163.7,86.8,163.8z M77.4,86c-0.2-1.1-1.1-1.8-2.2-1.6c-1.1,0.2-1.8,1.1-1.6,2.2
	c0.2,1.1,1.1,1.8,2.2,1.6C76.8,88,77.5,87,77.4,86z M57.9,93.3c-0.7-0.8-1.9-1-2.7-0.3c-0.8,0.7-1,1.9-0.3,2.7
	c0.7,0.8,1.9,1,2.7,0.3C58.4,95.3,58.6,94.1,57.9,93.3z"/>
</svg>
