<svg id="Layer_1" data-name="Layer 1" xmlns="http://www.w3.org/2000/svg" viewBox="0 0 1382 909"><defs><style>.cls-1{fill:none;stroke:#fff;stroke-miterlimit:10;stroke-width:2px;}.cls-2,.cls-3{fill:#fff;}.cls-3{opacity:0.4;}</style></defs><title>overview-main</title><rect class="cls-1" x="372.67" y="796.62" width="150.89" height="110.5"/><path class="cls-2" d="M585.73,402.51H575.52V385.6h10.21v1.45h-8.61v6.08h8.18v1.43h-8.18v6.49h8.61Z"/><path class="cls-2" d="M588.46,402.51V385.6H590L600,399.72H600V385.6h1.58v16.91h-1.55l-9.95-14.13H590v14.13Z"/><path class="cls-2" d="M609.23,402.51V387.06h-5.58V385.6h12.77v1.45h-5.59v15.46Z"/><path class="cls-2" d="M618.44,402.51V385.6H620v16.91Z"/><path class="cls-2" d="M627.64,402.51V387.06h-5.58V385.6h12.77v1.45h-5.59v15.46Z"/><path class="cls-2" d="M646.91,402.51H636.85V385.6h1.59v15.46h8.47Z"/><path class="cls-2" d="M659.38,402.51H649.17V385.6h10.21v1.45h-8.61v6.08h8.18v1.43h-8.18v6.49h8.61Z"/><path class="cls-2" d="M676.9,402.51V388.64h-.07l-5.88,13.79h-1.39l-5.87-13.79h-.07v13.88h-1.5V385.6H664l6.27,14.8h.07l6.26-14.8h1.85v16.91Z"/><path class="cls-2" d="M691.77,402.51H681.57V385.6h10.21v1.45h-8.61v6.08h8.18v1.43h-8.18v6.49h8.61Z"/><path class="cls-2" d="M694.5,402.51V385.6h1.58L706,399.72h.08V385.6h1.58v16.91h-1.55l-9.95-14.13h-.08v14.13Z"/><path class="cls-2" d="M715.27,402.51V387.06h-5.58V385.6h12.77v1.45h-5.59v15.46Z"/><path class="cls-2" d="M722.8,401.52a1.11,1.11,0,1,1,1.11,1.11A1.1,1.1,0,0,1,722.8,401.52Z"/><path class="cls-2" d="M836.76,669.84c0,5.36-3,8.72-7.69,8.72s-7.68-3.36-7.68-8.72,3-8.73,7.68-8.73S836.76,664.49,836.76,669.84Zm-13.72,0c0,4.43,2.33,7.23,6,7.23s6-2.8,6-7.23-2.34-7.24-6-7.24S823,665.4,823,669.84Z"/><path class="cls-2" d="M840.84,678.29h-1.59V661.38h6c3.3,0,5.41,1.93,5.41,4.95a4.69,4.69,0,0,1-3.62,4.78l4.1,7.18h-1.87l-3.89-6.93h-4.5Zm0-8.34h4.24c2.46,0,3.89-1.31,3.89-3.57s-1.49-3.56-3.95-3.56h-4.18Z"/><path class="cls-2" d="M862.59,673.11h-7.1l-1.87,5.18h-1.7l6.33-16.91h1.59l6.32,16.91h-1.69ZM856,671.73h6.14l-3-8.37H859Z"/><path class="cls-2" d="M866.79,669.8c0-5.3,2.94-8.68,7.54-8.68a6.64,6.64,0,0,1,6.86,5.64h-1.61a5.2,5.2,0,0,0-5.25-4.15c-3.59,0-5.89,2.8-5.89,7.2s2.31,7.28,5.91,7.28c2.7,0,4.73-1.44,5.24-3.79h1.61c-.6,3.29-3.19,5.27-6.86,5.27C869.72,678.56,866.79,675.15,866.79,669.8Z"/><path class="cls-2" d="M893.61,678.29H883.54V661.38h1.59v15.46h8.47Z"/><path class="cls-2" d="M906.07,678.29H895.87V661.38h10.21v1.45h-8.61v6.08h8.18v1.43h-8.18v6.49h8.61Z"/><path class="cls-2" d="M909.1,677.3a1.11,1.11,0,1,1,1.11,1.11A1.1,1.1,0,0,1,909.1,677.3Z"/><path class="cls-2" d="M541.71,444.69c0-1.75,1.3-2.76,3.74-2.92l3.11-.21v-.87c0-1.46-.93-2.31-2.55-2.31a2.4,2.4,0,0,0-2.61,1.92h-1.24c.11-1.8,1.71-3.07,3.87-3.07,2.33,0,3.82,1.3,3.82,3.35v6.92h-1.23v-1.93h0a3.76,3.76,0,0,1-3.47,2.08C543.09,447.66,541.71,446.44,541.71,444.69Zm6.85-1v-1.11l-2.95.21c-1.69.12-2.58.77-2.58,1.9s.95,1.86,2.35,1.86A3,3,0,0,0,548.56,443.69Z"/><path class="cls-2" d="M560.16,447.51h-1.22V445.6h0a3.48,3.48,0,0,1-3.37,2A3.4,3.4,0,0,1,552,443.9v-6.54h1.3v6.32a2.47,2.47,0,0,0,2.66,2.8,2.88,2.88,0,0,0,3-3.15v-6h1.29Z"/><path class="cls-2" d="M561.88,442.43c0-3.11,1.79-5.2,4.32-5.2a3.64,3.64,0,0,1,3.48,2.21h0v-6H571v14.09h-1.23v-2.15h0a3.7,3.7,0,0,1-3.52,2.27C563.68,447.63,561.88,445.54,561.88,442.43Zm1.33,0c0,2.43,1.31,4,3.24,4s3.26-1.64,3.26-4-1.33-4-3.26-4S563.21,440,563.21,442.43Z"/><path class="cls-2" d="M573.19,434.45a.86.86,0,1,1,.86.86A.86.86,0,0,1,573.19,434.45Zm.21,2.91h1.3v10.16h-1.3Z"/><path class="cls-2" d="M578.86,434.82v2.54h2v1.07h-2v6.51c0,1.05.41,1.49,1.35,1.49l.7,0v1.09a6.41,6.41,0,0,1-1,.06c-1.7,0-2.38-.72-2.38-2.55v-6.58h-1.51v-1.07h1.51v-2.54Z"/><path class="cls-2" d="M581.84,442.43c0-3.18,1.83-5.2,4.63-5.2s4.63,2,4.63,5.2-1.83,5.2-4.63,5.2S581.84,445.61,581.84,442.43Zm7.95,0c0-2.52-1.28-4.05-3.32-4.05s-3.31,1.53-3.31,4.05,1.27,4.05,3.31,4.05S589.79,445,589.79,442.43Z"/><path class="cls-2" d="M592.82,437.36H594v1.81h0a2.57,2.57,0,0,1,2.57-1.92,3,3,0,0,1,.8.11v1.27a2.9,2.9,0,0,0-1-.14c-1.45,0-2.36,1.12-2.36,2.76v6.27h-1.29Z"/><path class="cls-2" d="M602.45,434.86h0c-.31.2-3.37,2.34-3.78,2.6V436c.39-.24,3.38-2.35,3.8-2.61h1.31v14.09h-1.29Z"/><path class="cls-2" d="M541.71,468.69c0-1.75,1.3-2.76,3.74-2.92l3.11-.21v-.87c0-1.46-.93-2.31-2.55-2.31a2.4,2.4,0,0,0-2.61,1.92h-1.24c.11-1.8,1.71-3.07,3.87-3.07,2.33,0,3.82,1.3,3.82,3.35v6.92h-1.23v-1.93h0a3.76,3.76,0,0,1-3.47,2.08C543.09,471.66,541.71,470.44,541.71,468.69Zm6.85-1v-1.11l-2.95.21c-1.69.12-2.58.77-2.58,1.9s.95,1.86,2.35,1.86A3,3,0,0,0,548.56,467.69Z"/><path class="cls-2" d="M560.16,471.51h-1.22V469.6h0a3.48,3.48,0,0,1-3.37,2A3.4,3.4,0,0,1,552,467.9v-6.54h1.3v6.32a2.47,2.47,0,0,0,2.66,2.8,2.88,2.88,0,0,0,3-3.15v-6h1.29Z"/><path class="cls-2" d="M561.88,466.43c0-3.11,1.79-5.2,4.32-5.2a3.64,3.64,0,0,1,3.48,2.21h0v-6H571v14.09h-1.23v-2.15h0a3.7,3.7,0,0,1-3.52,2.27C563.68,471.63,561.88,469.54,561.88,466.43Zm1.33,0c0,2.43,1.31,4,3.24,4s3.26-1.64,3.26-4-1.33-4-3.26-4S563.21,464,563.21,466.43Z"/><path class="cls-2" d="M573.19,458.45a.86.86,0,1,1,.86.86A.86.86,0,0,1,573.19,458.45Zm.21,2.91h1.3v10.16h-1.3Z"/><path class="cls-2" d="M578.86,458.82v2.54h2v1.07h-2v6.51c0,1.05.41,1.49,1.35,1.49l.7,0v1.09a6.41,6.41,0,0,1-1,.06c-1.7,0-2.38-.72-2.38-2.55v-6.58h-1.51v-1.07h1.51v-2.54Z"/><path class="cls-2" d="M581.84,466.43c0-3.18,1.83-5.2,4.63-5.2s4.63,2,4.63,5.2-1.83,5.2-4.63,5.2S581.84,469.61,581.84,466.43Zm7.95,0c0-2.52-1.28-4.05-3.32-4.05s-3.31,1.53-3.31,4.05,1.27,4.05,3.31,4.05S589.79,469,589.79,466.43Z"/><path class="cls-2" d="M592.82,461.36H594v1.81h0a2.57,2.57,0,0,1,2.57-1.92,3,3,0,0,1,.8.11v1.27a2.9,2.9,0,0,0-1-.14c-1.45,0-2.36,1.12-2.36,2.76v6.27h-1.29Z"/><path class="cls-2" d="M603.34,457.2a4.1,4.1,0,0,1,4.38,3.85c0,1.54-.69,2.71-3,5.14l-3.93,4.1v0h7.32v1.19H598.9v-.94l5-5.26c2-2.12,2.52-3,2.52-4.19a2.91,2.91,0,0,0-3.1-2.75,3,3,0,0,0-3.18,3h-1.29A4.25,4.25,0,0,1,603.34,457.2Z"/><path class="cls-2" d="M541.71,492.69c0-1.75,1.3-2.76,3.74-2.92l3.11-.21v-.87c0-1.46-.93-2.31-2.55-2.31a2.4,2.4,0,0,0-2.61,1.92h-1.24c.11-1.8,1.71-3.07,3.87-3.07,2.33,0,3.82,1.3,3.82,3.35v6.92h-1.23v-1.93h0a3.76,3.76,0,0,1-3.47,2.08C543.09,495.66,541.71,494.44,541.71,492.69Zm6.85-1v-1.11l-2.95.21c-1.69.12-2.58.77-2.58,1.9s.95,1.86,2.35,1.86A3,3,0,0,0,548.56,491.69Z"/><path class="cls-2" d="M560.16,495.51h-1.22V493.6h0a3.48,3.48,0,0,1-3.37,2A3.4,3.4,0,0,1,552,491.9v-6.54h1.3v6.32a2.47,2.47,0,0,0,2.66,2.8,2.88,2.88,0,0,0,3-3.15v-6h1.29Z"/><path class="cls-2" d="M561.88,490.43c0-3.11,1.79-5.2,4.32-5.2a3.64,3.64,0,0,1,3.48,2.21h0v-6H571v14.09h-1.23v-2.15h0a3.7,3.7,0,0,1-3.52,2.27C563.68,495.63,561.88,493.54,561.88,490.43Zm1.33,0c0,2.43,1.31,4,3.24,4s3.26-1.64,3.26-4-1.33-4-3.26-4S563.21,488,563.21,490.43Z"/><path class="cls-2" d="M573.19,482.45a.86.86,0,1,1,.86.86A.86.86,0,0,1,573.19,482.45Zm.21,2.91h1.3v10.16h-1.3Z"/><path class="cls-2" d="M578.86,482.82v2.54h2v1.07h-2v6.51c0,1.05.41,1.49,1.35,1.49l.7,0v1.09a6.41,6.41,0,0,1-1,.06c-1.7,0-2.38-.72-2.38-2.55v-6.58h-1.51v-1.07h1.51v-2.54Z"/><path class="cls-2" d="M581.84,490.43c0-3.18,1.83-5.2,4.63-5.2s4.63,2,4.63,5.2-1.83,5.2-4.63,5.2S581.84,493.61,581.84,490.43Zm7.95,0c0-2.52-1.28-4.05-3.32-4.05s-3.31,1.53-3.31,4.05,1.27,4.05,3.31,4.05S589.79,493,589.79,490.43Z"/><path class="cls-2" d="M592.82,485.36H594v1.81h0a2.57,2.57,0,0,1,2.57-1.92,3,3,0,0,1,.8.11v1.27a2.9,2.9,0,0,0-1-.14c-1.45,0-2.36,1.12-2.36,2.76v6.27h-1.29Z"/><path class="cls-2" d="M601.61,487.67h1.64c1.85,0,3.12-1.13,3.12-2.71s-1.15-2.6-3.06-2.6a2.91,2.91,0,0,0-3.13,2.62h-1.29c.17-2.27,1.94-3.79,4.48-3.79s4.35,1.51,4.35,3.6a3.31,3.31,0,0,1-2.94,3.36v0a3.41,3.41,0,0,1,3.54,3.46c0,2.38-2.13,4.08-4.87,4.08s-4.77-1.62-4.85-3.88h1.29c.11,1.57,1.52,2.71,3.55,2.71s3.53-1.2,3.53-2.87-1.39-2.89-3.65-2.89h-1.7Z"/><path class="cls-2" d="M542.56,518.68a.93.93,0,1,1,.93.93A.92.92,0,0,1,542.56,518.68Z"/><path class="cls-2" d="M547.53,518.68a.93.93,0,1,1,.93.93A.92.92,0,0,1,547.53,518.68Z"/><path class="cls-2" d="M552.5,518.68a.93.93,0,1,1,.93.93A.92.92,0,0,1,552.5,518.68Z"/><rect class="cls-1" x="515.65" y="371.22" width="268" height="174.29"/><line class="cls-1" x1="515.65" y1="412" x2="783.65" y2="412"/><rect class="cls-1" x="783.65" y="640" width="165.02" height="58.78"/><path class="cls-2" d="M585.73,183.51H575.52V166.6h10.21v1.45h-8.61v6.08h8.18v1.43h-8.18v6.49h8.61Z"/><path class="cls-2" d="M588.46,183.51V166.6H590L600,180.72H600V166.6h1.58v16.91h-1.55l-9.95-14.13H590v14.13Z"/><path class="cls-2" d="M609.23,183.51V168.06h-5.58V166.6h12.77v1.45h-5.59v15.46Z"/><path class="cls-2" d="M618.44,183.51V166.6H620v16.91Z"/><path class="cls-2" d="M627.64,183.51V168.06h-5.58V166.6h12.77v1.45h-5.59v15.46Z"/><path class="cls-2" d="M646.91,183.51H636.85V166.6h1.59v15.46h8.47Z"/><path class="cls-2" d="M659.38,183.51H649.17V166.6h10.21v1.45h-8.61v6.08h8.18v1.43h-8.18v6.49h8.61Z"/><path class="cls-2" d="M676.9,183.51V169.64h-.07l-5.88,13.79h-1.39l-5.87-13.79h-.07v13.88h-1.5V166.6H664l6.27,14.8h.07l6.26-14.8h1.85v16.91Z"/><path class="cls-2" d="M691.77,183.51H681.57V166.6h10.21v1.45h-8.61v6.08h8.18v1.43h-8.18v6.49h8.61Z"/><path class="cls-2" d="M694.5,183.51V166.6h1.58L706,180.72h.08V166.6h1.58v16.91h-1.55l-9.95-14.13h-.08v14.13Z"/><path class="cls-2" d="M715.27,183.51V168.06h-5.58V166.6h12.77v1.45h-5.59v15.46Z"/><path class="cls-2" d="M722.8,182.52a1.11,1.11,0,1,1,1.11,1.11A1.1,1.1,0,0,1,722.8,182.52Z"/><path class="cls-2" d="M542,215.45a.86.86,0,1,1,.86.86A.86.86,0,0,1,542,215.45Zm.21,2.91h1.3v10.16h-1.3Z"/><path class="cls-2" d="M545.81,218.36H547v1.9h0A3.67,3.67,0,0,1,554,222v6.53h-1.29v-6.32a2.5,2.5,0,0,0-2.69-2.8,2.88,2.88,0,0,0-2.93,3.16v6h-1.29Z"/><path class="cls-2" d="M560.38,228.51H559l-3.78-10.16h1.37l3.09,8.8h0l3.1-8.8h1.35Z"/><path class="cls-2" d="M573.52,225.63c-.3,1.74-2,3-4.19,3-2.82,0-4.62-2-4.62-5.17s1.8-5.22,4.54-5.22,4.39,1.93,4.39,5v.55H566v.08c0,2.27,1.32,3.67,3.32,3.67a2.75,2.75,0,0,0,2.88-1.87ZM566,222.72h6.27a3.09,3.09,0,0,0-3.09-3.35A3.21,3.21,0,0,0,566,222.72Z"/><path class="cls-2" d="M578.83,218.25c2.08,0,3.57,1.22,3.67,3h-1.23a2.22,2.22,0,0,0-2.48-1.9c-1.34,0-2.35.69-2.35,1.71,0,.82.6,1.3,1.88,1.61l1.58.38c2,.51,2.8,1.25,2.8,2.69,0,1.72-1.63,2.92-3.93,2.92s-3.76-1.25-3.9-3h1.29c.16,1.16,1.16,1.91,2.68,1.91s2.56-.68,2.56-1.75c0-.85-.52-1.32-1.87-1.66l-1.73-.43c-1.76-.44-2.63-1.28-2.63-2.63C575.17,219.42,576.72,218.25,578.83,218.25Z"/><path class="cls-2" d="M586.27,215.82v2.54h2v1.07h-2v6.51c0,1.05.41,1.49,1.35,1.49l.7,0v1.09a6.41,6.41,0,0,1-1,.06c-1.7,0-2.38-.72-2.38-2.55v-6.58h-1.51v-1.07H585v-2.54Z"/><path class="cls-2" d="M589.25,223.43c0-3.18,1.83-5.2,4.63-5.2s4.63,2,4.63,5.2-1.83,5.2-4.63,5.2S589.25,226.61,589.25,223.43Zm7.95,0c0-2.52-1.28-4.05-3.32-4.05s-3.31,1.53-3.31,4.05,1.27,4.05,3.31,4.05S597.2,226,597.2,223.43Z"/><path class="cls-2" d="M600.23,218.36h1.22v1.81h0a2.57,2.57,0,0,1,2.57-1.92,3,3,0,0,1,.8.11v1.27a2.9,2.9,0,0,0-1-.14c-1.45,0-2.36,1.12-2.36,2.76v6.27h-1.29Z"/><path class="cls-2" d="M609.86,215.86h0c-.31.2-3.37,2.34-3.78,2.6V217c.39-.24,3.38-2.35,3.8-2.61h1.31v14.09h-1.29Z"/><path class="cls-2" d="M542,239.45a.86.86,0,1,1,.86.86A.86.86,0,0,1,542,239.45Zm.21,2.91h1.3v10.16h-1.3Z"/><path class="cls-2" d="M545.81,242.36H547v1.9h0A3.67,3.67,0,0,1,554,246v6.53h-1.29v-6.32a2.5,2.5,0,0,0-2.69-2.8,2.88,2.88,0,0,0-2.93,3.16v6h-1.29Z"/><path class="cls-2" d="M560.38,252.51H559l-3.78-10.16h1.37l3.09,8.8h0l3.1-8.8h1.35Z"/><path class="cls-2" d="M573.52,249.63c-.3,1.74-2,3-4.19,3-2.82,0-4.62-2-4.62-5.17s1.8-5.22,4.54-5.22,4.39,1.93,4.39,5v.55H566v.08c0,2.27,1.32,3.67,3.32,3.67a2.75,2.75,0,0,0,2.88-1.87ZM566,246.72h6.27a3.09,3.09,0,0,0-3.09-3.35A3.21,3.21,0,0,0,566,246.72Z"/><path class="cls-2" d="M578.83,242.25c2.08,0,3.57,1.22,3.67,3h-1.23a2.22,2.22,0,0,0-2.48-1.9c-1.34,0-2.35.69-2.35,1.71,0,.82.6,1.3,1.88,1.61l1.58.38c2,.51,2.8,1.25,2.8,2.69,0,1.72-1.63,2.92-3.93,2.92s-3.76-1.25-3.9-3h1.29c.16,1.16,1.16,1.91,2.68,1.91s2.56-.68,2.56-1.75c0-.85-.52-1.32-1.87-1.66l-1.73-.43c-1.76-.44-2.63-1.28-2.63-2.63C575.17,243.42,576.72,242.25,578.83,242.25Z"/><path class="cls-2" d="M586.27,239.82v2.54h2v1.07h-2v6.51c0,1.05.41,1.49,1.35,1.49l.7,0v1.09a6.41,6.41,0,0,1-1,.06c-1.7,0-2.38-.72-2.38-2.55v-6.58h-1.51v-1.07H585v-2.54Z"/><path class="cls-2" d="M589.25,247.43c0-3.18,1.83-5.2,4.63-5.2s4.63,2,4.63,5.2-1.83,5.2-4.63,5.2S589.25,250.61,589.25,247.43Zm7.95,0c0-2.52-1.28-4.05-3.32-4.05s-3.31,1.53-3.31,4.05,1.27,4.05,3.31,4.05S597.2,250,597.2,247.43Z"/><path class="cls-2" d="M600.23,242.36h1.22v1.81h0a2.57,2.57,0,0,1,2.57-1.92,3,3,0,0,1,.8.11v1.27a2.9,2.9,0,0,0-1-.14c-1.45,0-2.36,1.12-2.36,2.76v6.27h-1.29Z"/><path class="cls-2" d="M610.76,238.2a4.1,4.1,0,0,1,4.38,3.85c0,1.54-.69,2.71-3,5.14l-3.93,4.1v0h7.32v1.19h-9.19v-.94l5-5.26c2-2.12,2.52-3,2.52-4.19a2.91,2.91,0,0,0-3.1-2.75,3,3,0,0,0-3.18,3h-1.29A4.25,4.25,0,0,1,610.76,238.2Z"/><path class="cls-2" d="M542,263.45a.86.86,0,1,1,.86.86A.86.86,0,0,1,542,263.45Zm.21,2.91h1.3v10.16h-1.3Z"/><path class="cls-2" d="M545.81,266.36H547v1.9h0A3.67,3.67,0,0,1,554,270v6.53h-1.29v-6.32a2.5,2.5,0,0,0-2.69-2.8,2.88,2.88,0,0,0-2.93,3.16v6h-1.29Z"/><path class="cls-2" d="M560.38,276.51H559l-3.78-10.16h1.37l3.09,8.8h0l3.1-8.8h1.35Z"/><path class="cls-2" d="M573.52,273.63c-.3,1.74-2,3-4.19,3-2.82,0-4.62-2-4.62-5.17s1.8-5.22,4.54-5.22,4.39,1.93,4.39,5v.55H566v.08c0,2.27,1.32,3.67,3.32,3.67a2.75,2.75,0,0,0,2.88-1.87ZM566,270.72h6.27a3.09,3.09,0,0,0-3.09-3.35A3.21,3.21,0,0,0,566,270.72Z"/><path class="cls-2" d="M578.83,266.25c2.08,0,3.57,1.22,3.67,3h-1.23a2.22,2.22,0,0,0-2.48-1.9c-1.34,0-2.35.69-2.35,1.71,0,.82.6,1.3,1.88,1.61l1.58.38c2,.51,2.8,1.25,2.8,2.69,0,1.72-1.63,2.92-3.93,2.92s-3.76-1.25-3.9-3h1.29c.16,1.16,1.16,1.91,2.68,1.91s2.56-.68,2.56-1.75c0-.85-.52-1.32-1.87-1.66l-1.73-.43c-1.76-.44-2.63-1.28-2.63-2.63C575.17,267.42,576.72,266.25,578.83,266.25Z"/><path class="cls-2" d="M586.27,263.82v2.54h2v1.07h-2v6.51c0,1.05.41,1.49,1.35,1.49l.7,0v1.09a6.41,6.41,0,0,1-1,.06c-1.7,0-2.38-.72-2.38-2.55v-6.58h-1.51v-1.07H585v-2.54Z"/><path class="cls-2" d="M589.25,271.43c0-3.18,1.83-5.2,4.63-5.2s4.63,2,4.63,5.2-1.83,5.2-4.63,5.2S589.25,274.61,589.25,271.43Zm7.95,0c0-2.52-1.28-4.05-3.32-4.05s-3.31,1.53-3.31,4.05,1.27,4.05,3.31,4.05S597.2,274,597.2,271.43Z"/><path class="cls-2" d="M600.23,266.36h1.22v1.81h0a2.57,2.57,0,0,1,2.57-1.92,3,3,0,0,1,.8.11v1.27a2.9,2.9,0,0,0-1-.14c-1.45,0-2.36,1.12-2.36,2.76v6.27h-1.29Z"/><path class="cls-2" d="M609,268.67h1.64c1.85,0,3.12-1.13,3.12-2.71s-1.15-2.6-3.06-2.6a2.91,2.91,0,0,0-3.13,2.62h-1.29c.17-2.27,1.94-3.79,4.48-3.79s4.35,1.51,4.35,3.6a3.31,3.31,0,0,1-2.94,3.36v0a3.41,3.41,0,0,1,3.54,3.46c0,2.38-2.13,4.08-4.87,4.08s-4.77-1.62-4.85-3.88h1.29c.11,1.57,1.52,2.71,3.55,2.71s3.53-1.2,3.53-2.87-1.39-2.89-3.65-2.89H609Z"/><path class="cls-2" d="M542.56,299.68a.93.93,0,1,1,.93.93A.92.92,0,0,1,542.56,299.68Z"/><path class="cls-2" d="M547.53,299.68a.93.93,0,1,1,.93.93A.92.92,0,0,1,547.53,299.68Z"/><path class="cls-2" d="M552.5,299.68a.93.93,0,1,1,.93.93A.92.92,0,0,1,552.5,299.68Z"/><rect class="cls-1" x="515.65" y="152.22" width="268" height="174.28"/><line class="cls-1" x1="515.65" y1="193" x2="783.65" y2="193"/><path class="cls-2" d="M101.44,183.51V168.06H95.86V166.6h12.77v1.45H103v15.46Z"/><path class="cls-2" d="M112.24,183.51h-1.59V166.6h6c3.3,0,5.41,1.93,5.41,4.95a4.69,4.69,0,0,1-3.62,4.78l4.1,7.18h-1.87l-3.89-6.93h-4.5Zm0-8.34h4.24c2.46,0,3.89-1.31,3.89-3.57s-1.49-3.56-3.95-3.56h-4.18Z"/><path class="cls-2" d="M144.33,183.51H134.12V166.6h10.21v1.45h-8.61v6.08h8.18v1.43h-8.18v6.49h8.61Z"/><path class="cls-2" d="M147.06,183.51V166.6h1.58l9.91,14.12h.08V166.6h1.58v16.91h-1.55l-9.95-14.13h-.08v14.13Z"/><path class="cls-2" d="M167.83,183.51V168.06h-5.58V166.6H175v1.45h-5.59v15.46Z"/><path class="cls-2" d="M177,183.51V166.6h1.59v16.91Z"/><path class="cls-2" d="M186.24,183.51V168.06h-5.58V166.6h12.77v1.45h-5.59v15.46Z"/><path class="cls-2" d="M205.51,183.51H195.45V166.6H197v15.46h8.47Z"/><path class="cls-2" d="M218,183.51H207.77V166.6H218v1.45h-8.61v6.08h8.18v1.43h-8.18v6.49H218Z"/><path class="cls-2" d="M235.5,183.51V169.64h-.07l-5.88,13.79h-1.39l-5.87-13.79h-.07v13.88h-1.5V166.6h1.84l6.27,14.8h.07l6.26-14.8H237v16.91Z"/><path class="cls-2" d="M250.37,183.51H240.17V166.6h10.21v1.45h-8.61v6.08h8.18v1.43h-8.18v6.49h8.61Z"/><path class="cls-2" d="M253.1,183.51V166.6h1.58l9.91,14.12h.08V166.6h1.58v16.91h-1.55l-9.95-14.13h-.08v14.13Z"/><path class="cls-2" d="M273.87,183.51V168.06h-5.58V166.6h12.77v1.45h-5.59v15.46Z"/><path class="cls-2" d="M294.17,183.51h-1.59V166.6h6c3.3,0,5.41,1.93,5.41,4.95a4.69,4.69,0,0,1-3.62,4.78l4.1,7.18h-1.87l-3.89-6.93h-4.5Zm0-8.34h4.24c2.46,0,3.89-1.31,3.89-3.57s-1.49-3.56-3.95-3.56h-4.18Z"/><path class="cls-2" d="M316.76,183.51H306.55V166.6h10.21v1.45h-8.61v6.08h8.18v1.43h-8.18v6.49h8.61Z"/><path class="cls-2" d="M326.4,183.78c-4.58,0-7.59-3.49-7.59-8.82s3-8.62,7.59-8.62a6.68,6.68,0,0,1,6.91,5.36h-1.66a5.2,5.2,0,0,0-5.25-3.87c-3.67,0-6,2.73-6,7.14s2.33,7.34,6,7.34c3.27,0,5.43-2.09,5.43-5.27v-.6h-5.25V175h6.84v1.63C333.42,181.11,330.8,183.78,326.4,183.78Z"/><path class="cls-2" d="M335.93,182.52a1.11,1.11,0,1,1,1.11,1.11A1.1,1.1,0,0,1,335.93,182.52Z"/><path class="cls-2" d="M116.33,221.35a2.77,2.77,0,0,0-2.91-2.19c-2,0-3.27,1.59-3.27,4.05s1.31,4.05,3.28,4.05a2.71,2.71,0,0,0,2.9-2.12h1.28a3.94,3.94,0,0,1-4.18,3.26c-2.77,0-4.6-2-4.6-5.2s1.83-5.2,4.58-5.2a4,4,0,0,1,4.19,3.33Z"/><path class="cls-2" d="M118.71,223.21c0-3.18,1.83-5.2,4.63-5.2s4.63,2,4.63,5.2-1.83,5.2-4.63,5.2S118.71,226.39,118.71,223.21Zm7.95,0c0-2.52-1.28-4.05-3.32-4.05s-3.31,1.53-3.31,4.05,1.27,4.05,3.31,4.05S126.66,225.73,126.66,223.21Z"/><path class="cls-2" d="M129.69,218.14h1.22V220h0a3,3,0,0,1,3-2,2.93,2.93,0,0,1,2.94,2.15h0a3.34,3.34,0,0,1,3.2-2.15,3.13,3.13,0,0,1,3.28,3.38v6.89h-1.29V221.7a2.25,2.25,0,0,0-2.35-2.53,2.55,2.55,0,0,0-2.54,2.78v6.34h-1.3v-6.71a2.24,2.24,0,0,0-2.32-2.41,2.66,2.66,0,0,0-2.57,2.94v6.18h-1.29Z"/><path class="cls-2" d="M145.78,227.46a.93.93,0,1,1,.93.93A.92.92,0,0,1,145.78,227.46Z"/><path class="cls-2" d="M151.66,226.14h0v2.15h-1.24V214.2h1.3v6h0A3.64,3.64,0,0,1,155.2,218c2.55,0,4.29,2.09,4.29,5.2s-1.74,5.2-4.3,5.2A3.68,3.68,0,0,1,151.66,226.14Zm0-2.93c0,2.39,1.33,4,3.26,4s3.21-1.61,3.21-4-1.28-4-3.21-4S151.68,220.83,151.68,223.21Z"/><path class="cls-2" d="M161.12,224.94h1.36a3.17,3.17,0,0,0,3.2,2.4c2.53,0,4-2.34,4-6.29,0-.09,0-.21,0-.32h0a4.3,4.3,0,0,1-4.15,2.7,4.54,4.54,0,0,1-4.68-4.63,4.71,4.71,0,0,1,4.89-4.82,4.66,4.66,0,0,1,4.31,2.67,8.55,8.55,0,0,1,.95,4.31c0,4.72-2,7.57-5.34,7.57A4.38,4.38,0,0,1,161.12,224.94Zm8.23-6.11a3.57,3.57,0,0,0-3.58-3.65,3.52,3.52,0,0,0-3.55,3.58,3.42,3.42,0,0,0,3.54,3.49A3.48,3.48,0,0,0,169.35,218.83Z"/><path class="cls-2" d="M173.1,214.2h1.3v14.09h-1.3Z"/><path class="cls-2" d="M176.31,225.47c0-1.75,1.3-2.76,3.74-2.92l3.11-.21v-.87c0-1.46-.93-2.31-2.55-2.31a2.4,2.4,0,0,0-2.61,1.92h-1.24c.11-1.8,1.71-3.07,3.87-3.07,2.33,0,3.82,1.3,3.82,3.35v6.92h-1.23v-1.93h0a3.76,3.76,0,0,1-3.47,2.08C177.69,228.44,176.31,227.22,176.31,225.47Zm6.85-1v-1.11l-2.95.21c-1.69.12-2.58.77-2.58,1.9s.95,1.86,2.35,1.86A3,3,0,0,0,183.16,224.47Z"/><path class="cls-2" d="M188,226.14h0v2.15H186.7V214.2H188v6h0a3.64,3.64,0,0,1,3.48-2.21c2.55,0,4.29,2.09,4.29,5.2s-1.74,5.2-4.3,5.2A3.68,3.68,0,0,1,188,226.14Zm0-2.93c0,2.39,1.33,4,3.26,4s3.21-1.61,3.21-4-1.28-4-3.21-4S188,220.83,188,223.21Z"/><path class="cls-2" d="M197.26,227.46a.93.93,0,1,1,.93.93A.92.92,0,0,1,197.26,227.46Z"/><path class="cls-2" d="M200.63,223.21c0-3.11,1.79-5.2,4.32-5.2a3.64,3.64,0,0,1,3.48,2.21h0v-6h1.3v14.09h-1.23v-2.15h0a3.7,3.7,0,0,1-3.52,2.27C202.42,228.41,200.63,226.32,200.63,223.21Zm1.33,0c0,2.43,1.31,4,3.24,4s3.26-1.64,3.26-4-1.33-4-3.26-4S202,220.79,202,223.21Z"/><path class="cls-2" d="M212.06,218.14h1.22v1.81h0a2.57,2.57,0,0,1,2.57-1.92,3,3,0,0,1,.8.11v1.27a2.9,2.9,0,0,0-1-.14c-1.45,0-2.36,1.12-2.36,2.76v6.27h-1.29Z"/><path class="cls-2" d="M217.36,225.47c0-1.75,1.3-2.76,3.74-2.92l3.11-.21v-.87c0-1.46-.93-2.31-2.55-2.31a2.4,2.4,0,0,0-2.61,1.92h-1.24c.11-1.8,1.71-3.07,3.87-3.07,2.33,0,3.82,1.3,3.82,3.35v6.92h-1.23v-1.93h0a3.76,3.76,0,0,1-3.47,2.08C218.73,228.44,217.36,227.22,217.36,225.47Zm6.85-1v-1.11l-2.95.21c-1.69.12-2.58.77-2.58,1.9s.95,1.86,2.35,1.86A3,3,0,0,0,224.2,224.47Z"/><path class="cls-2" d="M229.5,215.6v2.54h2v1.07h-2v6.51c0,1.05.41,1.49,1.35,1.49l.7,0v1.09a6.41,6.41,0,0,1-1,.06c-1.7,0-2.38-.72-2.38-2.55v-6.58H226.7v-1.07h1.51V215.6Z"/><path class="cls-2" d="M233.22,215.23a.86.86,0,1,1,.86.86A.86.86,0,0,1,233.22,215.23Zm.21,2.91h1.3v10.16h-1.3Z"/><path class="cls-2" d="M237,218.14h1.22V220h0a3.67,3.67,0,0,1,6.94,1.72v6.53h-1.29V222a2.5,2.5,0,0,0-2.69-2.8,2.88,2.88,0,0,0-2.93,3.16v6H237Z"/><path class="cls-2" d="M247.39,229.23h1.34a2.86,2.86,0,0,0,2.89,1.71c1.9,0,3.09-1.1,3.09-2.76v-2h0a3.67,3.67,0,0,1-3.48,2.21c-2.56,0-4.29-2.07-4.29-5.16s1.74-5.17,4.32-5.17a3.76,3.76,0,0,1,3.52,2.22h0v-2.1H256v10c0,2.36-1.73,3.93-4.44,3.93C249.34,232.05,247.67,230.83,247.39,229.23Zm7.31-6c0-2.37-1.32-4-3.27-4s-3.19,1.61-3.19,4,1.28,4,3.19,4S254.7,225.57,254.7,223.18Z"/><path class="cls-2" d="M258.67,227.46a.93.93,0,1,1,.93.93A.92.92,0,0,1,258.67,227.46Z"/><path class="cls-2" d="M263.07,215.23a.86.86,0,1,1,.86.86A.86.86,0,0,1,263.07,215.23Zm.21,2.91h1.3v10.16h-1.3Z"/><path class="cls-2" d="M266.9,218.14h1.22V220h0a3.67,3.67,0,0,1,6.94,1.72v6.53H273.8V222a2.5,2.5,0,0,0-2.69-2.8,2.88,2.88,0,0,0-2.93,3.16v6H266.9Z"/><path class="cls-2" d="M281.47,228.29h-1.38l-3.78-10.16h1.37l3.09,8.8h0l3.1-8.8h1.35Z"/><path class="cls-2" d="M294.6,225.41c-.3,1.74-2,3-4.19,3-2.82,0-4.62-2-4.62-5.17s1.8-5.22,4.54-5.22,4.39,1.93,4.39,5v.55h-7.61v.08c0,2.27,1.32,3.67,3.32,3.67a2.75,2.75,0,0,0,2.88-1.87Zm-7.47-2.91h6.27a3.09,3.09,0,0,0-3.09-3.35A3.21,3.21,0,0,0,287.13,222.5Z"/><path class="cls-2" d="M299.91,218c2.08,0,3.57,1.22,3.67,3h-1.23a2.22,2.22,0,0,0-2.48-1.9c-1.34,0-2.35.69-2.35,1.71,0,.82.6,1.3,1.88,1.61l1.58.38c2,.51,2.8,1.25,2.8,2.69,0,1.72-1.63,2.92-3.93,2.92s-3.76-1.25-3.9-3h1.29c.16,1.16,1.16,1.91,2.68,1.91s2.56-.68,2.56-1.75c0-.85-.52-1.32-1.87-1.66l-1.73-.43c-1.76-.44-2.63-1.28-2.63-2.63C296.25,219.2,297.81,218,299.91,218Z"/><path class="cls-2" d="M307.36,215.6v2.54h2v1.07h-2v6.51c0,1.05.41,1.49,1.35,1.49l.7,0v1.09a6.41,6.41,0,0,1-1,.06c-1.7,0-2.38-.72-2.38-2.55v-6.58h-1.51v-1.07h1.51V215.6Z"/><path class="cls-2" d="M310.33,223.21c0-3.18,1.83-5.2,4.63-5.2s4.63,2,4.63,5.2-1.83,5.2-4.63,5.2S310.33,226.39,310.33,223.21Zm7.95,0c0-2.52-1.28-4.05-3.32-4.05s-3.31,1.53-3.31,4.05,1.27,4.05,3.31,4.05S318.28,225.73,318.28,223.21Z"/><path class="cls-2" d="M321.31,218.14h1.22v1.81h0a2.57,2.57,0,0,1,2.57-1.92,3,3,0,0,1,.8.11v1.27a2.9,2.9,0,0,0-1-.14c-1.45,0-2.36,1.12-2.36,2.76v6.27h-1.29Z"/><path class="cls-2" d="M124,389.35a2.77,2.77,0,0,0-2.91-2.19c-2,0-3.27,1.59-3.27,4.05s1.31,4.05,3.28,4.05a2.71,2.71,0,0,0,2.9-2.12h1.28a3.94,3.94,0,0,1-4.18,3.26c-2.77,0-4.6-2-4.6-5.2s1.83-5.2,4.58-5.2a4,4,0,0,1,4.19,3.33Z"/><path class="cls-2" d="M126.34,391.21c0-3.18,1.83-5.2,4.63-5.2s4.63,2,4.63,5.2-1.83,5.2-4.63,5.2S126.34,394.39,126.34,391.21Zm7.95,0c0-2.52-1.28-4.05-3.32-4.05s-3.31,1.53-3.31,4.05,1.27,4.05,3.31,4.05S134.29,393.73,134.29,391.21Z"/><path class="cls-2" d="M137.32,386.14h1.22V388h0a3,3,0,0,1,3-2,2.93,2.93,0,0,1,2.94,2.15h0a3.34,3.34,0,0,1,3.2-2.15A3.13,3.13,0,0,1,151,389.4v6.89h-1.29V389.7a2.25,2.25,0,0,0-2.35-2.53A2.55,2.55,0,0,0,144.8,390v6.34h-1.3v-6.71a2.24,2.24,0,0,0-2.32-2.41,2.66,2.66,0,0,0-2.57,2.94v6.18h-1.29Z"/><path class="cls-2" d="M153.41,395.46a.93.93,0,1,1,.93.93A.92.92,0,0,1,153.41,395.46Z"/><path class="cls-2" d="M159.29,394.14h0v2.15H158V382.2h1.3v6h0a3.64,3.64,0,0,1,3.48-2.21c2.55,0,4.29,2.09,4.29,5.2s-1.74,5.2-4.3,5.2A3.68,3.68,0,0,1,159.29,394.14Zm0-2.93c0,2.39,1.33,4,3.26,4s3.21-1.61,3.21-4-1.28-4-3.21-4S159.31,388.83,159.31,391.21Z"/><path class="cls-2" d="M168.74,392.94h1.36a3.17,3.17,0,0,0,3.2,2.4c2.53,0,4-2.34,4-6.29,0-.09,0-.21,0-.32h0a4.3,4.3,0,0,1-4.15,2.7,4.54,4.54,0,0,1-4.68-4.63,4.71,4.71,0,0,1,4.89-4.82,4.66,4.66,0,0,1,4.31,2.67,8.55,8.55,0,0,1,.95,4.31c0,4.72-2,7.57-5.34,7.57A4.38,4.38,0,0,1,168.74,392.94Zm8.23-6.11a3.57,3.57,0,0,0-3.58-3.65,3.52,3.52,0,0,0-3.55,3.58,3.42,3.42,0,0,0,3.54,3.49A3.48,3.48,0,0,0,177,386.83Z"/><path class="cls-2" d="M180.73,382.2H182v14.09h-1.3Z"/><path class="cls-2" d="M183.94,393.47c0-1.75,1.3-2.76,3.74-2.92l3.11-.21v-.87c0-1.46-.93-2.31-2.55-2.31a2.4,2.4,0,0,0-2.61,1.92h-1.24c.11-1.8,1.71-3.07,3.87-3.07,2.33,0,3.82,1.3,3.82,3.35v6.92h-1.23v-1.93h0a3.76,3.76,0,0,1-3.47,2.08C185.32,396.44,183.94,395.22,183.94,393.47Zm6.85-1v-1.11l-2.95.21c-1.69.12-2.58.77-2.58,1.9s.95,1.86,2.35,1.86A3,3,0,0,0,190.78,392.47Z"/><path class="cls-2" d="M195.6,394.14h0v2.15h-1.24V382.2h1.3v6h0a3.64,3.64,0,0,1,3.48-2.21c2.55,0,4.29,2.09,4.29,5.2s-1.74,5.2-4.3,5.2A3.68,3.68,0,0,1,195.6,394.14Zm0-2.93c0,2.39,1.33,4,3.26,4s3.21-1.61,3.21-4-1.28-4-3.21-4S195.62,388.83,195.62,391.21Z"/><path class="cls-2" d="M204.89,395.46a.93.93,0,1,1,.93.93A.92.92,0,0,1,204.89,395.46Z"/><path class="cls-2" d="M208.25,391.21c0-3.11,1.79-5.2,4.32-5.2a3.64,3.64,0,0,1,3.48,2.21h0v-6h1.3v14.09h-1.23v-2.15h0a3.7,3.7,0,0,1-3.52,2.27C210.05,396.41,208.25,394.32,208.25,391.21Zm1.33,0c0,2.43,1.31,4,3.24,4s3.26-1.64,3.26-4-1.33-4-3.26-4S209.58,388.79,209.58,391.21Z"/><path class="cls-2" d="M219.69,386.14h1.22v1.81h0a2.57,2.57,0,0,1,2.57-1.92,3,3,0,0,1,.8.11v1.27a2.9,2.9,0,0,0-1-.14c-1.45,0-2.36,1.12-2.36,2.76v6.27h-1.29Z"/><path class="cls-2" d="M225,393.47c0-1.75,1.3-2.76,3.74-2.92l3.11-.21v-.87c0-1.46-.93-2.31-2.55-2.31a2.4,2.4,0,0,0-2.61,1.92h-1.24c.11-1.8,1.71-3.07,3.87-3.07,2.33,0,3.82,1.3,3.82,3.35v6.92h-1.23v-1.93h0a3.76,3.76,0,0,1-3.47,2.08C226.36,396.44,225,395.22,225,393.47Zm6.85-1v-1.11l-2.95.21c-1.69.12-2.58.77-2.58,1.9s.95,1.86,2.35,1.86A3,3,0,0,0,231.83,392.47Z"/><path class="cls-2" d="M237.13,383.6v2.54h2v1.07h-2v6.51c0,1.05.41,1.49,1.35,1.49l.7,0v1.09a6.41,6.41,0,0,1-1,.06c-1.7,0-2.38-.72-2.38-2.55v-6.58h-1.51v-1.07h1.51V383.6Z"/><path class="cls-2" d="M240.84,383.23a.86.86,0,1,1,.86.86A.86.86,0,0,1,240.84,383.23Zm.21,2.91h1.3v10.16h-1.3Z"/><path class="cls-2" d="M244.67,386.14h1.22V388h0a3.67,3.67,0,0,1,6.94,1.72v6.53h-1.29V390a2.5,2.5,0,0,0-2.69-2.8,2.88,2.88,0,0,0-2.93,3.16v6h-1.29Z"/><path class="cls-2" d="M255,397.23h1.34a2.86,2.86,0,0,0,2.89,1.71c1.9,0,3.09-1.1,3.09-2.76v-2h0a3.67,3.67,0,0,1-3.48,2.21c-2.56,0-4.29-2.07-4.29-5.16s1.74-5.17,4.32-5.17a3.76,3.76,0,0,1,3.52,2.22h0v-2.1h1.23v10c0,2.36-1.73,3.93-4.44,3.93C257,400.05,255.3,398.83,255,397.23Zm7.31-6c0-2.37-1.32-4-3.27-4s-3.19,1.61-3.19,4,1.28,4,3.19,4S262.33,393.57,262.33,391.18Z"/><path class="cls-2" d="M266.3,395.46a.93.93,0,1,1,.93.93A.92.92,0,0,1,266.3,395.46Z"/><path class="cls-2" d="M270.21,393.47c0-1.75,1.3-2.76,3.74-2.92l3.11-.21v-.87c0-1.46-.93-2.31-2.55-2.31a2.4,2.4,0,0,0-2.61,1.92h-1.24c.11-1.8,1.71-3.07,3.87-3.07,2.33,0,3.82,1.3,3.82,3.35v6.92h-1.23v-1.93h0a3.76,3.76,0,0,1-3.47,2.08C271.58,396.44,270.21,395.22,270.21,393.47Zm6.85-1v-1.11l-2.95.21c-1.69.12-2.58.77-2.58,1.9s.95,1.86,2.35,1.86A3,3,0,0,0,277.05,392.47Z"/><path class="cls-2" d="M288.66,396.29h-1.22v-1.91h0a3.48,3.48,0,0,1-3.37,2,3.4,3.4,0,0,1-3.58-3.73v-6.54h1.3v6.32a2.47,2.47,0,0,0,2.66,2.8,2.88,2.88,0,0,0,3-3.15v-6h1.29Z"/><path class="cls-2" d="M290.37,391.21c0-3.11,1.79-5.2,4.32-5.2a3.64,3.64,0,0,1,3.48,2.21h0v-6h1.3v14.09h-1.23v-2.15h0a3.7,3.7,0,0,1-3.52,2.27C292.17,396.41,290.37,394.32,290.37,391.21Zm1.33,0c0,2.43,1.31,4,3.24,4s3.26-1.64,3.26-4-1.33-4-3.26-4S291.7,388.79,291.7,391.21Z"/><path class="cls-2" d="M301.68,383.23a.86.86,0,1,1,.86.86A.86.86,0,0,1,301.68,383.23Zm.21,2.91h1.3v10.16h-1.3Z"/><path class="cls-2" d="M307.36,383.6v2.54h2v1.07h-2v6.51c0,1.05.41,1.49,1.35,1.49l.7,0v1.09a6.41,6.41,0,0,1-1,.06c-1.7,0-2.38-.72-2.38-2.55v-6.58h-1.51v-1.07h1.51V383.6Z"/><path class="cls-2" d="M310.33,391.21c0-3.18,1.83-5.2,4.63-5.2s4.63,2,4.63,5.2-1.83,5.2-4.63,5.2S310.33,394.39,310.33,391.21Zm7.95,0c0-2.52-1.28-4.05-3.32-4.05s-3.31,1.53-3.31,4.05,1.27,4.05,3.31,4.05S318.28,393.73,318.28,391.21Z"/><path class="cls-2" d="M321.31,386.14h1.22v1.81h0a2.57,2.57,0,0,1,2.57-1.92,3,3,0,0,1,.8.11v1.27a2.9,2.9,0,0,0-1-.14c-1.45,0-2.36,1.12-2.36,2.76v6.27h-1.29Z"/><path class="cls-2" d="M229.62,513.06a2.77,2.77,0,0,0-2.91-2.19c-2,0-3.27,1.59-3.27,4.05s1.31,4.05,3.28,4.05a2.71,2.71,0,0,0,2.9-2.12h1.28a3.94,3.94,0,0,1-4.18,3.26c-2.77,0-4.6-2-4.6-5.2s1.83-5.2,4.58-5.2a4,4,0,0,1,4.19,3.33Z"/><path class="cls-2" d="M232,514.92c0-3.18,1.83-5.2,4.63-5.2s4.63,2,4.63,5.2-1.83,5.2-4.63,5.2S232,518.1,232,514.92Zm7.95,0c0-2.52-1.28-4.05-3.32-4.05s-3.31,1.53-3.31,4.05,1.27,4.05,3.31,4.05S240,517.44,240,514.92Z"/><path class="cls-2" d="M243,509.84h1.22v1.9h0a3,3,0,0,1,3-2,2.93,2.93,0,0,1,2.94,2.15h0a3.34,3.34,0,0,1,3.2-2.15,3.13,3.13,0,0,1,3.28,3.38V520h-1.29v-6.59a2.25,2.25,0,0,0-2.35-2.53,2.55,2.55,0,0,0-2.54,2.78V520h-1.3v-6.71a2.24,2.24,0,0,0-2.32-2.41,2.66,2.66,0,0,0-2.57,2.94V520H243Z"/><path class="cls-2" d="M259.07,519.17a.93.93,0,1,1,.93.93A.92.92,0,0,1,259.07,519.17Z"/><path class="cls-2" d="M264.56,507.3v2.54h2v1.07h-2v6.51c0,1.05.41,1.49,1.35,1.49l.7,0V520a6.41,6.41,0,0,1-1,.06c-1.7,0-2.38-.72-2.38-2.55v-6.58h-1.51v-1.07h1.51V507.3Z"/><path class="cls-2" d="M268.4,509.84h1.22v1.81h0a2.57,2.57,0,0,1,2.57-1.92,3,3,0,0,1,.8.11v1.27a2.9,2.9,0,0,0-1-.14c-1.45,0-2.36,1.12-2.36,2.76V520H268.4Z"/><path class="cls-2" d="M273.64,519.17a.93.93,0,1,1,.93.93A.92.92,0,0,1,273.64,519.17Z"/><path class="cls-2" d="M277,514.92c0-3.18,1.83-5.2,4.63-5.2s4.63,2,4.63,5.2-1.83,5.2-4.63,5.2S277,518.1,277,514.92Zm7.95,0c0-2.52-1.28-4.05-3.32-4.05s-3.31,1.53-3.31,4.05,1.27,4.05,3.31,4.05S285,517.44,285,514.92Z"/><path class="cls-2" d="M288,509.84h1.22v1.81h0a2.57,2.57,0,0,1,2.57-1.92,3,3,0,0,1,.8.11v1.27a2.9,2.9,0,0,0-1-.14c-1.45,0-2.36,1.12-2.36,2.76V520H288Z"/><path class="cls-2" d="M293.27,517.18c0-1.75,1.3-2.76,3.74-2.92l3.11-.21v-.87c0-1.46-.93-2.31-2.55-2.31a2.4,2.4,0,0,0-2.61,1.92h-1.24c.11-1.8,1.71-3.07,3.87-3.07,2.33,0,3.82,1.3,3.82,3.35V520h-1.23v-1.93h0a3.76,3.76,0,0,1-3.47,2.08C294.65,520.15,293.27,518.93,293.27,517.18Zm6.85-1v-1.11l-2.95.21c-1.69.12-2.58.77-2.58,1.9s.95,1.86,2.35,1.86A3,3,0,0,0,300.12,516.18Z"/><path class="cls-2" d="M310.57,513.06a2.77,2.77,0,0,0-2.91-2.19c-2,0-3.27,1.59-3.27,4.05s1.31,4.05,3.28,4.05a2.71,2.71,0,0,0,2.9-2.12h1.28a3.94,3.94,0,0,1-4.18,3.26c-2.77,0-4.6-2-4.6-5.2s1.83-5.2,4.58-5.2a4,4,0,0,1,4.19,3.33Z"/><path class="cls-2" d="M313.55,505.91h1.3V520h-1.3Z"/><path class="cls-2" d="M325.46,517.12c-.3,1.74-2,3-4.19,3-2.82,0-4.62-2-4.62-5.17s1.8-5.22,4.54-5.22,4.39,1.93,4.39,5v.55H318v.08c0,2.27,1.32,3.67,3.32,3.67a2.75,2.75,0,0,0,2.88-1.87ZM318,514.21h6.27a3.09,3.09,0,0,0-3.09-3.35A3.21,3.21,0,0,0,318,514.21Z"/><rect class="cls-1" x="82.95" y="151.82" width="268" height="393.69"/><line class="cls-1" x1="82.95" y1="193" x2="350.95" y2="193"/><path class="cls-2" d="M1042.75,463.75c.18,2,2.09,3.41,4.73,3.41s4.35-1.38,4.35-3.28c0-1.58-1.09-2.52-3.6-3.15l-2.1-.54c-3.13-.8-4.52-2.12-4.52-4.35,0-2.73,2.46-4.68,5.79-4.68s5.71,1.95,5.8,4.63h-1.61c-.15-1.91-1.84-3.18-4.24-3.18s-4.08,1.3-4.08,3.16c0,1.45,1.05,2.31,3.54,2.94l1.83.47c3.4.86,4.83,2.16,4.83,4.51,0,3-2.39,4.91-6.13,4.91-3.54,0-6-2-6.2-4.86Z"/><path class="cls-2" d="M1057.41,462.35c0,2.84,1.85,4.78,4.95,4.78s4.95-1.95,4.95-4.78V451.44h1.61v11c0,3.64-2.48,6.18-6.55,6.18s-6.54-2.53-6.54-6.18v-11h1.59Z"/><path class="cls-2" d="M1072.06,468.35V451.44h6.08c2.91,0,4.88,1.68,4.88,4.17a3.82,3.82,0,0,1-3.09,3.81v.08a4.16,4.16,0,0,1,4,4.21c0,2.88-2.14,4.64-5.72,4.64Zm1.59-9.4h3.68c2.57,0,4.07-1.17,4.07-3.16,0-1.84-1.35-2.93-3.6-2.93h-4.15Zm4.3,8c2.77,0,4.3-1.21,4.3-3.3s-1.59-3.29-4.51-3.29h-4.09v6.6Z"/><path class="cls-2" d="M1101,468.35V454.47h-.07L1095,468.26h-1.39l-5.87-13.79h-.07v13.88h-1.5V451.44H1088l6.27,14.8h.07l6.26-14.8h1.85v16.91Z"/><path class="cls-2" d="M1105.63,468.35V451.44h1.59v16.91Z"/><path class="cls-2" d="M1114.83,468.35V452.89h-5.58v-1.45H1122v1.45h-5.59v15.46Z"/><path class="cls-2" d="M1122.37,467.35a1.11,1.11,0,1,1,1.11,1.11A1.1,1.1,0,0,1,1122.37,467.35Z"/><path class="cls-2" d="M1011.89,275.83c0-5.3,2.94-8.68,7.54-8.68a6.64,6.64,0,0,1,6.86,5.64h-1.61a5.2,5.2,0,0,0-5.25-4.15c-3.59,0-5.89,2.8-5.89,7.2s2.31,7.28,5.91,7.28c2.7,0,4.73-1.44,5.24-3.79h1.61c-.6,3.29-3.19,5.27-6.86,5.27C1014.82,284.59,1011.89,281.18,1011.89,275.83Z"/><path class="cls-2" d="M1043.32,275.87c0,5.36-3,8.72-7.69,8.72s-7.68-3.36-7.68-8.72,3-8.73,7.68-8.73S1043.32,270.52,1043.32,275.87Zm-13.72,0c0,4.43,2.33,7.23,6,7.23s6-2.8,6-7.23-2.34-7.24-6-7.24S1029.59,271.43,1029.59,275.87Z"/><path class="cls-2" d="M1045.8,284.32V267.41h1.58l9.91,14.12h.08V267.41H1059v16.91h-1.55l-9.95-14.13h-.08v14.13Z"/><path class="cls-2" d="M1066.57,284.32V268.87H1061v-1.45h12.77v1.45h-5.59v15.46Z"/><path class="cls-2" d="M1077.37,284.32h-1.59V267.41h6c3.3,0,5.41,1.93,5.41,4.95a4.69,4.69,0,0,1-3.62,4.78l4.1,7.18h-1.87l-3.89-6.93h-4.5Zm0-8.34h4.24c2.46,0,3.89-1.31,3.89-3.57s-1.49-3.56-3.95-3.56h-4.18Z"/><path class="cls-2" d="M1089.76,284.32V267.41h1.59v16.91Z"/><path class="cls-2" d="M1094.51,284.32V267.41h6.08c2.91,0,4.88,1.68,4.88,4.17a3.82,3.82,0,0,1-3.09,3.81v.08a4.16,4.16,0,0,1,4,4.21c0,2.88-2.14,4.64-5.72,4.64Zm1.59-9.4h3.68c2.57,0,4.07-1.17,4.07-3.16,0-1.84-1.35-2.93-3.6-2.93h-4.15Zm4.3,8c2.77,0,4.3-1.21,4.3-3.3s-1.59-3.29-4.51-3.29h-4.09v6.6Z"/><path class="cls-2" d="M1110.23,278.32c0,2.84,1.85,4.78,4.95,4.78s4.95-1.95,4.95-4.78V267.41h1.61v11c0,3.64-2.48,6.18-6.55,6.18s-6.54-2.53-6.54-6.18v-11h1.59Z"/><path class="cls-2" d="M1129.32,284.32V268.87h-5.58v-1.45h12.77v1.45h-5.59v15.46Z"/><path class="cls-2" d="M1148.74,284.32h-10.21V267.41h10.21v1.45h-8.61v6.08h8.18v1.43h-8.18v6.49h8.61Z"/><path class="cls-2" d="M1151.76,283.33a1.11,1.11,0,1,1,1.11,1.11A1.1,1.1,0,0,1,1151.76,283.33Z"/><path class="cls-2" d="M975.11,142.36h1.22v1.81h0a2.57,2.57,0,0,1,2.57-1.92,3,3,0,0,1,.8.11v1.27a2.9,2.9,0,0,0-1-.14c-1.45,0-2.36,1.12-2.36,2.76v6.27h-1.29Z"/><path class="cls-2" d="M988.84,149.63c-.3,1.74-2,3-4.19,3-2.82,0-4.62-2-4.62-5.17s1.8-5.22,4.54-5.22,4.39,1.93,4.39,5v.55h-7.61v.08c0,2.27,1.32,3.67,3.32,3.67a2.75,2.75,0,0,0,2.88-1.87Zm-7.47-2.91h6.27a3.09,3.09,0,0,0-3.09-3.35A3.21,3.21,0,0,0,981.37,146.72Z"/><path class="cls-2" d="M998.05,144.46h0v-2.1h1.23v13.52H998v-5.45h0a3.68,3.68,0,0,1-3.49,2.21c-2.55,0-4.31-2.09-4.31-5.2s1.76-5.2,4.33-5.2A3.7,3.7,0,0,1,998.05,144.46Zm0,3c0-2.39-1.34-4-3.28-4s-3.21,1.62-3.21,4,1.29,4,3.21,4S998,149.83,998,147.43Z"/><path class="cls-2" d="M1009.68,152.51h-1.22V150.6h0a3.48,3.48,0,0,1-3.37,2,3.4,3.4,0,0,1-3.58-3.73v-6.54h1.3v6.32a2.47,2.47,0,0,0,2.66,2.8,2.88,2.88,0,0,0,3-3.15v-6h1.29Z"/><path class="cls-2" d="M1020.21,149.63c-.3,1.74-2,3-4.19,3-2.82,0-4.62-2-4.62-5.17s1.8-5.22,4.54-5.22,4.39,1.93,4.39,5v.55h-7.61v.08c0,2.27,1.32,3.67,3.32,3.67a2.75,2.75,0,0,0,2.88-1.87Zm-7.47-2.91H1019a3.09,3.09,0,0,0-3.09-3.35A3.21,3.21,0,0,0,1012.74,146.72Z"/><path class="cls-2" d="M1025.52,142.25c2.08,0,3.57,1.22,3.67,3H1028a2.22,2.22,0,0,0-2.48-1.9c-1.34,0-2.35.69-2.35,1.71,0,.82.6,1.3,1.88,1.61l1.58.38c2,.51,2.8,1.25,2.8,2.69,0,1.72-1.63,2.92-3.93,2.92s-3.76-1.25-3.9-3h1.29c.16,1.16,1.16,1.91,2.68,1.91s2.56-.68,2.56-1.75c0-.85-.52-1.32-1.87-1.66l-1.73-.43c-1.76-.44-2.63-1.28-2.63-2.63C1021.86,143.42,1023.41,142.25,1025.52,142.25Z"/><path class="cls-2" d="M1033,139.82v2.54h2v1.07h-2v6.51c0,1.05.41,1.49,1.35,1.49l.7,0v1.09a6.41,6.41,0,0,1-1,.06c-1.7,0-2.38-.72-2.38-2.55v-6.58h-1.51v-1.07h1.51v-2.54Z"/><path class="cls-2" d="M1041.28,143.43h-1.42v-1.07h1.42V141.2c0-1.79.82-2.57,2.53-2.57a3.88,3.88,0,0,1,.86.09v1.06a4.27,4.27,0,0,0-.74-.07c-.9,0-1.35.43-1.36,1.51v1.12h2.07v1.07h-2.06v9.08h-1.3Z"/><path class="cls-2" d="M1045.26,147.43c0-3.18,1.83-5.2,4.63-5.2s4.63,2,4.63,5.2-1.83,5.2-4.63,5.2S1045.26,150.61,1045.26,147.43Zm7.95,0c0-2.52-1.28-4.05-3.32-4.05s-3.31,1.53-3.31,4.05,1.27,4.05,3.31,4.05S1053.21,150,1053.21,147.43Z"/><path class="cls-2" d="M1056.24,142.36h1.22v1.81h0a2.57,2.57,0,0,1,2.57-1.92,3,3,0,0,1,.8.11v1.27a2.9,2.9,0,0,0-1-.14c-1.45,0-2.36,1.12-2.36,2.76v6.27h-1.29Z"/><path class="cls-2" d="M1066.2,142.36h1.22v1.81h0a2.57,2.57,0,0,1,2.57-1.92,3,3,0,0,1,.8.11v1.27a2.9,2.9,0,0,0-1-.14c-1.45,0-2.36,1.12-2.36,2.76v6.27h-1.29Z"/><path class="cls-2" d="M1079.93,149.63c-.3,1.74-2,3-4.19,3-2.82,0-4.62-2-4.62-5.17s1.8-5.22,4.54-5.22,4.39,1.93,4.39,5v.55h-7.61v.08c0,2.27,1.32,3.67,3.32,3.67a2.75,2.75,0,0,0,2.88-1.87Zm-7.47-2.91h6.27a3.09,3.09,0,0,0-3.09-3.35A3.21,3.21,0,0,0,1072.46,146.72Z"/><path class="cls-2" d="M1086,152.51h-1.38l-3.78-10.16h1.37l3.09,8.8h0l3.1-8.8h1.35Z"/><path class="cls-2" d="M1090.89,139.45a.86.86,0,1,1,.86.86A.86.86,0,0,1,1090.89,139.45Zm.21,2.91h1.3v10.16h-1.3Z"/><path class="cls-2" d="M1103,149.63c-.3,1.74-2,3-4.19,3-2.82,0-4.62-2-4.62-5.17s1.8-5.22,4.54-5.22,4.39,1.93,4.39,5v.55h-7.61v.08c0,2.27,1.32,3.67,3.32,3.67a2.75,2.75,0,0,0,2.88-1.87Zm-7.47-2.91h6.27a3.09,3.09,0,0,0-3.09-3.35A3.21,3.21,0,0,0,1095.55,146.72Z"/><path class="cls-2" d="M1114.65,152.51h-1.37l-2.53-8.43h0l-2.52,8.43h-1.37L1104,142.36h1.31l2.28,8.71h0l2.53-8.71h1.31l2.53,8.71h0l2.28-8.71h1.3Z"/><path class="cls-2" d="M991.45,167.43H990v-1.07h1.42V165.2c0-1.79.82-2.57,2.53-2.57a3.88,3.88,0,0,1,.86.09v1.06a4.27,4.27,0,0,0-.74-.07c-.9,0-1.35.43-1.36,1.51v1.12h2.07v1.07h-2.06v9.08h-1.3Z"/><path class="cls-2" d="M996.52,166.36h1.22v1.81h0a2.57,2.57,0,0,1,2.57-1.92,3,3,0,0,1,.8.11v1.27a2.9,2.9,0,0,0-1-.14c-1.45,0-2.36,1.12-2.36,2.76v6.27h-1.29Z"/><path class="cls-2" d="M1001.44,171.43c0-3.18,1.83-5.2,4.63-5.2s4.63,2,4.63,5.2-1.83,5.2-4.63,5.2S1001.44,174.61,1001.44,171.43Zm7.95,0c0-2.52-1.28-4.05-3.32-4.05s-3.31,1.53-3.31,4.05,1.27,4.05,3.31,4.05S1009.39,174,1009.39,171.43Z"/><path class="cls-2" d="M1012.42,166.36h1.22v1.9h0a3,3,0,0,1,3-2,2.93,2.93,0,0,1,2.94,2.15h0a3.34,3.34,0,0,1,3.2-2.15,3.13,3.13,0,0,1,3.28,3.38v6.89h-1.29v-6.59a2.25,2.25,0,0,0-2.35-2.53,2.55,2.55,0,0,0-2.54,2.78v6.34h-1.3V169.8a2.24,2.24,0,0,0-2.32-2.41,2.66,2.66,0,0,0-2.57,2.94v6.18h-1.29Z"/><path class="cls-2" d="M1032.08,163.45a.86.86,0,1,1,.86.86A.86.86,0,0,1,1032.08,163.45Zm.21,2.91h1.3v10.16h-1.3Z"/><path class="cls-2" d="M1035.9,166.36h1.22v1.9h0a3.67,3.67,0,0,1,6.94,1.72v6.53h-1.29v-6.32a2.5,2.5,0,0,0-2.69-2.8,2.88,2.88,0,0,0-2.93,3.16v6h-1.29Z"/><path class="cls-2" d="M1050.47,176.51h-1.38l-3.78-10.16h1.37l3.09,8.8h0l3.1-8.8h1.35Z"/><path class="cls-2" d="M1063.61,173.63c-.3,1.74-2,3-4.19,3-2.82,0-4.62-2-4.62-5.17s1.8-5.22,4.54-5.22,4.39,1.93,4.39,5v.55h-7.61v.08c0,2.27,1.32,3.67,3.32,3.67a2.75,2.75,0,0,0,2.88-1.87Zm-7.47-2.91h6.27a3.09,3.09,0,0,0-3.09-3.35A3.21,3.21,0,0,0,1056.14,170.72Z"/><path class="cls-2" d="M1068.92,166.25c2.08,0,3.57,1.22,3.67,3h-1.23a2.22,2.22,0,0,0-2.48-1.9c-1.34,0-2.35.69-2.35,1.71,0,.82.6,1.3,1.88,1.61l1.58.38c2,.51,2.8,1.25,2.8,2.69,0,1.72-1.63,2.92-3.93,2.92s-3.76-1.25-3.9-3h1.29c.16,1.16,1.16,1.91,2.68,1.91s2.56-.68,2.56-1.75c0-.85-.52-1.32-1.87-1.66l-1.73-.43c-1.76-.44-2.63-1.28-2.63-2.63C1065.26,167.42,1066.81,166.25,1068.92,166.25Z"/><path class="cls-2" d="M1076.36,163.82v2.54h2v1.07h-2v6.51c0,1.05.41,1.49,1.35,1.49l.7,0v1.09a6.41,6.41,0,0,1-1,.06c-1.7,0-2.38-.72-2.38-2.55v-6.58h-1.51v-1.07h1.51v-2.54Z"/><path class="cls-2" d="M1079.34,171.43c0-3.18,1.83-5.2,4.63-5.2s4.63,2,4.63,5.2-1.83,5.2-4.63,5.2S1079.34,174.61,1079.34,171.43Zm7.95,0c0-2.52-1.28-4.05-3.32-4.05s-3.31,1.53-3.31,4.05,1.27,4.05,3.31,4.05S1087.29,174,1087.29,171.43Z"/><path class="cls-2" d="M1090.32,166.36h1.22v1.81h0a2.57,2.57,0,0,1,2.57-1.92,3,3,0,0,1,.8.11v1.27a2.9,2.9,0,0,0-1-.14c-1.45,0-2.36,1.12-2.36,2.76v6.27h-1.29Z"/><path class="cls-2" d="M990.53,197.69c0-1.75,1.3-2.76,3.74-2.92l3.11-.21v-.87c0-1.46-.93-2.31-2.55-2.31a2.4,2.4,0,0,0-2.61,1.92H991c.11-1.8,1.71-3.07,3.87-3.07,2.33,0,3.82,1.3,3.82,3.35v6.92h-1.23v-1.93h0a3.76,3.76,0,0,1-3.47,2.08C991.91,200.66,990.53,199.44,990.53,197.69Zm6.85-1v-1.11l-2.95.21c-1.69.12-2.58.77-2.58,1.9s.95,1.86,2.35,1.86A3,3,0,0,0,997.38,196.69Z"/><path class="cls-2" d="M1000.33,195.43c0-3.11,1.79-5.2,4.32-5.2a3.64,3.64,0,0,1,3.48,2.21h0v-6h1.3v14.09h-1.23v-2.15h0a3.7,3.7,0,0,1-3.52,2.27C1002.13,200.63,1000.33,198.54,1000.33,195.43Zm1.33,0c0,2.43,1.31,4,3.24,4s3.26-1.64,3.26-4-1.33-4-3.26-4S1001.66,193,1001.66,195.43Z"/><path class="cls-2" d="M1011.26,195.43c0-3.11,1.79-5.2,4.32-5.2a3.64,3.64,0,0,1,3.48,2.21h0v-6h1.3v14.09h-1.23v-2.15h0a3.7,3.7,0,0,1-3.52,2.27C1013.05,200.63,1011.26,198.54,1011.26,195.43Zm1.33,0c0,2.43,1.31,4,3.24,4s3.26-1.64,3.26-4-1.33-4-3.26-4S1012.58,193,1012.58,195.43Z"/><path class="cls-2" d="M998.29,216.46h0v-2.1h1.23v13.52h-1.3v-5.45h0a3.68,3.68,0,0,1-3.49,2.21c-2.55,0-4.31-2.09-4.31-5.2s1.76-5.2,4.33-5.2A3.7,3.7,0,0,1,998.29,216.46Zm0,3c0-2.39-1.34-4-3.28-4s-3.21,1.62-3.21,4,1.29,4,3.21,4S998.25,221.83,998.25,219.43Z"/><path class="cls-2" d="M1009.92,224.51h-1.22V222.6h0a3.48,3.48,0,0,1-3.37,2,3.4,3.4,0,0,1-3.58-3.73v-6.54h1.3v6.32a2.47,2.47,0,0,0,2.66,2.8,2.88,2.88,0,0,0,3-3.15v-6h1.29Z"/><path class="cls-2" d="M1020.45,221.63c-.3,1.74-2,3-4.19,3-2.82,0-4.62-2-4.62-5.17s1.8-5.22,4.54-5.22,4.39,1.93,4.39,5v.55H1013v.08c0,2.27,1.32,3.67,3.32,3.67a2.75,2.75,0,0,0,2.88-1.87Zm-7.47-2.91h6.27a3.09,3.09,0,0,0-3.09-3.35A3.21,3.21,0,0,0,1013,218.72Z"/><path class="cls-2" d="M1022.3,214.36h1.22v1.81h0a2.57,2.57,0,0,1,2.57-1.92,3,3,0,0,1,.8.11v1.27a2.9,2.9,0,0,0-1-.14c-1.45,0-2.36,1.12-2.36,2.76v6.27h-1.29Z"/><path class="cls-2" d="M1028.38,228.13V227a2.93,2.93,0,0,0,.62.06c.93,0,1.44-.47,1.88-1.74l.27-.76-3.81-10.22h1.39l3.09,8.87h0l3.1-8.87h1.36l-4,10.77c-.89,2.39-1.61,3.06-3.28,3.06A4,4,0,0,1,1028.38,228.13Z"/><path class="cls-2" d="M1041.41,211.45a.86.86,0,1,1,.86.86A.86.86,0,0,1,1041.41,211.45Zm.21,2.91h1.3v10.16h-1.3Z"/><path class="cls-2" d="M1045.24,214.36h1.22v1.9h0a3.67,3.67,0,0,1,6.94,1.72v6.53h-1.29v-6.32a2.5,2.5,0,0,0-2.69-2.8,2.88,2.88,0,0,0-2.93,3.16v6h-1.29Z"/><path class="cls-2" d="M1057.46,211.82v2.54h2v1.07h-2v6.51c0,1.05.41,1.49,1.35,1.49l.7,0v1.09a6.41,6.41,0,0,1-1,.06c-1.7,0-2.38-.72-2.38-2.55v-6.58h-1.51v-1.07h1.51v-2.54Z"/><path class="cls-2" d="M1069.24,221.63c-.3,1.74-2,3-4.19,3-2.82,0-4.62-2-4.62-5.17s1.8-5.22,4.54-5.22,4.39,1.93,4.39,5v.55h-7.61v.08c0,2.27,1.32,3.67,3.32,3.67a2.75,2.75,0,0,0,2.88-1.87Zm-7.47-2.91H1068a3.09,3.09,0,0,0-3.09-3.35A3.21,3.21,0,0,0,1061.77,218.72Z"/><path class="cls-2" d="M1071.1,214.36h1.22v1.81h0a2.57,2.57,0,0,1,2.57-1.92,3,3,0,0,1,.8.11v1.27a2.9,2.9,0,0,0-1-.14c-1.45,0-2.36,1.12-2.36,2.76v6.27h-1.29Z"/><path class="cls-2" d="M1076.39,221.69c0-1.75,1.3-2.76,3.74-2.92l3.11-.21v-.87c0-1.46-.93-2.31-2.55-2.31a2.4,2.4,0,0,0-2.61,1.92h-1.24c.11-1.8,1.71-3.07,3.87-3.07,2.33,0,3.82,1.3,3.82,3.35v6.92h-1.23v-1.93h0a3.76,3.76,0,0,1-3.47,2.08C1077.77,224.66,1076.39,223.44,1076.39,221.69Zm6.85-1v-1.11l-2.95.21c-1.69.12-2.58.77-2.58,1.9s.95,1.86,2.35,1.86A3,3,0,0,0,1083.24,220.69Z"/><path class="cls-2" d="M1093.69,217.57a2.77,2.77,0,0,0-2.91-2.19c-2,0-3.27,1.59-3.27,4.05s1.31,4.05,3.28,4.05a2.71,2.71,0,0,0,2.9-2.12H1095a3.94,3.94,0,0,1-4.18,3.26c-2.77,0-4.6-2-4.6-5.2s1.83-5.2,4.58-5.2a4,4,0,0,1,4.19,3.33Z"/><path class="cls-2" d="M1098.42,211.82v2.54h2v1.07h-2v6.51c0,1.05.41,1.49,1.35,1.49l.7,0v1.09a6.41,6.41,0,0,1-1,.06c-1.7,0-2.38-.72-2.38-2.55v-6.58h-1.51v-1.07h1.51v-2.54Z"/><path class="cls-2" d="M1102.13,211.45a.86.86,0,1,1,.86.86A.86.86,0,0,1,1102.13,211.45Zm.21,2.91h1.3v10.16h-1.3Z"/><path class="cls-2" d="M1105.46,219.43c0-3.18,1.83-5.2,4.63-5.2s4.63,2,4.63,5.2-1.83,5.2-4.63,5.2S1105.46,222.61,1105.46,219.43Zm7.95,0c0-2.52-1.28-4.05-3.32-4.05s-3.31,1.53-3.31,4.05,1.27,4.05,3.31,4.05S1113.4,222,1113.4,219.43Z"/><path class="cls-2" d="M1116.43,214.36h1.22v1.9h0a3.67,3.67,0,0,1,6.94,1.72v6.53h-1.29v-6.32a2.5,2.5,0,0,0-2.69-2.8,2.88,2.88,0,0,0-2.93,3.16v6h-1.29Z"/><path class="cls-2" d="M1130.26,214.25c2.08,0,3.57,1.22,3.67,3h-1.23a2.22,2.22,0,0,0-2.48-1.9c-1.34,0-2.35.69-2.35,1.71,0,.82.6,1.3,1.88,1.61l1.58.38c2,.51,2.8,1.25,2.8,2.69,0,1.72-1.63,2.92-3.93,2.92s-3.76-1.25-3.9-3h1.29c.16,1.16,1.16,1.91,2.68,1.91s2.56-.68,2.56-1.75c0-.85-.52-1.32-1.87-1.66l-1.73-.43c-1.76-.44-2.63-1.28-2.63-2.63C1126.6,215.42,1128.15,214.25,1130.26,214.25Z"/><path class="cls-2" d="M976.25,337.49c0,2-.95,2.82-2.93,2.82H973v-1.09h.26c1.2,0,1.68-.47,1.68-1.7V326.69h1.3Zm-1.51-13.71a.86.86,0,1,1,.86.86A.86.86,0,0,1,974.73,323.78Z"/><path class="cls-2" d="M978.05,331.77c0-3.18,1.83-5.2,4.63-5.2s4.63,2,4.63,5.2-1.83,5.2-4.63,5.2S978.05,334.94,978.05,331.77Zm7.95,0c0-2.52-1.28-4.05-3.32-4.05s-3.31,1.53-3.31,4.05,1.27,4.05,3.31,4.05S986,334.29,986,331.77Z"/><path class="cls-2" d="M988.9,323.78a.86.86,0,1,1,.86.86A.86.86,0,0,1,988.9,323.78Zm.21,2.91h1.3v10.16h-1.3Z"/><path class="cls-2" d="M992.73,326.69H994v1.9h0a3.67,3.67,0,0,1,6.94,1.72v6.53h-1.29v-6.32a2.5,2.5,0,0,0-2.69-2.8,2.88,2.88,0,0,0-2.93,3.16v6h-1.29Z"/><path class="cls-2" d="M991.2,351.76h-1.42v-1.07h1.42v-1.15c0-1.79.82-2.57,2.53-2.57a3.88,3.88,0,0,1,.86.09v1.06a4.27,4.27,0,0,0-.74-.07c-.9,0-1.35.43-1.36,1.51v1.12h2.07v1.07H992.5v9.08h-1.3Z"/><path class="cls-2" d="M996.27,350.69h1.22v1.81h0a2.57,2.57,0,0,1,2.57-1.92,3,3,0,0,1,.8.11v1.27a2.9,2.9,0,0,0-1-.14c-1.45,0-2.36,1.12-2.36,2.76v6.27h-1.29Z"/><path class="cls-2" d="M1001.19,355.77c0-3.18,1.83-5.2,4.63-5.2s4.63,2,4.63,5.2-1.83,5.2-4.63,5.2S1001.19,358.94,1001.19,355.77Zm7.95,0c0-2.52-1.28-4.05-3.32-4.05s-3.31,1.53-3.31,4.05,1.27,4.05,3.31,4.05S1009.14,358.29,1009.14,355.77Z"/><path class="cls-2" d="M1012.16,350.69h1.22v1.9h0a3,3,0,0,1,3-2,2.93,2.93,0,0,1,2.94,2.15h0a3.34,3.34,0,0,1,3.2-2.15,3.13,3.13,0,0,1,3.28,3.38v6.89h-1.29v-6.59a2.25,2.25,0,0,0-2.35-2.53,2.55,2.55,0,0,0-2.54,2.78v6.34h-1.3v-6.71a2.24,2.24,0,0,0-2.32-2.41,2.66,2.66,0,0,0-2.57,2.94v6.18h-1.29Z"/><path class="cls-2" d="M1031.55,358c0-1.75,1.3-2.76,3.74-2.92l3.11-.21V354c0-1.46-.93-2.31-2.55-2.31a2.4,2.4,0,0,0-2.61,1.92H1032c.11-1.8,1.71-3.07,3.87-3.07,2.33,0,3.82,1.3,3.82,3.35v6.92h-1.23v-1.93h0A3.76,3.76,0,0,1,1035,361C1032.93,361,1031.55,359.77,1031.55,358Zm6.85-1v-1.11l-2.95.21c-1.69.12-2.58.77-2.58,1.9s.95,1.86,2.35,1.86A3,3,0,0,0,1038.39,357Z"/><path class="cls-2" d="M1050,360.85h-1.22v-1.91h0a3.48,3.48,0,0,1-3.37,2,3.4,3.4,0,0,1-3.58-3.73v-6.54h1.3V357a2.47,2.47,0,0,0,2.66,2.8,2.88,2.88,0,0,0,3-3.15v-6H1050Z"/><path class="cls-2" d="M1051.71,355.77c0-3.11,1.79-5.2,4.32-5.2a3.64,3.64,0,0,1,3.48,2.21h0v-6h1.3v14.09h-1.23V358.7h0a3.7,3.7,0,0,1-3.52,2.27C1053.51,361,1051.71,358.87,1051.71,355.77Zm1.33,0c0,2.43,1.31,4,3.24,4s3.26-1.64,3.26-4-1.33-4-3.26-4S1053,353.35,1053,355.77Z"/><path class="cls-2" d="M1063,347.78a.86.86,0,1,1,.86.86A.86.86,0,0,1,1063,347.78Zm.21,2.91h1.3v10.16h-1.3Z"/><path class="cls-2" d="M1068.7,348.15v2.54h2v1.07h-2v6.51c0,1.05.41,1.49,1.35,1.49l.7,0v1.09a6.41,6.41,0,0,1-1,.06c-1.7,0-2.38-.72-2.38-2.55v-6.58h-1.51v-1.07h1.51v-2.54Z"/><path class="cls-2" d="M1071.68,355.77c0-3.18,1.83-5.2,4.63-5.2s4.63,2,4.63,5.2-1.83,5.2-4.63,5.2S1071.68,358.94,1071.68,355.77Zm7.95,0c0-2.52-1.28-4.05-3.32-4.05s-3.31,1.53-3.31,4.05,1.27,4.05,3.31,4.05S1079.63,358.29,1079.63,355.77Z"/><path class="cls-2" d="M1082.65,350.69h1.22v1.81h0a2.57,2.57,0,0,1,2.57-1.92,3,3,0,0,1,.8.11v1.27a2.9,2.9,0,0,0-1-.14c-1.45,0-2.36,1.12-2.36,2.76v6.27h-1.29Z"/><path class="cls-2" d="M1003.12,377.8c0,4.46-2.47,7.27-6.41,7.27s-6.4-2.8-6.4-7.27,2.47-7.28,6.4-7.28S1003.12,373.34,1003.12,377.8Zm-11.44,0c0,3.69,1.94,6,5,6s5-2.33,5-6-2-6-5-6S991.69,374.1,991.69,377.8Z"/><path class="cls-2" d="M1005.19,384.85V370.75h1.33v7.3h.08l6.7-7.3H1015L1009.2,377l6.37,7.86h-1.71l-5.6-6.91-1.74,1.88v5Z"/><path class="cls-2" d="M998,400.79h0v-2.1h1.23v13.52H998v-5.45h0a3.68,3.68,0,0,1-3.49,2.21c-2.55,0-4.31-2.09-4.31-5.2s1.76-5.2,4.33-5.2A3.7,3.7,0,0,1,998,400.79Zm0,3c0-2.39-1.34-4-3.28-4s-3.21,1.62-3.21,4,1.29,4,3.21,4S998,406.16,998,403.77Z"/><path class="cls-2" d="M1009.66,408.85h-1.22v-1.91h0a3.48,3.48,0,0,1-3.37,2,3.4,3.4,0,0,1-3.58-3.73v-6.54h1.3V405a2.47,2.47,0,0,0,2.66,2.8,2.88,2.88,0,0,0,3-3.15v-6h1.29Z"/><path class="cls-2" d="M1020.19,406c-.3,1.74-2,3-4.19,3-2.82,0-4.62-2-4.62-5.17s1.8-5.22,4.54-5.22,4.39,1.93,4.39,5v.55h-7.61v.08c0,2.27,1.32,3.67,3.32,3.67a2.75,2.75,0,0,0,2.88-1.87Zm-7.47-2.91H1019a3.09,3.09,0,0,0-3.09-3.35A3.21,3.21,0,0,0,1012.72,403.05Z"/><path class="cls-2" d="M1022,398.69h1.22v1.81h0a2.57,2.57,0,0,1,2.57-1.92,3,3,0,0,1,.8.11v1.27a2.9,2.9,0,0,0-1-.14c-1.45,0-2.36,1.12-2.36,2.76v6.27H1022Z"/><path class="cls-2" d="M1028.13,412.46v-1.1a2.93,2.93,0,0,0,.62.06c.93,0,1.44-.47,1.88-1.74l.27-.76-3.81-10.22h1.39l3.09,8.87h0l3.1-8.87h1.36l-4,10.77c-.89,2.39-1.61,3.06-3.28,3.06A4,4,0,0,1,1028.13,412.46Z"/><path class="cls-2" d="M1041.37,394.75h1.3v14.09h-1.3Z"/><path class="cls-2" d="M1053.29,406c-.3,1.74-2,3-4.19,3-2.82,0-4.62-2-4.62-5.17s1.8-5.22,4.54-5.22,4.39,1.93,4.39,5v.55h-7.61v.08c0,2.27,1.32,3.67,3.32,3.67A2.75,2.75,0,0,0,1052,406Zm-7.47-2.91h6.27a3.09,3.09,0,0,0-3.09-3.35A3.21,3.21,0,0,0,1045.82,403.05Z"/><path class="cls-2" d="M1059.34,408.85H1058l-3.78-10.16h1.37l3.09,8.8h0l3.1-8.8h1.35Z"/><path class="cls-2" d="M1072.48,406c-.3,1.74-2,3-4.19,3-2.82,0-4.62-2-4.62-5.17s1.8-5.22,4.54-5.22,4.39,1.93,4.39,5v.55H1065v.08c0,2.27,1.32,3.67,3.32,3.67a2.75,2.75,0,0,0,2.88-1.87Zm-7.47-2.91h6.27a3.09,3.09,0,0,0-3.09-3.35A3.21,3.21,0,0,0,1065,403.05Z"/><path class="cls-2" d="M1074.42,394.75h1.3v14.09h-1.3Z"/><path class="cls-2" d="M1086.51,394.53a4.1,4.1,0,0,1,4.38,3.85c0,1.54-.69,2.71-3,5.14l-3.93,4.1v0h7.32v1.19h-9.19v-.94l5-5.26c2-2.12,2.52-3,2.52-4.19a2.91,2.91,0,0,0-3.1-2.75,3,3,0,0,0-3.18,3H1082A4.25,4.25,0,0,1,1086.51,394.53Z"/><path class="cls-2" d="M1097.19,398.69h1.22v1.81h0a2.57,2.57,0,0,1,2.57-1.92,3,3,0,0,1,.8.11v1.27a2.9,2.9,0,0,0-1-.14c-1.45,0-2.36,1.12-2.36,2.76v6.27h-1.29Z"/><path class="cls-2" d="M1110.92,406c-.3,1.74-2,3-4.19,3-2.82,0-4.62-2-4.62-5.17s1.8-5.22,4.54-5.22,4.39,1.93,4.39,5v.55h-7.61v.08c0,2.27,1.32,3.67,3.32,3.67a2.75,2.75,0,0,0,2.88-1.87Zm-7.47-2.91h6.27a3.09,3.09,0,0,0-3.09-3.35A3.21,3.21,0,0,0,1103.45,403.05Z"/><path class="cls-2" d="M1112.87,394.75h1.3v14.09h-1.3Z"/><path class="cls-2" d="M1116.08,406c0-1.75,1.3-2.76,3.74-2.92l3.11-.21V402c0-1.46-.93-2.31-2.55-2.31a2.4,2.4,0,0,0-2.61,1.92h-1.24c.11-1.8,1.71-3.07,3.87-3.07,2.33,0,3.82,1.3,3.82,3.35v6.92H1123v-1.93h0a3.76,3.76,0,0,1-3.47,2.08C1117.46,409,1116.08,407.77,1116.08,406Zm6.85-1v-1.11l-2.95.21c-1.69.12-2.58.77-2.58,1.9s.95,1.86,2.35,1.86A3,3,0,0,0,1122.93,405Z"/><path class="cls-2" d="M1128.23,396.15v2.54h2v1.07h-2v6.51c0,1.05.41,1.49,1.35,1.49l.7,0v1.09a6.41,6.41,0,0,1-1,.06c-1.7,0-2.38-.72-2.38-2.55v-6.58h-1.51v-1.07h1.51v-2.54Z"/><path class="cls-2" d="M1131.94,395.78a.86.86,0,1,1,.86.86A.86.86,0,0,1,1131.94,395.78Zm.21,2.91h1.3v10.16h-1.3Z"/><path class="cls-2" d="M1135.26,403.77c0-3.18,1.83-5.2,4.63-5.2s4.63,2,4.63,5.2-1.83,5.2-4.63,5.2S1135.26,406.94,1135.26,403.77Zm7.95,0c0-2.52-1.28-4.05-3.32-4.05s-3.31,1.53-3.31,4.05,1.27,4.05,3.31,4.05S1143.21,406.29,1143.21,403.77Z"/><path class="cls-2" d="M1146.24,398.69h1.22v1.9h0a3.67,3.67,0,0,1,6.94,1.72v6.53h-1.29v-6.32a2.5,2.5,0,0,0-2.69-2.8,2.88,2.88,0,0,0-2.93,3.16v6h-1.29Z"/><path class="cls-2" d="M1160.06,398.58c2.08,0,3.57,1.22,3.67,3h-1.23a2.22,2.22,0,0,0-2.48-1.9c-1.34,0-2.35.69-2.35,1.71,0,.82.6,1.3,1.88,1.61l1.58.38c2,.51,2.8,1.25,2.8,2.69,0,1.72-1.63,2.92-3.93,2.92s-3.76-1.25-3.9-3h1.29c.16,1.16,1.16,1.91,2.68,1.91s2.56-.68,2.56-1.75c0-.85-.52-1.32-1.87-1.66l-1.73-.43c-1.76-.44-2.63-1.28-2.63-2.63C1156.4,399.75,1158,398.58,1160.06,398.58Z"/><path class="cls-2" d="M1165.75,394.75h1.3v5.84h0a3.4,3.4,0,0,1,3.35-2,3.46,3.46,0,0,1,3.63,3.76v6.51h-1.3v-6.29a2.54,2.54,0,0,0-2.71-2.83,2.93,2.93,0,0,0-3,3.2v5.92h-1.3Z"/><path class="cls-2" d="M1176.1,395.78a.86.86,0,1,1,.86.86A.86.86,0,0,1,1176.1,395.78Zm.21,2.91h1.3v10.16h-1.3Z"/><path class="cls-2" d="M1189,403.77c0,3.11-1.75,5.2-4.3,5.2a3.63,3.63,0,0,1-3.46-2.21h0v5.45h-1.29V398.69h1.22v2.1h0a3.75,3.75,0,0,1,3.5-2.22C1187.25,398.57,1189,400.66,1189,403.77Zm-1.32,0c0-2.42-1.3-4-3.23-4s-3.24,1.65-3.24,4,1.32,4,3.24,4S1187.69,406.2,1187.69,403.77Z"/><path class="cls-2" d="M1194.2,398.58c2.08,0,3.57,1.22,3.67,3h-1.23a2.22,2.22,0,0,0-2.48-1.9c-1.34,0-2.35.69-2.35,1.71,0,.82.6,1.3,1.88,1.61l1.58.38c2,.51,2.8,1.25,2.8,2.69,0,1.72-1.63,2.92-3.93,2.92s-3.76-1.25-3.9-3h1.29c.16,1.16,1.16,1.91,2.68,1.91s2.56-.68,2.56-1.75c0-.85-.52-1.32-1.87-1.66l-1.73-.43c-1.76-.44-2.63-1.28-2.63-2.63C1190.53,399.75,1192.09,398.58,1194.2,398.58Z"/><rect class="cls-1" x="948.75" y="57" width="267.81" height="192.33"/><rect class="cls-1" x="948.67" y="249.33" width="267.96" height="52"/><rect class="cls-1" x="948.75" y="433.83" width="267.81" height="52"/><rect class="cls-1" x="948.75" y="301.33" width="267.81" height="132.5"/><path class="cls-2" d="M1046.31,503.44a5.27,5.27,0,1,1,0,10.54h-4.15v6.38h-1.59V503.44Zm-4.16,9.11h3.79c2.6,0,4.16-1.44,4.16-3.84s-1.55-3.83-4.16-3.83h-3.79Z"/><path class="cls-2" d="M1061.88,515.17h-7.1l-1.87,5.18h-1.7l6.33-16.91h1.59l6.32,16.91h-1.69Zm-6.62-1.38h6.14l-3-8.37h-.07Z"/><path class="cls-2" d="M1069.82,520.35V513l-6.06-9.6h1.83l5,8h.06l5-8h1.83l-6.06,9.6v7.31Z"/><path class="cls-2" d="M1093.07,511.9c0,5.36-3,8.72-7.69,8.72s-7.68-3.36-7.68-8.72,3-8.73,7.68-8.73S1093.07,506.54,1093.07,511.9Zm-13.72,0c0,4.43,2.33,7.23,6,7.23s6-2.8,6-7.23-2.34-7.24-6-7.24S1079.35,507.46,1079.35,511.9Z"/><path class="cls-2" d="M1097.15,514.35c0,2.84,1.85,4.78,4.95,4.78s4.95-1.95,4.95-4.78V503.44h1.61v11c0,3.64-2.48,6.18-6.55,6.18s-6.54-2.53-6.54-6.18v-11h1.59Z"/><path class="cls-2" d="M1116.24,520.35V504.89h-5.58v-1.45h12.77v1.45h-5.59v15.46Z"/><path class="cls-2" d="M1123.77,519.35a1.11,1.11,0,1,1,1.11,1.11A1.1,1.1,0,0,1,1123.77,519.35Z"/><rect class="cls-1" x="948.75" y="485.83" width="267.81" height="52"/><path class="cls-2" d="M1040.51,572.35h-1.59V555.44h6c3.3,0,5.41,1.93,5.41,4.95a4.69,4.69,0,0,1-3.62,4.78l4.1,7.18h-1.87l-3.89-6.93h-4.5Zm0-8.34h4.24c2.46,0,3.89-1.31,3.89-3.57s-1.49-3.56-3.95-3.56h-4.18Z"/><path class="cls-2" d="M1063.1,572.35H1052.9V555.44h10.21v1.45h-8.61V563h8.18v1.43h-8.18v6.49h8.61Z"/><path class="cls-2" d="M1065.83,572.35V555.44h10v1.45h-8.44v6.35h7.76v1.43h-7.76v7.68Z"/><path class="cls-2" d="M1079.86,566.35c0,2.84,1.85,4.78,4.95,4.78s4.95-1.95,4.95-4.78V555.44h1.61v11c0,3.64-2.48,6.18-6.55,6.18s-6.54-2.53-6.54-6.18v-11h1.59Z"/><path class="cls-2" d="M1094.51,572.35V555.44h1.58l9.91,14.12h.08V555.44h1.58v16.91h-1.55l-9.95-14.13h-.08v14.13Z"/><path class="cls-2" d="M1116.32,555.44c5.06,0,8,3.11,8,8.45s-2.94,8.46-8,8.46h-5.48V555.44Zm-3.88,15.46h3.79c4.16,0,6.48-2.51,6.48-7s-2.32-7-6.48-7h-3.79Z"/><path class="cls-2" d="M1125.41,571.35a1.11,1.11,0,1,1,1.11,1.11A1.1,1.1,0,0,1,1125.41,571.35Z"/><rect class="cls-1" x="948.75" y="537.83" width="267.81" height="52"/><line class="cls-1" x1="948.49" y1="117" x2="1216.81" y2="117"/><path class="cls-2" d="M1079.37,72.51a12.3,12.3,0,0,1,6.34,4.72,16.56,16.56,0,0,1,2.65,6,28.81,28.81,0,0,1,.71,6.16,24.73,24.73,0,0,1-3,12.58q-4,6.94-12.49,6.94h-16V71.7h16A19.6,19.6,0,0,1,1079.37,72.51Zm-14.26,5.66v24.29h7.18q5.51,0,7.69-5.43a19.12,19.12,0,0,0,1.19-7.1q0-5.68-1.78-8.73t-7.09-3Z"/><path class="cls-2" d="M1094.79,71.7h8.15l14.78,26v-26H1125v37.22h-7.78L1102,82.51v26.41h-7.25Z"/><path class="cls-2" d="M1142.91,71.7h8.8l13.17,37.22h-8.43l-2.46-7.65h-13.71l-2.52,7.65h-8.14Zm-.51,23.16h9.53l-4.7-14.65Z"/><path class="cls-2" d="M1027.26,88.48c12.59.25,18.46-1.74,23.65-7.79l-2.17-1.86c-.39.45-.77.87-1.16,1.26L1029,64.17c.33-.45.68-.89,1.07-1.34L1027.9,61c-5.19,6.05-6.25,12.16-4.08,24.56-12.59-.25-18.46,1.74-23.65,7.79l2.17,1.86c.39-.45.77-.87,1.16-1.26l18.58,15.92c-.33.45-.68.89-1.07,1.34l2.17,1.86C1028.37,107,1029.43,100.88,1027.26,88.48Zm-2,6.38-7.45-6.38c1.91-.12,4.07-.14,6.53-.08C1024.78,90.81,1025.08,92.95,1025.26,94.86Zm1.47-9.26c-.44-2.42-.74-4.55-.92-6.46l7.45,6.38C1031.35,85.64,1029.19,85.67,1026.73,85.6Zm19.79-4.53a15.55,15.55,0,0,1-3.75,2.43l-16.41-14.07a15.55,15.55,0,0,1,1.83-4.08Zm-20.66-9.32c0-.25.08-.5.13-.75l15.29,13.1-.72.24a27.75,27.75,0,0,1-5.29,1l-9.6-8.23A27.75,27.75,0,0,1,1025.87,71.75Zm-21.31,21.17a15.55,15.55,0,0,1,3.75-2.43l16.41,14.07a15.55,15.55,0,0,1-1.83,4.08ZM1025.09,103l-15.29-13.1.72-.24a27.75,27.75,0,0,1,5.29-1l9.6,8.23a27.75,27.75,0,0,1-.2,5.38C1025.17,102.5,1025.13,102.75,1025.09,103Z"/><path class="cls-3" d="M1166.6,172.48c12.59.25,18.46-1.74,23.65-7.79l-2.17-1.86c-.39.45-.77.87-1.16,1.26l-18.58-15.92c.33-.45.68-.89,1.07-1.34l-2.17-1.86c-5.19,6.05-6.25,12.16-4.08,24.56-12.59-.25-18.46,1.74-23.65,7.79l2.17,1.86c.39-.45.77-.87,1.16-1.26l18.58,15.92c-.33.45-.68.89-1.07,1.34l2.17,1.86C1167.71,191,1168.77,184.88,1166.6,172.48Zm-2,6.38-7.45-6.38c1.91-.12,4.07-.14,6.53-.08C1164.12,174.81,1164.42,176.95,1164.6,178.86Zm1.47-9.26c-.44-2.42-.74-4.55-.92-6.46l7.45,6.38C1170.69,169.64,1168.53,169.67,1166.08,169.6Zm19.79-4.53a15.55,15.55,0,0,1-3.75,2.43l-16.41-14.07a15.55,15.55,0,0,1,1.83-4.08Zm-20.66-9.32c0-.25.08-.5.13-.75l15.29,13.1-.72.24a27.75,27.75,0,0,1-5.29,1l-9.6-8.23A27.75,27.75,0,0,1,1165.21,155.75Zm-21.31,21.17a15.55,15.55,0,0,1,3.75-2.43l16.41,14.07a15.55,15.55,0,0,1-1.83,4.08ZM1164.43,187l-15.29-13.1.72-.24a27.75,27.75,0,0,1,5.29-1l9.6,8.23a27.75,27.75,0,0,1-.2,5.38C1164.51,186.5,1164.47,186.75,1164.43,187Z"/><path class="cls-3" d="M1166.6,355.48c12.59.25,18.46-1.74,23.65-7.79l-2.17-1.86c-.39.45-.77.87-1.16,1.26l-18.58-15.92c.33-.45.68-.89,1.07-1.34l-2.17-1.86c-5.19,6.05-6.25,12.16-4.08,24.56-12.59-.25-18.46,1.74-23.65,7.79l2.17,1.86c.39-.45.77-.87,1.16-1.26l18.58,15.92c-.33.45-.68.89-1.07,1.34l2.17,1.86C1167.71,374,1168.77,367.88,1166.6,355.48Zm-2,6.38-7.45-6.38c1.91-.12,4.07-.14,6.53-.08C1164.12,357.81,1164.42,359.95,1164.6,361.86Zm1.47-9.26c-.44-2.42-.74-4.55-.92-6.46l7.45,6.38C1170.69,352.64,1168.53,352.67,1166.08,352.6Zm19.79-4.53a15.55,15.55,0,0,1-3.75,2.43l-16.41-14.07a15.55,15.55,0,0,1,1.83-4.08Zm-20.66-9.32c0-.25.08-.5.13-.75l15.29,13.1-.72.24a27.75,27.75,0,0,1-5.29,1l-9.6-8.23A27.75,27.75,0,0,1,1165.21,338.75Zm-21.31,21.17a15.55,15.55,0,0,1,3.75-2.43l16.41,14.07a15.55,15.55,0,0,1-1.83,4.08ZM1164.43,370l-15.29-13.1.72-.24a27.75,27.75,0,0,1,5.29-1l9.6,8.23a27.75,27.75,0,0,1-.2,5.38C1164.51,369.5,1164.47,369.75,1164.43,370Z"/><rect class="cls-1" x="691.07" y="796.62" width="350" height="110.5"/><path class="cls-2" d="M814.11,847.26h-3.81v11a.39.39,0,0,1-.4.4H808a.39.39,0,0,1-.4-.4v-11H803.8c-.23,0-.4-.11-.4-.34v-1.54c0-.23.17-.34.4-.34h10.3a.38.38,0,0,1,.4.34v1.54C814.5,847.14,814.33,847.26,814.11,847.26Zm13.83,11.38h-1.88a.39.39,0,0,1-.4-.4v-5.52h-6v5.52a.39.39,0,0,1-.4.4h-1.88a.39.39,0,0,1-.4-.4V845.38c0-.23.17-.34.4-.34h1.88a.38.38,0,0,1,.4.34v5h6v-5c0-.23.17-.34.4-.34h1.88a.38.38,0,0,1,.4.34v12.86A.48.48,0,0,1,827.94,858.64Zm9.45.17c-3.13,0-6.09-1.76-6.09-6V850.9c0-4.21,2.9-6,6.09-6s6.09,1.76,6.09,6v1.94C843.48,857,840.57,858.81,837.38,858.81Zm3.42-7.91c0-2.5-1.54-3.64-3.42-3.64S834,848.4,834,850.9v1.94c0,2.5,1.54,3.64,3.42,3.64s3.42-1.14,3.42-3.64ZM860,858.64H858c-.17,0-.28-.17-.28-.4V850c0-.11,0-.17-.06-.17l-.11.11-3.07,6.83a.65.65,0,0,1-.63.34h-1a.71.71,0,0,1-.63-.34l-3.13-6.83c-.06-.06-.06-.11-.11-.11s-.06.06-.06.17v8.25c0,.17-.11.4-.28.4h-1.94a.32.32,0,0,1-.34-.28V845.84a.75.75,0,0,1,.74-.74h1.59a.74.74,0,0,1,.68.46l3.7,7.46c.11.17.11.28.23.28s.11-.11.23-.28l3.64-7.46a.74.74,0,0,1,.68-.46h1.59a.75.75,0,0,1,.74.74v12.52C860.32,858.59,860.15,858.64,860,858.64Zm42,0h-1.94a1,1,0,0,1-1.14-.68l-5.18-8.71q-.09-.17-.17-.17c-.06,0-.11.06-.11.17v9a.38.38,0,0,1-.34.4h-1.65a.39.39,0,0,1-.4-.4V845.78a.75.75,0,0,1,.74-.74h2c.4,0,.63.11.85.63l5.41,9.22q.09.17.17.17c.06,0,.11-.06.11-.17v-9.45a.33.33,0,0,1,.34-.34h1.65a.33.33,0,0,1,.34.34V857.9A.69.69,0,0,1,902,858.64Zm-33.47.17a19.5,19.5,0,0,1-4.33-.51.43.43,0,0,1-.34-.4v-1.37a.33.33,0,0,1,.34-.34h.06a31.38,31.38,0,0,0,4.33.34c1.71,0,2.22-.63,2.22-1.71,0-1.42-3.42-2.22-5.07-2.9a3.45,3.45,0,0,1-2.28-3.36c0-2.11,1.71-3.64,5.24-3.64a18.24,18.24,0,0,1,4.16.51c.17.06.34.17.34.34v1.42a.33.33,0,0,1-.34.34h-.06a40.7,40.7,0,0,0-4.21-.34c-1.42,0-2.5.51-2.5,1.37,0,.63.74,1.2,1.59,1.54s2,.8,3.24,1.25c1.59.63,2.68,1.59,2.68,3.42C873.53,856.76,872.33,858.81,868.52,858.81Zm13.55,0c-3.13,0-6.09-1.76-6.09-6V850.9c0-4.21,2.9-6,6.09-6s6.09,1.76,6.09,6v1.94C888.1,857,885.2,858.81,882.07,858.81Zm3.36-7.91c0-2.5-1.54-3.64-3.42-3.64s-3.42,1.14-3.42,3.64v1.94c0,2.5,1.54,3.64,3.42,3.64s3.42-1.14,3.42-3.64Zm37.22,7.74h-2.33c-.23,0-.28-.17-.4-.4l-2.73-4.67h-.4c-.51,0-2-.06-2.5-.06v4.72a.38.38,0,0,1-.34.4h-2a.39.39,0,0,1-.4-.4V845.72c0-.4.23-.51.63-.57a36.27,36.27,0,0,1,4.55-.23c3,0,5.69,1.08,5.69,4.33v.17a3.71,3.71,0,0,1-2.56,3.76l3,5.12a.21.21,0,0,1,.06.17A.31.31,0,0,1,922.65,858.64Zm-2.9-9.39c0-1.42-1.14-2-3-2l-2.5.06v4.16l2.5.06c2,0,3-.4,3-2Zm8.2,5.63c0,1.59.06,1.65,1.54,1.65h4.84a.39.39,0,0,1,.4.4v1.2c0,.28-.11.34-.4.4a23.37,23.37,0,0,1-4.16.28c-3.19,0-4.84,0-4.84-3.93v-6c0-3.93,1.71-3.93,4.84-3.93a23.37,23.37,0,0,1,4.16.28c.28.06.4.11.4.4v1.2a.39.39,0,0,1-.4.4h-4.84c-1.42,0-1.54.06-1.54,1.65v1.76h6.15a.39.39,0,0,1,.4.4v1.37a.39.39,0,0,1-.4.4h-6.15Zm15.31,3.93c-3.07,0-5.75-1.37-5.75-5.41v-8c0-.23.17-.34.4-.34h1.88a.38.38,0,0,1,.4.34v8c0,2.16,1,3.19,3.07,3.19s3.07-1,3.07-3.19v-8c0-.23.17-.34.4-.34h1.88a.38.38,0,0,1,.4.34v8C949,857.45,946.38,858.81,943.25,858.81Zm18.33-11.55h-3.81v11a.39.39,0,0,1-.4.4h-1.88a.39.39,0,0,1-.4-.4v-11h-3.81c-.23,0-.4-.11-.4-.34v-1.54c0-.23.17-.34.4-.34h10.3a.38.38,0,0,1,.4.34v1.54C962,847.14,961.81,847.26,961.58,847.26Zm26,11.38h-2.33c-.23,0-.28-.17-.4-.4l-2.73-4.67h-.46c-.51,0-2-.06-2.5-.06v4.72a.38.38,0,0,1-.34.4h-1.94a.39.39,0,0,1-.4-.4V845.72c0-.4.23-.51.63-.57a35.69,35.69,0,0,1,4.55-.23c3,0,5.69,1.08,5.69,4.33v.17a3.71,3.71,0,0,1-2.56,3.76l3,5.12a.21.21,0,0,1,.06.17A.26.26,0,0,1,987.59,858.64Zm-2.9-9.39c0-1.42-1.14-2-3-2l-2.5.06v4.16l2.5.06c2,0,3-.4,3-2Zm10.19,9.56a19.5,19.5,0,0,1-4.33-.51.43.43,0,0,1-.34-.4v-1.37a.33.33,0,0,1,.34-.34h.06a31.38,31.38,0,0,0,4.33.34c1.71,0,2.22-.63,2.22-1.71,0-1.42-3.42-2.22-5.12-2.9a3.45,3.45,0,0,1-2.28-3.36c0-2.11,1.71-3.64,5.24-3.64a18.24,18.24,0,0,1,4.16.51c.17.06.34.17.34.34v1.42a.33.33,0,0,1-.34.34h-.06a40.7,40.7,0,0,0-4.21-.34c-1.42,0-2.5.51-2.5,1.37,0,.63.74,1.2,1.59,1.54s2,.8,3.24,1.25c1.59.63,2.68,1.59,2.68,3.42C999.94,856.76,998.69,858.81,994.88,858.81Zm-28.29-3.93c0,1.59.06,1.65,1.54,1.65H973a.39.39,0,0,1,.4.4v1.2c0,.28-.11.34-.4.4a23.37,23.37,0,0,1-4.16.28c-3.19,0-4.84,0-4.84-3.93v-6c0-3.93,1.71-3.93,4.84-3.93a23.37,23.37,0,0,1,4.16.28c.28.06.4.11.4.4v1.2a.39.39,0,0,1-.4.4h-4.84c-1.48,0-1.54.06-1.54,1.65v1.76h6.15a.39.39,0,0,1,.4.4v1.37a.39.39,0,0,1-.4.4h-6.15Zm37.79-9.16v-.28a.06.06,0,0,0-.06-.06h-2a.06.06,0,0,0-.06.06v.28a.06.06,0,0,0,.06.06h.74v2.11a.06.06,0,0,0,.06.06h.34a.06.06,0,0,0,.06-.06v-2.11h.74C1004.33,845.78,1004.38,845.78,1004.38,845.72Zm3.07,2.22v-2.45a.18.18,0,0,0-.17-.17H1007a.12.12,0,0,0-.11.11l-.68,1.42c0,.06,0,.06-.06.06l-.06-.06-.74-1.42a.12.12,0,0,0-.11-.11H1005a.18.18,0,0,0-.17.17v2.45a.06.06,0,0,0,.06.06h.4a.06.06,0,0,0,.06-.06v-1.65h0l.63,1.31c0,.06.06.06.11.06h.17c.06,0,.11,0,.11-.06l.63-1.31h0v1.65c0,.06,0,.06.06.06h.4A.06.06,0,0,0,1007.46,847.94Zm-236.72-7.23a2.09,2.09,0,0,1-3-2.9,2.08,2.08,0,0,1,3-.11A2.2,2.2,0,0,1,770.73,840.71Zm-21.06-4.84a1,1,0,1,0,.06,1.48A1.07,1.07,0,0,0,749.67,835.88Zm5.29-2a1.29,1.29,0,1,0,.06,1.82A1.33,1.33,0,0,0,755,833.88Zm5.63-.4a1.65,1.65,0,0,0-2.28,2.39,1.61,1.61,0,0,0,2.28-.06A1.58,1.58,0,0,0,760.6,833.48Zm5.35,1.37a1.85,1.85,0,1,0,.06,2.62A1.82,1.82,0,0,0,766,834.85Zm-20.78,4.55a.77.77,0,1,0,.06,1.08A.74.74,0,0,0,745.18,839.4Zm27,19.18a1,1,0,1,0,1.48-.06A1,1,0,0,0,772.21,858.59Zm1.31-5.41a1.33,1.33,0,0,0,.06,1.82,1.29,1.29,0,0,0,1.76-1.88A1.33,1.33,0,0,0,773.52,853.18Zm-.4-5.63a1.65,1.65,0,1,0,2.33-.06A1.63,1.63,0,0,0,773.12,847.54Zm-1.94-5.29a1.85,1.85,0,1,0,2.62-.06A1.93,1.93,0,0,0,771.19,842.25Zm-1.82,21a.77.77,0,1,0,1.08-.06A.74.74,0,0,0,769.37,863.25Zm-22.43,2.68a2.15,2.15,0,0,0-.11-3A2.09,2.09,0,1,0,744,866,2,2,0,0,0,746.94,865.93Zm-4.55-20.78a1,1,0,1,0-1.48.06A1,1,0,0,0,742.39,845.15ZM741,850.56a1.29,1.29,0,0,0-1.88-1.76,1.29,1.29,0,1,0,1.88,1.76Zm.4,5.63a1.65,1.65,0,1,0-2.33.06A1.63,1.63,0,0,0,741.42,856.19Zm2,5.29a1.87,1.87,0,0,0-.06-2.62,1.93,1.93,0,0,0-2.62.06,1.87,1.87,0,0,0,.06,2.62A1.93,1.93,0,0,0,743.41,861.49Zm21.52,6.37a1,1,0,1,0-.06-1.48A1,1,0,0,0,764.93,867.86Zm-5.29,2a1.29,1.29,0,1,0-.06-1.82A1.27,1.27,0,0,0,759.63,869.86Zm-5.69.4a1.65,1.65,0,1,0-.06-2.33A1.68,1.68,0,0,0,753.94,870.25Zm-5.29-1.37a1.85,1.85,0,1,0-.06-2.62A1.82,1.82,0,0,0,748.65,868.89Zm13.89-29a1.6,1.6,0,0,1-2,1.08,1.65,1.65,0,0,1-1.14-2,1.67,1.67,0,0,1,2-1.14A1.69,1.69,0,0,1,762.54,839.86Zm-15.77,3.87a.84.84,0,0,0-1,.57.87.87,0,0,0,.57,1,.83.83,0,0,0,.46-1.59Zm2.85-3.13a1,1,0,1,0,.68,1.25A1,1,0,0,0,749.62,840.6Zm3.64-2.22a1.28,1.28,0,1,0,.85,1.59A1.26,1.26,0,0,0,753.26,838.38Zm4-.91a1.42,1.42,0,1,0,1,1.76A1.39,1.39,0,0,0,757.3,837.47ZM744.95,847.6a.57.57,0,0,0-.74.4.54.54,0,0,0,.4.74.59.59,0,1,0,.34-1.14Zm24.59,3.7a.83.83,0,1,0,1.59.46.87.87,0,0,0-.57-1A.81.81,0,0,0,769.54,851.3Zm-1-4.1a1,1,0,1,0,1.25-.68A1.08,1.08,0,0,0,768.57,847.2Zm-2.22-3.64a1.26,1.26,0,0,0,.85,1.59,1.31,1.31,0,0,0,1.59-.85,1.26,1.26,0,0,0-.85-1.59A1.31,1.31,0,0,0,766.35,843.56Zm-3.07-2.85a1.42,1.42,0,1,0,1.76-1A1.44,1.44,0,0,0,763.28,840.71Zm5.92,14.63a.59.59,0,1,0,.74-.4A.69.69,0,0,0,769.2,855.34Zm-14,9.51a1.66,1.66,0,1,0-2,1.14A1.68,1.68,0,0,0,755.2,864.85Zm-10.13-12.41a.83.83,0,1,0-1,.57A.81.81,0,0,0,745.06,852.44Zm.91,4.1a1,1,0,0,0-.68-1.25,1,1,0,1,0,.68,1.25Zm2.22,3.64a1.28,1.28,0,1,0-2.45-.74,1.26,1.26,0,0,0,.85,1.59A1.24,1.24,0,0,0,748.19,860.18Zm3.13,2.85a1.42,1.42,0,1,0-1.76,1A1.44,1.44,0,0,0,751.32,863Zm16.45-3a.81.81,0,0,0,1-.57.87.87,0,0,0-.57-1,.84.84,0,0,0-1,.57A.92.92,0,0,0,767.77,860Zm-2.85,3.13a1,1,0,1,0-.68-1.25A1.08,1.08,0,0,0,764.93,863.14Zm-3.64,2.22a1.28,1.28,0,0,0,.74-2.45,1.26,1.26,0,0,0-1.59.85A1.31,1.31,0,0,0,761.29,865.36Zm-4,.91a1.42,1.42,0,1,0-1-1.76A1.44,1.44,0,0,0,757.24,866.27Zm-3.36-23.34a1.24,1.24,0,0,1-.51,1.71,1.23,1.23,0,0,1-1.71-.51,1.24,1.24,0,0,1,.51-1.71A1.23,1.23,0,0,1,753.89,842.93Zm-6.32,10a.76.76,0,0,0-.28,1,.71.71,0,0,0,1,.28.73.73,0,0,0,.28-1A.78.78,0,0,0,747.57,852.89Zm-.11-3.07a.9.9,0,0,0-.34,1.2.85.85,0,0,0,1.2.34.92.92,0,0,0,.34-1.2A.9.9,0,0,0,747.45,849.82Zm.8-3a1,1,0,0,0-.4,1.37,1,1,0,0,0,1.37.4,1,1,0,0,0,.4-1.37A1.07,1.07,0,0,0,748.25,846.86Zm1.65-2.56a1.13,1.13,0,1,0,1.54.46A1.21,1.21,0,0,0,749.9,844.3Zm-1.25,11.5a.64.64,0,0,0-.23.85.63.63,0,0,0,.85.23.64.64,0,0,0,.23-.85A.71.71,0,0,0,748.65,855.8Zm14.51-10.42a.73.73,0,0,0,1,.28.75.75,0,0,0-.74-1.31A.78.78,0,0,0,763.16,845.38Zm-2.56-1.65a.92.92,0,0,0,1.2.34.85.85,0,0,0,.34-1.2.9.9,0,0,0-1.2-.34A.92.92,0,0,0,760.6,843.73Zm-2.9-.8a1,1,0,1,0,.4-1.37A1,1,0,0,0,757.7,842.93Zm-3.13.11a1.13,1.13,0,1,0,.46-1.54A1.21,1.21,0,0,0,754.57,843Zm10.53,4.61a.64.64,0,0,0,.85.23.63.63,0,0,0,.23-.85.71.71,0,0,0-.85-.28A.73.73,0,0,0,765.1,847.66Zm-2.16,12a1.3,1.3,0,0,0-1.76-.51,1.24,1.24,0,0,0-.51,1.71,1.25,1.25,0,0,0,1.71.51A1.22,1.22,0,0,0,762.94,859.61Zm-11.55-1.25a.73.73,0,0,0-1-.28.75.75,0,0,0-.28,1,.75.75,0,0,0,1.31-.74Zm2.56,1.65a.9.9,0,0,0-1.2-.34.88.88,0,0,0,.85,1.54A.92.92,0,0,0,753.94,860Zm3,.8a1,1,0,1,0-.4,1.37A1,1,0,0,0,756.9,860.81Zm3.07-.17a1.13,1.13,0,1,0-.46,1.54A1.12,1.12,0,0,0,760,860.63Zm7-9.79a.84.84,0,0,0,.34-1,.76.76,0,0,0-1-.28.7.7,0,0,0-.28,1A.73.73,0,0,0,767,850.84Zm.11,3.07a.9.9,0,0,0,.34-1.2.88.88,0,1,0-1.54.85A.92.92,0,0,0,767.09,853.92Zm-.8,2.9a1,1,0,0,0,.4-1.37,1,1,0,0,0-1.37-.4,1,1,0,0,0-.4,1.37A1,1,0,0,0,766.29,856.82Zm-1.59,2.56a1.13,1.13,0,1,0-1.54-.46A1.08,1.08,0,0,0,764.7,859.38Zm21.86-4.21a3.3,3.3,0,0,1-3.3-3.3,3.26,3.26,0,0,1,3.3-3.24,3.27,3.27,0,1,1,0,6.55Zm-12.86-28.29a1.81,1.81,0,1,0-2.16,1.37A1.79,1.79,0,0,0,773.69,826.88Zm6.43,4.61a2.19,2.19,0,1,0-2.5,1.82A2.15,2.15,0,0,0,780.13,831.49Zm5.24,6a2.75,2.75,0,1,0-3,2.45A2.79,2.79,0,0,0,785.36,837.53Zm3.24,6.94a3,3,0,1,0-3.19,2.85A3.08,3.08,0,0,0,788.61,844.47Zm-30-21.86a1.31,1.31,0,1,0-1.31,1.31A1.32,1.32,0,0,0,758.61,822.61Zm12.92,52.82a1.81,1.81,0,1,0,.8,3.53,1.79,1.79,0,0,0,1.37-2.16A1.88,1.88,0,0,0,771.53,875.43Zm6.09-5a2.19,2.19,0,1,0,2.5,1.82A2.15,2.15,0,0,0,777.62,870.42Zm4.72-6.66a2.75,2.75,0,1,0,3,2.45A2.79,2.79,0,0,0,782.35,863.76Zm3.07-7.34a3,3,0,1,0,3.19,2.85A3.08,3.08,0,0,0,785.42,856.42ZM757.3,879.82a1.31,1.31,0,1,0,1.31,1.31A1.32,1.32,0,0,0,757.3,879.82ZM728,855.17a3.27,3.27,0,0,0,0-6.55,3.3,3.3,0,0,0-3.3,3.3A3.37,3.37,0,0,0,728,855.17Zm15-26.92a1.82,1.82,0,0,0,1.37-2.16,1.81,1.81,0,1,0-3.53.8A1.82,1.82,0,0,0,743,828.25Zm-6.09,5.07a2.19,2.19,0,1,0-2.5-1.82A2.15,2.15,0,0,0,736.92,833.31ZM732.2,840a2.75,2.75,0,0,0-.57-5.46,2.79,2.79,0,0,0-2.45,3A2.83,2.83,0,0,0,732.2,840Zm-3,7.34a3,3,0,1,0-3.19-2.85A3,3,0,0,0,729.18,847.32Zm11.67,29.54a1.8,1.8,0,1,0,2.16-1.42A1.9,1.9,0,0,0,740.85,876.86Zm-6.43-4.61a2.19,2.19,0,1,0,2.5-1.82A2.15,2.15,0,0,0,734.42,872.25Zm-5.18-6a2.75,2.75,0,1,0,3-2.45A2.74,2.74,0,0,0,729.24,866.21ZM726,859.27a3,3,0,1,0,3.19-2.85A3,3,0,0,0,726,859.27Zm38.48,19.52a1.41,1.41,0,1,0,1.71,1A1.33,1.33,0,0,0,764.47,878.79Zm-14.4,0a1.41,1.41,0,1,0,1,1.71A1.43,1.43,0,0,0,750.07,878.79ZM766.24,824a1.41,1.41,0,1,0-1.71,1A1.46,1.46,0,0,0,766.24,824Zm-15.14-.74a1.38,1.38,0,0,0-1.71-1,1.41,1.41,0,1,0,.68,2.73A1.52,1.52,0,0,0,751.1,823.24Zm28.17,21.91a2.56,2.56,0,1,1,1.37-3.36A2.55,2.55,0,0,1,779.27,845.15Zm-17.93-16.28a1.37,1.37,0,0,0-1.65-1.08,1.4,1.4,0,1,0,.57,2.73A1.4,1.4,0,0,0,761.34,828.87Zm6,1.31a1.76,1.76,0,0,0-2.11-1.25A1.73,1.73,0,0,0,764,831a1.76,1.76,0,0,0,2.11,1.25A1.71,1.71,0,0,0,767.38,830.18Zm5.58,2.73a2.14,2.14,0,1,0-1.42,2.68A2.19,2.19,0,0,0,773,832.92Zm4.5,3.93a2.31,2.31,0,0,0-3-1.37,2.34,2.34,0,1,0,1.65,4.38A2.32,2.32,0,0,0,777.45,836.84Zm-28.29-6.37a1,1,0,1,0-.51,1.37A1,1,0,0,0,749.16,830.47Zm25.67,33.92a1.43,1.43,0,1,0,2,.34A1.41,1.41,0,0,0,774.83,864.39Zm2.79-5.52a1.69,1.69,0,1,0,2.33.51A1.67,1.67,0,0,0,777.62,858.87Zm1.31-6.2a2.13,2.13,0,1,0,2.9.8A2.13,2.13,0,0,0,778.93,852.67Zm-.06-6.2a2.37,2.37,0,0,0-1.08,3.13,2.32,2.32,0,0,0,3.13,1.08,2.37,2.37,0,0,0,1.08-3.13A2.32,2.32,0,0,0,778.87,846.46ZM766,871.9a1,1,0,1,0,1.37.51A1.06,1.06,0,0,0,766,871.9Zm-28.63-8.65a2.55,2.55,0,0,0-2-4.67,2.55,2.55,0,1,0,2,4.67Zm2.45-23.91a1.43,1.43,0,1,0-2-.34A1.4,1.4,0,0,0,739.77,839.35ZM737,844.87a1.73,1.73,0,0,0,.51-2.39,1.69,1.69,0,0,0-2.85,1.82A1.63,1.63,0,0,0,737,844.87Zm-1.37,6.2a2.13,2.13,0,1,0-2.9-.8A2.13,2.13,0,0,0,735.62,851.07Zm.11,6.2a2.37,2.37,0,0,0,1.08-3.13,2.32,2.32,0,0,0-3.13-1.08,2.37,2.37,0,0,0-1.08,3.13A2.29,2.29,0,0,0,735.73,857.28Zm17.53,17.59a1.45,1.45,0,0,0,1.65,1.14,1.4,1.4,0,1,0-.57-2.73A1.28,1.28,0,0,0,753.26,874.86Zm-6.09-1.31a1.73,1.73,0,1,0,1.25-2.11A1.76,1.76,0,0,0,747.17,873.55Zm-5.58-2.73a2.14,2.14,0,1,0,1.42-2.68A2.19,2.19,0,0,0,741.59,870.82Zm-4.44-4a2.31,2.31,0,0,0,3,1.37,2.34,2.34,0,1,0-3-1.37Zm33.64,2.11a1.09,1.09,0,1,0,1.54.17A1.09,1.09,0,0,0,770.79,868.94Zm-10.36,4.44a1.09,1.09,0,1,0,1.25.91A1.11,1.11,0,0,0,760.43,873.38Zm-5.35-44.28a1.09,1.09,0,1,0-.91,1.25A1.18,1.18,0,0,0,755.08,829.1ZM744,833.26a1.09,1.09,0,1,0-.17,1.54A1.09,1.09,0,0,0,744,833.26Z"/><path class="cls-2" d="M364.54,85.68a1.09,1.09,0,0,1-1.1,1h-20c.55,5,4.18,9.46,9.46,9.46A9.27,9.27,0,0,0,361.13,92a1.12,1.12,0,0,1,.88-.55,1,1,0,0,1,1,1c0,.22-.11.33-.11.55-2,3.52-6.05,5.28-10,5.28-6.71,0-11.55-6.05-11.55-12.54s4.84-12.54,11.55-12.54,11.66,6.16,11.66,12.54m-2.09-1c-.44-5-4.18-9.46-9.46-9.46s-9,4.51-9.46,9.46ZM383.57,73.8V66.1a1,1,0,1,0-2,0v7.7h-5.17a1.06,1.06,0,0,0-1,1,1,1,0,0,0,1,1h5.17V96.9a1,1,0,0,0,1,1,1.06,1.06,0,0,0,1-1V75.78H389a1,1,0,0,0,0-2Zm38.17,10.12c0-5.5-3.41-10.67-9.24-10.67a9.48,9.48,0,0,0-8.36,5.17V54.66a1,1,0,0,0-1-1,1.06,1.06,0,0,0-1,1v42a1,1,0,1,0,2,0V87.11c0-.11-.11-.77-.11-.88-.33-5.5,2.31-10.89,8.47-10.89,4.84,0,7.26,4.29,7.26,8.58V96.68a1,1,0,0,0,2,0V83.92m35.86,1.76a1.09,1.09,0,0,1-1.1,1h-20c.55,5,4.18,9.46,9.46,9.46A9.27,9.27,0,0,0,454.2,92a1.12,1.12,0,0,1,.88-.55,1,1,0,0,1,1,1c0,.22-.11.33-.11.55-2,3.52-6.05,5.28-10,5.28-6.71,0-11.55-6.05-11.55-12.54S439.24,73.14,446,73.14s11.66,6.16,11.66,12.54m-2.09-1c-.44-5-4.18-9.46-9.46-9.46s-9,4.51-9.46,9.46Zm26.73-10a1,1,0,0,0-1.1-.88c-3.41,0-6.71,2.64-8.36,5.5V74.9a1,1,0,1,0-2,0V96.79a1,1,0,0,0,2,0V87.22c0-5.61,2.64-10.45,8.58-11.22a1.43,1.43,0,0,0,.88-1.32m33,11a1.09,1.09,0,0,1-1.1,1h-20c.55,5,4.18,9.46,9.46,9.46A9.27,9.27,0,0,0,511.85,92a1.12,1.12,0,0,1,.88-.55,1,1,0,0,1,1,1c0,.22-.11.33-.11.55-2,3.52-6.05,5.28-10,5.28-6.71,0-11.55-6.05-11.55-12.54s4.84-12.54,11.55-12.54,11.66,6.16,11.66,12.54m-2.2-1c-.44-5-4.18-9.46-9.46-9.46s-9,4.51-9.46,9.46ZM547.6,74.9a1,1,0,1,0-2,0V83c0,6.93-1.54,13.31-8.36,13.31-4.84,0-7.26-4.29-7.26-8.58V74.9a1,1,0,0,0-1-1,1.06,1.06,0,0,0-1,1V87.77c0,5.5,3.3,10.67,9.24,10.67,3.74,0,6.71-2.42,8.36-5.72V96.9a1,1,0,0,0,2,0v-22m50.72,9c0-5.5-3.41-10.56-9.24-10.56-4.18,0-7.37,2.64-9,6.38a8.85,8.85,0,0,0-8.58-6.38,9.38,9.38,0,0,0-8.36,5.06V74.79a1,1,0,1,0-2,0v22a1,1,0,0,0,2,0V87.11c.11-.11,0-.33,0-.55-.22-6.38,2.31-11.22,8.36-11.22,4.84,0,7.26,4.18,7.26,8.58V96.79a1,1,0,1,0,2,0v-9.9c0-5.06,2.31-11.44,8.36-11.44,4.84,0,7.26,4.18,7.26,8.58V96.9a1,1,0,1,0,2,0v-13M293.25,38.71l-25,41.47,25,14.74,25-14.74Zm.66,60.95-25-14.74,25,35.2,25-35.2Z"/><path class="cls-2" d="M426.43,839.81h11.13c4.48,0,7,2.24,7,5.88a6,6,0,0,1-4.22,5.88c2.94.64,5.05,2.49,5.05,5.76,0,3.9-3.07,6.65-7.74,6.65H426.43Zm9.72,10a2.9,2.9,0,0,0,3.2-3.13c0-1.73-1.09-2.75-3.33-2.75h-4.41v5.82l4.54.06Zm.77,10c2.24,0,3.26-1.22,3.26-3.07s-1.28-2.88-3.52-2.88h-5v5.88h5.25Zm14.71-15.29-4.86.83-.64-4.29,6.33-1.28h4.29v24.12h-5.12Zm8.7-4.41h2.11v9.53h-2.11Zm4,0h3.65a4.73,4.73,0,0,1,0,9.47H464.3Zm3.52,7.74c1.54,0,2.75-.9,2.75-3s-1.22-3-2.75-3h-1.47v5.95h1.47Zm-19.7-30.7a4.77,4.77,0,0,1,2.43.64l25.91,15a4.89,4.89,0,0,1,2.43,4.16V866.8a4.68,4.68,0,0,1-2.43,4.16l-25.91,15a4.94,4.94,0,0,1-4.86,0L419.78,871a4.89,4.89,0,0,1-2.43-4.16V836.93a4.68,4.68,0,0,1,2.43-4.16l25.91-15a4.77,4.77,0,0,1,2.43-.64m0-6.08a10.84,10.84,0,0,0-5.44,1.47l-25.91,14.9a11.07,11.07,0,0,0-5.44,9.47V866.8a10.88,10.88,0,0,0,5.44,9.4l25.91,15a10.78,10.78,0,0,0,10.87,0l25.91-15a10.83,10.83,0,0,0,5.44-9.4V836.93a10.88,10.88,0,0,0-5.44-9.4l-25.91-15a10.84,10.84,0,0,0-5.44-1.47Z"/><path class="cls-3" d="M195.27,292.47H206.4c4.48,0,7,2.24,7,5.88a6,6,0,0,1-4.22,5.88c2.94.64,5.05,2.49,5.05,5.76,0,3.9-3.07,6.65-7.74,6.65H195.27Zm9.72,10a2.9,2.9,0,0,0,3.2-3.13c0-1.73-1.09-2.75-3.33-2.75h-4.41v5.82l4.54.06Zm.77,10c2.24,0,3.26-1.22,3.26-3.07s-1.28-2.88-3.52-2.88h-5v5.88h5.25Zm14.71-15.29-4.86.83-.64-4.29,6.33-1.28h4.29v24.12h-5.12Zm8.7-4.41h2.11v9.53h-2.11Zm4,0h3.65a4.73,4.73,0,0,1,0,9.47h-3.65Zm3.52,7.74c1.54,0,2.75-.9,2.75-3s-1.22-3-2.75-3h-1.47v5.95h1.47ZM217,269.82a4.77,4.77,0,0,1,2.43.64l25.91,15a4.89,4.89,0,0,1,2.43,4.16v29.87a4.68,4.68,0,0,1-2.43,4.16l-25.91,15a4.94,4.94,0,0,1-4.86,0l-25.91-14.9a4.89,4.89,0,0,1-2.43-4.16V289.59a4.68,4.68,0,0,1,2.43-4.16l25.91-15a4.77,4.77,0,0,1,2.43-.64m0-6.08a10.84,10.84,0,0,0-5.44,1.47l-25.91,14.9a11.07,11.07,0,0,0-5.44,9.47v29.87a10.88,10.88,0,0,0,5.44,9.4l25.91,15a10.78,10.78,0,0,0,10.87,0l25.91-15a10.83,10.83,0,0,0,5.44-9.4V289.59a10.88,10.88,0,0,0-5.44-9.4l-25.91-15a10.84,10.84,0,0,0-5.44-1.47Z"/><path class="cls-3" d="M668,472.44H679.1c4.48,0,7,2.24,7,5.88a6,6,0,0,1-4.22,5.88c2.94.64,5.05,2.49,5.05,5.76,0,3.9-3.07,6.65-7.74,6.65H668Zm9.72,10a2.9,2.9,0,0,0,3.2-3.13c0-1.73-1.09-2.75-3.33-2.75h-4.41v5.82l4.54.06Zm.77,10c2.24,0,3.26-1.22,3.26-3.07s-1.28-2.88-3.52-2.88h-5v5.88h5.25Zm14.71-15.29-4.86.83-.64-4.29,6.33-1.28h4.29v24.12h-5.12Zm8.7-4.41H704v9.53h-2.11Zm4,0h3.65a4.73,4.73,0,0,1,0,9.47h-3.65Zm3.52,7.74c1.54,0,2.75-.9,2.75-3s-1.22-3-2.75-3h-1.47v5.95h1.47Zm-19.7-30.7a4.77,4.77,0,0,1,2.43.64l25.91,15a4.89,4.89,0,0,1,2.43,4.16v29.87a4.68,4.68,0,0,1-2.43,4.16l-25.91,15a4.94,4.94,0,0,1-4.86,0l-25.91-14.9a4.89,4.89,0,0,1-2.43-4.16V469.56a4.68,4.68,0,0,1,2.43-4.16l25.91-15a4.77,4.77,0,0,1,2.43-.64m0-6.08a10.84,10.84,0,0,0-5.44,1.47l-25.91,14.9a11.07,11.07,0,0,0-5.44,9.47v29.87a10.88,10.88,0,0,0,5.44,9.4l25.91,15a10.78,10.78,0,0,0,10.87,0l25.91-15a10.83,10.83,0,0,0,5.44-9.4V469.56a10.88,10.88,0,0,0-5.44-9.4l-25.91-15a10.84,10.84,0,0,0-5.44-1.47Z"/><path class="cls-3" d="M668,253.44H679.1c4.48,0,7,2.24,7,5.88a6,6,0,0,1-4.22,5.88c2.94.64,5.05,2.49,5.05,5.76,0,3.9-3.07,6.65-7.74,6.65H668Zm9.72,10a2.9,2.9,0,0,0,3.2-3.13c0-1.73-1.09-2.75-3.33-2.75h-4.41v5.82l4.54.06Zm.77,10c2.24,0,3.26-1.22,3.26-3.07s-1.28-2.88-3.52-2.88h-5v5.88h5.25Zm14.71-15.29-4.86.83-.64-4.29,6.33-1.28h4.29v24.12h-5.12Zm8.7-4.41H704v9.53h-2.11Zm4,0h3.65a4.73,4.73,0,0,1,0,9.47h-3.65Zm3.52,7.74c1.54,0,2.75-.9,2.75-3s-1.22-3-2.75-3h-1.47v5.95h1.47Zm-19.7-30.7a4.77,4.77,0,0,1,2.43.64l25.91,15a4.89,4.89,0,0,1,2.43,4.16v29.87a4.68,4.68,0,0,1-2.43,4.16l-25.91,15a4.94,4.94,0,0,1-4.86,0l-25.91-14.9a4.89,4.89,0,0,1-2.43-4.16V250.56a4.68,4.68,0,0,1,2.43-4.16l25.91-15a4.77,4.77,0,0,1,2.43-.64m0-6.08a10.84,10.84,0,0,0-5.44,1.47l-25.91,14.9a11.07,11.07,0,0,0-5.44,9.47v29.87a10.88,10.88,0,0,0,5.44,9.4l25.91,15a10.78,10.78,0,0,0,10.87,0l25.91-15a10.83,10.83,0,0,0,5.44-9.4V250.56a10.88,10.88,0,0,0-5.44-9.4l-25.91-15a10.84,10.84,0,0,0-5.44-1.47Z"/><polyline class="cls-1" points="448.11 796.62 448.11 464 501.53 464"/><polygon class="cls-2" points="515.65 464 495.75 472.13 500.47 464 495.75 455.87 515.65 464"/><path class="cls-2" d="M449.1,443.35a.86.86,0,1,1,.86.86A.86.86,0,0,1,449.1,443.35Zm.21,2.91h1.3v10.16h-1.3Z"/><path class="cls-2" d="M452.93,446.26h1.22v1.9h0a3.67,3.67,0,0,1,6.94,1.72v6.53h-1.29V450.1a2.5,2.5,0,0,0-2.69-2.8,2.88,2.88,0,0,0-2.93,3.16v6h-1.29Z"/><path class="cls-2" d="M466.76,446.16c2.08,0,3.57,1.22,3.67,3H469.2a2.22,2.22,0,0,0-2.48-1.9c-1.34,0-2.35.69-2.35,1.71,0,.82.6,1.3,1.88,1.61l1.58.38c2,.51,2.8,1.25,2.8,2.69,0,1.72-1.63,2.92-3.93,2.92s-3.76-1.25-3.9-3h1.29c.16,1.16,1.16,1.91,2.68,1.91s2.56-.68,2.56-1.75c0-.85-.52-1.32-1.87-1.66l-1.73-.43c-1.76-.44-2.63-1.28-2.63-2.63C463.09,447.33,464.65,446.16,466.76,446.16Z"/><path class="cls-2" d="M480.65,453.54c-.3,1.74-2,3-4.19,3-2.82,0-4.62-2-4.62-5.17s1.8-5.22,4.54-5.22,4.39,1.93,4.39,5v.55h-7.61v.08c0,2.27,1.32,3.67,3.32,3.67a2.75,2.75,0,0,0,2.88-1.87Zm-7.47-2.91h6.27a3.09,3.09,0,0,0-3.09-3.35A3.21,3.21,0,0,0,473.18,450.63Z"/><path class="cls-2" d="M482.51,446.26h1.22v1.81h0a2.57,2.57,0,0,1,2.57-1.92,3,3,0,0,1,.8.11v1.27a2.9,2.9,0,0,0-1-.14c-1.45,0-2.36,1.12-2.36,2.76v6.27h-1.29Z"/><path class="cls-2" d="M490.45,443.72v2.54h2v1.07h-2v6.51c0,1.05.41,1.49,1.35,1.49l.7,0v1.09a6.41,6.41,0,0,1-1,.06c-1.7,0-2.38-.72-2.38-2.55v-6.58h-1.51v-1.07h1.51v-2.54Z"/><polyline class="cls-1" points="350.95 515.67 406 515.67 406 669.39 769.88 669.39"/><polygon class="cls-2" points="784 669.39 764.1 677.52 768.82 669.39 764.1 661.26 784 669.39"/><polyline class="cls-1" points="963.12 669.39 1300 669.39 1300 322 1300 220 1230.67 220"/><polygon class="cls-2" points="949 669.39 968.9 677.52 964.18 669.39 968.9 661.26 949 669.39"/><polygon class="cls-2" points="1216.55 220 1236.45 211.87 1231.73 220 1236.45 228.13 1216.55 220"/><polyline class="cls-1" points="934.55 354 866.2 354 866.2 464 797.77 464"/><polygon class="cls-2" points="948.67 354 928.77 345.87 933.5 354 928.77 362.13 948.67 354"/><polygon class="cls-2" points="783.65 464 803.55 455.87 798.83 464 803.55 472.13 783.65 464"/><polyline class="cls-1" points="934.37 171 866.07 171 866.07 237.38 797.77 237.38"/><polygon class="cls-2" points="948.49 171 928.59 162.87 933.32 171 928.59 179.13 948.49 171"/><polygon class="cls-2" points="783.65 237.38 803.55 229.24 798.83 237.38 803.55 245.5 783.65 237.38"/><polyline class="cls-1" points="350.95 224.33 448.11 224.33 448.11 173 501.53 173"/><polygon class="cls-2" points="515.65 173 495.75 181.13 500.47 173 495.75 164.87 515.65 173"/><line class="cls-1" x1="350.95" y1="392" x2="501.53" y2="392"/><polygon class="cls-2" points="515.65 392 495.75 400.13 500.47 392 495.75 383.87 515.65 392"/><line class="cls-1" x1="866.07" y1="712.9" x2="866.07" y2="782.5"/><polygon class="cls-2" points="866.07 698.78 857.94 718.68 866.07 713.96 874.2 718.68 866.07 698.78"/><polygon class="cls-2" points="866.07 796.62 857.94 776.72 866.07 781.44 874.2 776.72 866.07 796.62"/><path class="cls-2" d="M1380,9V746.78H2.47V9H1380m2-2H.47V748.78H1382V7Z"/><line class="cls-1" x1="1230.67" y1="404" x2="1300" y2="404"/><polygon class="cls-2" points="1216.55 404 1236.45 412.13 1231.73 404 1236.45 395.87 1216.55 404"/><line class="cls-1" x1="934.37" y1="278.33" x2="797.77" y2="278.33"/><polygon class="cls-2" points="948.49 278.33 928.59 270.2 933.32 278.33 928.59 286.46 948.49 278.33"/><polygon class="cls-2" points="783.65 278.33 803.55 270.2 798.83 278.33 803.55 286.46 783.65 278.33"/></svg>